<svg width="23" height="23" viewBox="0 0 23 23" fill="none" xmlns="http://www.w3.org/2000/svg">
<path d="M8.63365 11.3021C7.82811 11.3021 7.04065 11.0632 6.37086 10.6157C5.70107 10.1681 5.17904 9.53204 4.87077 8.78781C4.5625 8.04358 4.48184 7.22465 4.639 6.43458C4.79615 5.64451 5.18406 4.91879 5.75366 4.34918C6.32327 3.77957 7.049 3.39167 7.83907 3.23451C8.62913 3.07736 9.44806 3.15801 10.1923 3.46628C10.9365 3.77455 11.5726 4.29659 12.0202 4.96638C12.4677 5.63617 12.7066 6.42362 12.7066 7.22917C12.7053 8.30898 12.2758 9.34421 11.5122 10.1078C10.7487 10.8713 9.71347 11.3008 8.63365 11.3021ZM8.63365 4.59375C8.11242 4.59375 7.60289 4.74832 7.16949 5.0379C6.7361 5.32748 6.39831 5.73908 6.19885 6.22064C5.99938 6.7022 5.94719 7.23209 6.04887 7.74331C6.15056 8.25453 6.40156 8.72412 6.77013 9.09269C7.1387 9.46126 7.60829 9.71226 8.11951 9.81395C8.63073 9.91564 9.16062 9.86345 9.64218 9.66398C10.1237 9.46451 10.5353 9.12672 10.8249 8.69333C11.1145 8.25994 11.2691 7.75041 11.2691 7.22917C11.2686 6.53037 10.9907 5.86033 10.4966 5.36621C10.0025 4.87208 9.33245 4.59426 8.63365 4.59375ZM12.4584 20.8438H4.79169C2.47253 20.8438 1.19507 19.574 1.19507 17.2682C1.19507 14.7171 2.63832 11.7396 6.70549 11.7396H10.5388C14.606 11.7396 16.0492 14.7171 16.0492 17.2682C16.0521 19.574 14.7747 20.8438 12.4584 20.8438ZM6.70836 13.1771C6.16114 13.1348 5.61125 13.2117 5.09666 13.4026C4.58207 13.5935 4.11504 13.8938 3.7278 14.2828C3.34057 14.6717 3.04236 15.1401 2.85377 15.6555C2.66517 16.171 2.59068 16.7212 2.63544 17.2682C2.63544 18.767 3.28136 19.4063 4.79457 19.4063H12.4584C13.9716 19.4063 14.6175 18.767 14.6175 17.2682C14.6623 16.7209 14.5878 16.1704 14.399 15.6548C14.2102 15.1391 13.9118 14.6706 13.5242 14.2816C13.1366 13.8926 12.6692 13.5923 12.1543 13.4016C11.6394 13.2109 11.0891 13.1343 10.5417 13.1771H6.70836ZM15.87 10.7238C15.0105 10.7267 14.1844 10.3914 13.57 9.79034C13.4535 9.65426 13.3921 9.47959 13.3976 9.30055C13.4032 9.12152 13.4754 8.95101 13.6002 8.82244C13.7249 8.69388 13.8931 8.61652 14.0719 8.60553C14.2507 8.59453 14.4272 8.65069 14.5667 8.763C14.9141 9.10168 15.381 9.28969 15.8662 9.28625C16.1149 9.28895 16.3616 9.24195 16.5918 9.14803C16.8221 9.05411 17.0313 8.91515 17.2072 8.7393C17.383 8.56345 17.522 8.35425 17.6159 8.12399C17.7098 7.89372 17.7568 7.64701 17.7541 7.39834C17.7534 6.89786 17.5542 6.41811 17.2003 6.06422C16.8464 5.71033 16.3667 5.51118 15.8662 5.51042C15.5912 5.50604 15.3191 5.56749 15.0727 5.68963C14.9028 5.77617 14.7055 5.79167 14.5241 5.73272C14.3428 5.67378 14.1923 5.5452 14.1057 5.37529C14.0192 5.20538 14.0037 5.00805 14.0626 4.82671C14.1216 4.64537 14.2502 4.49488 14.4201 4.40834C14.8696 4.18208 15.3668 4.06705 15.87 4.07292C16.752 4.07292 17.5978 4.42327 18.2215 5.04691C18.8451 5.67055 19.1954 6.51638 19.1954 7.39834C19.1954 8.28029 18.8451 9.12612 18.2215 9.74976C17.5978 10.3734 16.752 10.7238 15.87 10.7238ZM18.8409 18.9271H18.1892C17.9986 18.9271 17.8158 18.8514 17.681 18.7166C17.5462 18.5818 17.4704 18.399 17.4704 18.2083C17.4704 18.0177 17.5462 17.8349 17.681 17.7001C17.8158 17.5653 17.9986 17.4896 18.1892 17.4896H18.8409C19.9382 17.4896 20.3646 17.0679 20.3646 15.985C20.3975 15.5811 20.3423 15.1748 20.2028 14.7943C20.0633 14.4138 19.8429 14.0681 19.5568 13.7811C19.2707 13.494 18.9257 13.2725 18.5456 13.1319C18.1656 12.9912 17.7595 12.9347 17.3554 12.9663H15.9084C15.7177 12.9663 15.5349 12.8905 15.4001 12.7557C15.2653 12.6209 15.1896 12.4381 15.1896 12.2475C15.1896 12.0569 15.2653 11.8741 15.4001 11.7393C15.5349 11.6045 15.7177 11.5288 15.9084 11.5288H17.3554C17.9503 11.4897 18.5467 11.5782 19.1045 11.7885C19.6624 11.9988 20.1689 12.3259 20.59 12.7479C21.0111 13.1699 21.3371 13.677 21.5461 14.2353C21.7552 14.7937 21.8425 15.3902 21.8021 15.985C21.8431 16.3831 21.7945 16.7854 21.6599 17.1623C21.5252 17.5392 21.308 17.8812 21.0241 18.1632C20.7402 18.4453 20.3968 18.6603 20.019 18.7925C19.6412 18.9246 19.2387 18.9706 18.8409 18.9271Z" fill="white"/>
</svg>
