<svg width="22" height="22" viewBox="0 0 22 22" fill="none" xmlns="http://www.w3.org/2000/svg">
<path d="M21.7917 20.8031L16.1117 15.2138C17.5991 13.5978 18.513 11.4606 18.513 9.10875C18.5123 4.07781 14.3685 0 9.25638 0C4.1443 0 0.000457764 4.07781 0.000457764 9.10875C0.000457764 14.1397 4.1443 18.2175 9.25638 18.2175C11.4651 18.2175 13.491 17.4535 15.0823 16.1834L20.7843 21.7947C21.0622 22.0684 21.5132 22.0684 21.7911 21.7947C22.0695 21.521 22.0695 21.0768 21.7917 20.8031ZM9.25638 16.8161C4.931 16.8161 1.42461 13.3654 1.42461 9.10875C1.42461 4.85211 4.931 1.40143 9.25638 1.40143C13.5818 1.40143 17.0881 4.85211 17.0881 9.10875C17.0881 13.3654 13.5818 16.8161 9.25638 16.8161Z" fill="#1C3E77"/>
</svg>
