<svg width="20" height="20" viewBox="0 0 20 20" fill="none" xmlns="http://www.w3.org/2000/svg">
<path d="M6.5625 18.7431H13.4375C14.3413 18.7431 15.4025 18.1306 15.8538 17.3481L19.2913 11.3956C19.75 10.6006 19.75 9.40063 19.2913 8.60501L15.8531 2.65251C15.4019 1.87001 14.3406 1.25751 13.4369 1.25751H6.5625C5.65875 1.25751 4.5975 1.87001 4.14625 2.65251L0.708752 8.60501C0.250002 9.40001 0.250002 10.6 0.708752 11.3956L4.14688 17.3481C4.5975 18.1306 5.65938 18.7431 6.5625 18.7431ZM13.4375 2.50688C13.9031 2.50688 14.5388 2.87376 14.7713 3.27688L18.2094 9.22938C18.4419 9.63251 18.4419 10.3669 18.2094 10.77L14.7719 16.7225C14.5388 17.1263 13.9031 17.4925 13.4381 17.4925H6.5625C6.09688 17.4925 5.46125 17.1256 5.22875 16.7225L1.79062 10.77C1.55813 10.3669 1.55813 9.63251 1.79062 9.22938L5.22813 3.27688C5.46125 2.87313 6.09688 2.50688 6.56188 2.50688H13.4375ZM10 13.6975C12.0394 13.6975 13.6981 12.0388 13.6981 10C13.6981 7.96126 12.0394 6.30251 10 6.30251C7.96063 6.30251 6.30188 7.96126 6.30188 10C6.30188 12.0388 7.96063 13.6975 10 13.6975ZM10 7.55251C11.35 7.55251 12.4481 8.65063 12.4481 10C12.4481 11.3494 11.35 12.4475 10 12.4475C8.65 12.4475 7.55188 11.3494 7.55188 10C7.55188 8.65063 8.65 7.55251 10 7.55251Z" fill="#8C8FA8"/>
</svg>
