<svg width="25" height="25" viewBox="0 0 25 25" fill="none" xmlns="http://www.w3.org/2000/svg">
<g id="checked(1) 1" clip-path="url(#clip0_415_1051)">
<g id="Group">
<g id="Group_2">
<path id="Vector" d="M12.5 0C5.60777 0 0 5.60777 0 12.5C0 19.3922 5.60777 25 12.5 25C19.3922 25 25 19.3922 25 12.5C25 5.60777 19.3922 0 12.5 0ZM19.4862 9.21053L11.4975 17.1366C11.0276 17.6065 10.2757 17.6378 9.77444 17.1679L5.54511 13.3145C5.04386 12.8446 5.01253 12.0614 5.45113 11.5602C5.92105 11.0589 6.70426 11.0276 7.20551 11.4975L10.5576 14.5677L17.7005 7.42481C18.2018 6.92356 18.985 6.92356 19.4862 7.42481C19.9875 7.92607 19.9875 8.70927 19.4862 9.21053Z" fill="#5B8BFF"/>
</g>
</g>
</g>
<defs>
<clipPath id="clip0_415_1051">
<rect width="25" height="25" fill="white"/>
</clipPath>
</defs>
</svg>
