<svg width="27" height="27" viewBox="0 0 27 27" fill="none" xmlns="http://www.w3.org/2000/svg">
<g id="group 1" clip-path="url(#clip0_444_425)">
<g id="Group">
<g id="Group_2">
<path id="Vector" d="M23.1022 14.4134H21.0142C21.227 14.9961 21.3433 15.625 21.3433 16.2804V24.1721C21.3433 24.4454 21.2957 24.7077 21.2092 24.9516H24.6612C25.9507 24.9516 26.9998 23.9025 26.9998 22.6131V18.3109C26.9998 16.1619 25.2514 14.4134 23.1022 14.4134Z" fill="#8A60FF"/>
</g>
</g>
<g id="Group_3">
<g id="Group_4">
<path id="Vector_2" d="M5.65656 16.2805C5.65656 15.625 5.77284 14.9962 5.98568 14.4135H3.89761C1.74846 14.4135 0 16.1619 0 18.3111V22.6132C0 23.9027 1.04905 24.9518 2.33856 24.9518H5.79067C5.70413 24.7077 5.65656 24.4454 5.65656 24.1722V16.2805Z" fill="#8A60FF"/>
</g>
</g>
<g id="Group_5">
<g id="Group_6">
<path id="Vector_3" d="M15.8871 12.3828H11.1134C8.96428 12.3828 7.21582 14.1313 7.21582 16.2804V24.1722C7.21582 24.6026 7.56482 24.9517 7.99534 24.9517H19.0051C19.4357 24.9517 19.7847 24.6027 19.7847 24.1722V16.2804C19.7847 14.1313 18.0362 12.3828 15.8871 12.3828Z" fill="#8A60FF"/>
</g>
</g>
<g id="Group_7">
<g id="Group_8">
<path id="Vector_4" d="M13.4999 2.04822C10.9152 2.04822 8.8125 4.15095 8.8125 6.73563C8.8125 8.48878 9.78013 10.0199 11.2091 10.8238C11.8869 11.2051 12.6683 11.423 13.4999 11.423C14.3314 11.423 15.1128 11.2051 15.7906 10.8238C17.2196 10.0199 18.1872 8.48873 18.1872 6.73563C18.1872 4.151 16.0845 2.04822 13.4999 2.04822Z" fill="#8A60FF"/>
</g>
</g>
<g id="Group_9">
<g id="Group_10">
<path id="Vector_5" d="M5.2692 6.41721C3.33621 6.41721 1.76367 7.98975 1.76367 9.92273C1.76367 11.8557 3.33621 13.4283 5.2692 13.4283C5.75952 13.4283 6.22643 13.3267 6.65058 13.1441C7.3839 12.8284 7.98855 12.2695 8.36271 11.5695C8.62532 11.0781 8.77472 10.5176 8.77472 9.92273C8.77472 7.9898 7.20218 6.41721 5.2692 6.41721Z" fill="#8A60FF"/>
</g>
</g>
<g id="Group_11">
<g id="Group_12">
<path id="Vector_6" d="M21.7311 6.41721C19.7981 6.41721 18.2256 7.98975 18.2256 9.92273C18.2256 10.5177 18.375 11.0782 18.6376 11.5695C19.0118 12.2696 19.6164 12.8285 20.3497 13.1441C20.7739 13.3267 21.2408 13.4283 21.7311 13.4283C23.6641 13.4283 25.2366 11.8557 25.2366 9.92273C25.2366 7.98975 23.6641 6.41721 21.7311 6.41721Z" fill="#8A60FF"/>
</g>
</g>
</g>
<defs>
<clipPath id="clip0_444_425">
<rect width="27" height="27" fill="white"/>
</clipPath>
</defs>
</svg>
