<svg width="23" height="17" viewBox="0 0 23 17" fill="none" xmlns="http://www.w3.org/2000/svg">
<path d="M0.346878 7.76355L7.63855 0.471882C7.83501 0.282134 8.09813 0.17714 8.37125 0.179513C8.64438 0.181887 8.90564 0.291438 9.09877 0.484571C9.29191 0.677705 9.40146 0.938968 9.40383 1.21209C9.4062 1.48521 9.30121 1.74834 9.11146 1.9448L3.59792 7.45834H21.9167C22.1929 7.45834 22.4579 7.56809 22.6532 7.76344C22.8486 7.95879 22.9583 8.22374 22.9583 8.50001C22.9583 8.77627 22.8486 9.04123 22.6532 9.23658C22.4579 9.43193 22.1929 9.54167 21.9167 9.54167H3.59792L9.11146 15.0552C9.21095 15.1513 9.29031 15.2662 9.3449 15.3933C9.39949 15.5204 9.42823 15.6571 9.42943 15.7954C9.43063 15.9337 9.40428 16.0709 9.3519 16.1989C9.29952 16.3269 9.22218 16.4432 9.12437 16.541C9.02657 16.6388 8.91026 16.7162 8.78225 16.7686C8.65423 16.8209 8.51706 16.8473 8.37875 16.8461C8.24044 16.8449 8.10375 16.8162 7.97667 16.7616C7.84958 16.707 7.73464 16.6276 7.63855 16.5281L0.346878 9.23647C0.151596 9.04112 0.041893 8.77622 0.041893 8.50001C0.041893 8.22379 0.151596 7.95889 0.346878 7.76355Z" fill="#000B33"/>
</svg>
