<svg width="19" height="20" viewBox="0 0 19 20" fill="none" xmlns="http://www.w3.org/2000/svg">
<path d="M16.0312 10H13.0625V3.125C13.0625 2.62772 12.8748 2.15081 12.5408 1.79917C12.2067 1.44754 11.7537 1.25 11.2812 1.25H2.96875C2.49633 1.25 2.04327 1.44754 1.70922 1.79917C1.37517 2.15081 1.1875 2.62772 1.1875 3.125V15.625C1.1875 16.4538 1.50028 17.2487 2.05703 17.8347C2.61378 18.4208 3.36889 18.75 4.15625 18.75H14.8438C15.6311 18.75 16.3862 18.4208 16.943 17.8347C17.4997 17.2487 17.8125 16.4538 17.8125 15.625V11.875C17.8125 11.3777 17.6248 10.9008 17.2908 10.5492C16.9567 10.1975 16.5037 10 16.0312 10ZM2.375 15.625V3.125C2.375 2.95924 2.43756 2.80027 2.54891 2.68306C2.66026 2.56585 2.81128 2.5 2.96875 2.5H11.2812C11.4387 2.5 11.5897 2.56585 11.7011 2.68306C11.8124 2.80027 11.875 2.95924 11.875 3.125V15.625C11.8715 16.3017 12.0802 16.9608 12.4688 17.5H4.15625C3.68383 17.5 3.23077 17.3025 2.89672 16.9508C2.56267 16.5992 2.375 16.1223 2.375 15.625ZM16.625 15.625C16.625 16.1223 16.4373 16.5992 16.1033 16.9508C15.7692 17.3025 15.3162 17.5 14.8438 17.5C14.3713 17.5 13.9183 17.3025 13.5842 16.9508C13.2502 16.5992 13.0625 16.1223 13.0625 15.625V11.25H16.0312C16.1887 11.25 16.3397 11.3158 16.4511 11.4331C16.5624 11.5503 16.625 11.7092 16.625 11.875V15.625Z" fill="#8C8FA8"/>
<path d="M4.15625 5H6.53125C6.68872 5 6.83974 4.93415 6.95109 4.81694C7.06244 4.69973 7.125 4.54076 7.125 4.375C7.125 4.20924 7.06244 4.05027 6.95109 3.93306C6.83974 3.81585 6.68872 3.75 6.53125 3.75H4.15625C3.99878 3.75 3.84776 3.81585 3.73641 3.93306C3.62506 4.05027 3.5625 4.20924 3.5625 4.375C3.5625 4.54076 3.62506 4.69973 3.73641 4.81694C3.84776 4.93415 3.99878 5 4.15625 5Z" fill="#8C8FA8"/>
<path d="M10.0938 8.125H4.15625C3.99878 8.125 3.84776 8.19085 3.73641 8.30806C3.62506 8.42527 3.5625 8.58424 3.5625 8.75C3.5625 8.91576 3.62506 9.07473 3.73641 9.19194C3.84776 9.30915 3.99878 9.375 4.15625 9.375H10.0938C10.2512 9.375 10.4022 9.30915 10.5136 9.19194C10.6249 9.07473 10.6875 8.91576 10.6875 8.75C10.6875 8.58424 10.6249 8.42527 10.5136 8.30806C10.4022 8.19085 10.2512 8.125 10.0938 8.125Z" fill="#8C8FA8"/>
<path d="M10.0938 10.625H4.15625C3.99878 10.625 3.84776 10.6908 3.73641 10.8081C3.62506 10.9253 3.5625 11.0842 3.5625 11.25C3.5625 11.4158 3.62506 11.5747 3.73641 11.6919C3.84776 11.8092 3.99878 11.875 4.15625 11.875H10.0938C10.2512 11.875 10.4022 11.8092 10.5136 11.6919C10.6249 11.5747 10.6875 11.4158 10.6875 11.25C10.6875 11.0842 10.6249 10.9253 10.5136 10.8081C10.4022 10.6908 10.2512 10.625 10.0938 10.625Z" fill="#8C8FA8"/>
<path d="M10.0938 13.125H7.125C6.96753 13.125 6.81651 13.1908 6.70516 13.3081C6.59381 13.4253 6.53125 13.5842 6.53125 13.75C6.53125 13.9158 6.59381 14.0747 6.70516 14.1919C6.81651 14.3092 6.96753 14.375 7.125 14.375H10.0938C10.2512 14.375 10.4022 14.3092 10.5136 14.1919C10.6249 14.0747 10.6875 13.9158 10.6875 13.75C10.6875 13.5842 10.6249 13.4253 10.5136 13.3081C10.4022 13.1908 10.2512 13.125 10.0938 13.125Z" fill="#8C8FA8"/>
</svg>
