<svg width="23" height="23" viewBox="0 0 23 23" fill="none" xmlns="http://www.w3.org/2000/svg">
<g id="users-avatar 1">
<path id="users" d="M8.63341 11.3021C7.82786 11.3021 7.0404 11.0632 6.37062 10.6157C5.70083 10.1681 5.17879 9.53204 4.87052 8.78781C4.56225 8.04358 4.4816 7.22465 4.63875 6.43458C4.79591 5.64451 5.18381 4.91879 5.75342 4.34918C6.32303 3.77957 7.04875 3.39167 7.83882 3.23451C8.62889 3.07736 9.44782 3.15801 10.192 3.46628C10.9363 3.77455 11.5724 4.29659 12.0199 4.96638C12.4675 5.63617 12.7063 6.42362 12.7063 7.22917C12.7051 8.30898 12.2755 9.34421 11.512 10.1078C10.7485 10.8713 9.71322 11.3008 8.63341 11.3021ZM8.63341 4.59375C8.11217 4.59375 7.60264 4.74832 7.16925 5.0379C6.73586 5.32748 6.39807 5.73908 6.1986 6.22064C5.99913 6.7022 5.94694 7.23209 6.04863 7.74331C6.15032 8.25453 6.40132 8.72412 6.76989 9.09269C7.13846 9.46126 7.60804 9.71226 8.11926 9.81395C8.63049 9.91564 9.16038 9.86345 9.64194 9.66398C10.1235 9.46451 10.5351 9.12672 10.8247 8.69333C11.1143 8.25994 11.2688 7.75041 11.2688 7.22917C11.2683 6.53037 10.9905 5.86033 10.4964 5.36621C10.0022 4.87208 9.33221 4.59426 8.63341 4.59375ZM12.4581 20.8438H4.79145C2.47228 20.8438 1.19482 19.574 1.19482 17.2682C1.19482 14.7171 2.63807 11.7396 6.70524 11.7396H10.5386C14.6057 11.7396 16.049 14.7171 16.049 17.2682C16.0519 19.574 14.7744 20.8438 12.4581 20.8438ZM6.70812 13.1771C6.16089 13.1348 5.61101 13.2117 5.09642 13.4026C4.58183 13.5935 4.11479 13.8938 3.72756 14.2828C3.34032 14.6717 3.04212 15.1401 2.85352 15.6555C2.66493 16.171 2.59044 16.7212 2.6352 17.2682C2.6352 18.767 3.28112 19.4063 4.79432 19.4063H12.4581C13.9713 19.4063 14.6172 18.767 14.6172 17.2682C14.6621 16.7209 14.5875 16.1704 14.3987 15.6548C14.21 15.1391 13.9115 14.6706 13.524 14.2816C13.1364 13.8926 12.669 13.5923 12.1541 13.4016C11.6391 13.2109 11.0889 13.1343 10.5415 13.1771H6.70812ZM15.8698 10.7238C15.0103 10.7267 14.1841 10.3914 13.5698 9.79034C13.4533 9.65426 13.3918 9.47959 13.3974 9.30055C13.403 9.12152 13.4752 8.95101 13.5999 8.82244C13.7246 8.69388 13.8929 8.61652 14.0717 8.60553C14.2505 8.59453 14.4269 8.65069 14.5665 8.763C14.9139 9.10168 15.3808 9.28969 15.866 9.28625C16.1146 9.28895 16.3613 9.24195 16.5916 9.14803C16.8219 9.05411 17.0311 8.91515 17.2069 8.7393C17.3828 8.56345 17.5217 8.35425 17.6156 8.12399C17.7096 7.89372 17.7566 7.64701 17.7539 7.39834C17.7531 6.89786 17.554 6.41811 17.2001 6.06422C16.8462 5.71033 16.3664 5.51118 15.866 5.51042C15.5909 5.50604 15.3189 5.56749 15.0725 5.68963C14.9025 5.77617 14.7052 5.79167 14.5239 5.73272C14.3425 5.67378 14.192 5.5452 14.1055 5.37529C14.019 5.20538 14.0034 5.00805 14.0624 4.82671C14.1213 4.64537 14.2499 4.49488 14.4198 4.40834C14.8693 4.18208 15.3666 4.06705 15.8698 4.07292C16.7517 4.07292 17.5976 4.42327 18.2212 5.04691C18.8448 5.67055 19.1952 6.51638 19.1952 7.39834C19.1952 8.28029 18.8448 9.12612 18.2212 9.74976C17.5976 10.3734 16.7517 10.7238 15.8698 10.7238ZM18.8406 18.9271H18.189C17.9983 18.9271 17.8155 18.8514 17.6807 18.7166C17.5459 18.5818 17.4702 18.399 17.4702 18.2083C17.4702 18.0177 17.5459 17.8349 17.6807 17.7001C17.8155 17.5653 17.9983 17.4896 18.189 17.4896H18.8406C19.9379 17.4896 20.3644 17.0679 20.3644 15.985C20.3972 15.5811 20.342 15.1748 20.2025 14.7943C20.0631 14.4138 19.8427 14.0681 19.5566 13.7811C19.2704 13.494 18.9254 13.2725 18.5454 13.1319C18.1653 12.9912 17.7592 12.9347 17.3552 12.9663H15.9081C15.7175 12.9663 15.5347 12.8905 15.3999 12.7557C15.2651 12.6209 15.1894 12.4381 15.1894 12.2475C15.1894 12.0569 15.2651 11.8741 15.3999 11.7393C15.5347 11.6045 15.7175 11.5288 15.9081 11.5288H17.3552C17.9501 11.4897 18.5464 11.5782 19.1043 11.7885C19.6622 11.9988 20.1686 12.3259 20.5897 12.7479C21.0108 13.1699 21.3368 13.677 21.5459 14.2353C21.7549 14.7937 21.8422 15.3902 21.8019 15.985C21.8428 16.3831 21.7942 16.7854 21.6596 17.1623C21.525 17.5392 21.3078 17.8812 21.0239 18.1632C20.74 18.4453 20.3965 18.6603 20.0188 18.7925C19.641 18.9246 19.2385 18.9706 18.8406 18.9271Z" fill="#8C8FA8"/>
</g>
</svg>
