<svg width="19" height="19" viewBox="0 0 19 19" fill="none" xmlns="http://www.w3.org/2000/svg">
<mask id="mask0_476_12897" style="mask-type:luminance" maskUnits="userSpaceOnUse" x="0" y="0" width="19" height="19">
<path d="M0 0H19V19H0V0Z" fill="white"/>
</mask>
<g mask="url(#mask0_476_12897)">
<path d="M18.4434 5.02832H4.18987C3.41811 5.02832 2.79248 5.65395 2.79248 6.42571V8.10261C2.79248 8.87437 3.41811 9.5 4.18987 9.5H18.4434" stroke="#8C8FA8" stroke-width="1.2" stroke-miterlimit="10" stroke-linecap="round" stroke-linejoin="round"/>
<path d="M16.2075 9.5H1.95403C1.18227 9.5 0.556641 10.1256 0.556641 10.8974V12.5743C0.556641 13.3461 1.18227 13.9717 1.95403 13.9717H16.2075" stroke="#8C8FA8" stroke-width="1.2" stroke-miterlimit="10" stroke-linecap="round" stroke-linejoin="round"/>
<path d="M18.4434 13.9717H4.18987C3.41811 13.9717 2.79248 14.5973 2.79248 15.3691V17.046C2.79248 17.8177 3.41811 18.4434 4.18987 18.4434H18.4434" stroke="#8C8FA8" stroke-width="1.2" stroke-miterlimit="10" stroke-linecap="round" stroke-linejoin="round"/>
<path d="M16.2075 13.9717C16.2075 13.9717 16.2074 13.9716 16.2072 13.9713C15.6143 13.3784 15.2812 12.5743 15.2812 11.7358C15.2812 10.8974 15.6143 10.0932 16.2072 9.50033C16.2074 9.50011 16.2075 9.5 16.2075 9.5H1.95403C1.18227 9.5 0.556641 10.1256 0.556641 10.8974V12.5743C0.556641 13.3461 1.18227 13.9717 1.95403 13.9717H16.2075Z" stroke="#8C8FA8" stroke-width="1.2" stroke-miterlimit="10" stroke-linecap="round" stroke-linejoin="round"/>
<path d="M18.4434 9.5C18.4434 9.5 18.4432 9.49989 18.443 9.49967C17.8502 8.90677 17.517 8.10265 17.517 7.26416C17.517 6.42567 17.8502 5.62155 18.443 5.02865C18.4432 5.02843 18.4434 5.02832 18.4434 5.02832H4.18987C3.41811 5.02832 2.79248 5.65395 2.79248 6.42571V8.10261C2.79248 8.87437 3.41811 9.5 4.18987 9.5H18.4434Z" stroke="#8C8FA8" stroke-width="1.2" stroke-miterlimit="10" stroke-linecap="round" stroke-linejoin="round"/>
<path d="M18.4434 18.4434C18.4434 18.4434 18.4432 18.4432 18.443 18.443C17.8502 17.8501 17.517 17.046 17.517 16.2075C17.517 15.369 17.8502 14.5649 18.443 13.972C18.4432 13.9718 18.4434 13.9717 18.4434 13.9717H4.18987C3.41811 13.9717 2.79248 14.5973 2.79248 15.3691V17.046C2.79248 17.8177 3.41811 18.4434 4.18987 18.4434H18.4434Z" stroke="#8C8FA8" stroke-width="1.2" stroke-miterlimit="10" stroke-linecap="round" stroke-linejoin="round"/>
<path d="M8.38208 5.02815H6.14624V7.54346L7.26416 7.02177L8.38208 7.54346V5.02815Z" stroke="#8C8FA8" stroke-width="1.2" stroke-miterlimit="10" stroke-linecap="round" stroke-linejoin="round"/>
<path d="M12.8538 9.49983H10.6179V12.0151L11.7358 11.4935L12.8538 12.0151V9.49983Z" stroke="#8C8FA8" stroke-width="1.2" stroke-miterlimit="10" stroke-linecap="round" stroke-linejoin="round"/>
</g>
</svg>
