<svg width="25" height="25" viewBox="0 0 25 25" fill="none" xmlns="http://www.w3.org/2000/svg">
<path fill-rule="evenodd" clip-rule="evenodd" d="M12.6414 4.68829L12.5 4.6875C6.51016 4.6875 1.63907 9.5125 1.56329 15.4836L1.5625 15.625C1.5625 17.1156 1.86172 18.5367 2.40234 19.832C2.52344 20.1234 2.80781 20.3125 3.12344 20.3125L21.875 20.3164C22.1898 20.3164 22.4742 20.1273 22.5961 19.8367C23.1375 18.5398 23.4375 17.1172 23.4375 15.625C23.4375 9.63516 18.6125 4.76407 12.6414 4.68829ZM11.7188 6.28202C9.71797 6.44764 7.89532 7.24218 6.44766 8.46796L7.58359 9.60391C7.88828 9.90859 7.88828 10.4039 7.58359 10.7086C7.27891 11.0133 6.78359 11.0133 6.47891 10.7086L5.34297 9.57265C4.11719 11.0195 3.32266 12.843 3.15703 14.8438H4.6875C5.11875 14.8438 5.46875 15.1938 5.46875 15.625C5.46875 16.0562 5.11875 16.4062 4.6875 16.4062H3.15703C3.22422 17.2211 3.3961 18.007 3.65938 18.75C3.65938 18.75 21.3391 18.7539 21.3398 18.7539C21.6031 18.0102 21.7758 17.2227 21.843 16.4062H20.3125C19.8813 16.4062 19.5312 16.0562 19.5312 15.625C19.5312 15.1938 19.8813 14.8438 20.3125 14.8438H21.843C21.6774 12.843 20.8828 11.0203 19.657 9.57265L18.5211 10.7086C18.2164 11.0133 17.7211 11.0133 17.4164 10.7086C17.1117 10.4039 17.1117 9.90859 17.4164 9.60391L18.5524 8.46796C17.1055 7.24218 15.282 6.44764 13.2812 6.28202V7.8125C13.2812 8.24375 12.9312 8.59375 12.5 8.59375C12.0688 8.59375 11.7188 8.24375 11.7188 7.8125V6.28202ZM11.7188 13.4148C10.8086 13.7367 10.1562 14.6055 10.1562 15.625C10.1562 16.9187 11.2063 17.9688 12.5 17.9688C13.7937 17.9688 14.8438 16.9187 14.8438 15.625C14.8438 14.6055 14.1914 13.7367 13.2812 13.4148V10.9375C13.2812 10.5062 12.9312 10.1562 12.5 10.1562C12.0688 10.1562 11.7188 10.5062 11.7188 10.9375V13.4148ZM12.5 14.8438C12.9312 14.8438 13.2812 15.1938 13.2812 15.625C13.2812 16.0562 12.9312 16.4062 12.5 16.4062C12.0688 16.4062 11.7188 16.0562 11.7188 15.625C11.7188 15.1938 12.0688 14.8438 12.5 14.8438Z" fill="#8C8FA8"/>
</svg>
