<svg width="20" height="19" viewBox="0 0 20 19" fill="none" xmlns="http://www.w3.org/2000/svg">
<path fill-rule="evenodd" clip-rule="evenodd" d="M5.88235 0C6.20722 0 6.47059 0.257771 6.47059 0.575759H13.5294C13.5294 0.257771 13.7928 0 14.1176 0C14.4425 0 14.7059 0.257771 14.7059 0.575759C17.6298 0.575759 20 2.89574 20 5.75757V13.8182C20 16.68 17.6298 19 14.7059 19H5.29412C2.37026 19 0 16.68 0 13.8182V5.75757C0 2.89573 2.37026 0.575759 5.29412 0.575759C5.29412 0.257771 5.55748 0 5.88235 0ZM5.29412 1.72728C3.02 1.72728 1.17647 3.5317 1.17647 5.75757H18.8235C18.8235 3.5317 16.98 1.72728 14.7059 1.72728V2.87879C14.7059 3.19677 14.4425 3.45454 14.1176 3.45454C13.7928 3.45454 13.5294 3.19677 13.5294 2.87879V1.72728H6.47059V2.87879C6.47059 3.19677 6.20722 3.45454 5.88235 3.45454C5.55748 3.45454 5.29412 3.19677 5.29412 2.87879V1.72728ZM18.8235 6.90909H1.17647V13.8182C1.17647 16.0441 3.02 17.8485 5.29412 17.8485H14.7059C16.98 17.8485 18.8235 16.0441 18.8235 13.8182V6.90909Z" fill="#7A83A4"/>
</svg>
