<svg width="22" height="22" viewBox="0 0 22 22" fill="none" xmlns="http://www.w3.org/2000/svg">
<g id="edit(1) 1">
<g id="Group">
<path id="Vector" d="M5.07832 17.8934C4.51915 17.8934 3.99665 17.7008 3.62082 17.3433C3.14415 16.8942 2.91499 16.2158 2.99749 15.4825L3.33665 12.5125C3.40082 11.9533 3.73999 11.2108 4.13415 10.8075L11.66 2.84172C13.5392 0.85255 15.5008 0.79755 17.49 2.67672C19.4792 4.55588 19.5342 6.51755 17.655 8.50672L10.1292 16.4725C9.74416 16.885 9.02915 17.27 8.46999 17.3618L5.51832 17.8658C5.36249 17.875 5.22499 17.8934 5.07832 17.8934ZM14.6025 2.66755C13.8967 2.66755 13.2825 3.10755 12.6592 3.76755L5.13332 11.7426C4.94999 11.9351 4.73915 12.3934 4.70249 12.6593L4.36332 15.6292C4.32665 15.9317 4.39999 16.1792 4.56499 16.335C4.72999 16.4908 4.97749 16.5458 5.27999 16.5L8.23165 15.9959C8.49749 15.9501 8.93749 15.7117 9.12082 15.5192L16.6467 7.55338C17.7833 6.34338 18.1958 5.22505 16.5367 3.66672C15.8033 2.96088 15.1708 2.66755 14.6025 2.66755Z" fill="#2A3547"/>
<path id="Vector_2" d="M15.8956 10.0373C15.8772 10.0373 15.8497 10.0373 15.8314 10.0373C12.9714 9.75315 10.6706 7.5807 10.2306 4.73903C10.1756 4.3632 10.4322 4.01487 10.8081 3.9507C11.1839 3.8957 11.5322 4.15237 11.5964 4.5282C11.9447 6.74653 13.7414 8.45153 15.9781 8.67153C16.3539 8.7082 16.6289 9.04737 16.5922 9.42315C16.5464 9.77149 16.2439 10.0373 15.8956 10.0373Z" fill="#2A3547"/>
<path id="Vector_3" d="M19.25 20.8542H2.75C2.37417 20.8542 2.0625 20.5425 2.0625 20.1667C2.0625 19.7908 2.37417 19.4792 2.75 19.4792H19.25C19.6258 19.4792 19.9375 19.7908 19.9375 20.1667C19.9375 20.5425 19.6258 20.8542 19.25 20.8542Z" fill="#2A3547"/>
</g>
</g>
</svg>
