<svg width="15" height="16" viewBox="0 0 15 16" fill="none" xmlns="http://www.w3.org/2000/svg">
<g id="Group">
<path id="Vector" d="M3.13563 13.021C2.72351 13.021 2.33842 12.879 2.06143 12.6155C1.71012 12.2845 1.54122 11.7846 1.60203 11.2441L1.852 9.05516C1.89929 8.64304 2.14926 8.09581 2.43976 7.79855L7.9864 1.92767C9.37137 0.461631 10.8171 0.421096 12.2832 1.80606C13.7492 3.19103 13.7898 4.6368 12.4048 6.10284L6.85816 11.9737C6.57441 12.2777 6.04744 12.5615 5.63532 12.6291L3.45991 13.0006C3.34506 13.0074 3.24372 13.021 3.13563 13.021ZM10.1551 1.79931C9.63485 1.79931 9.1822 2.12359 8.7228 2.61002L3.17616 8.48773C3.04104 8.6296 2.88566 8.9674 2.85863 9.16332L2.60866 11.3522C2.58164 11.5751 2.63569 11.7575 2.75729 11.8724C2.8789 11.9872 3.06131 12.0278 3.28426 11.994L5.45967 11.6225C5.65559 11.5887 5.97988 11.413 6.115 11.2711L11.6616 5.40023C12.4994 4.50844 12.8034 3.68422 11.5806 2.53571C11.0401 2.0155 10.5739 1.79931 10.1551 1.79931Z" fill="#8C8FA8"/>
<path id="Vector_2" d="M11.1079 7.23097C11.0944 7.23097 11.0741 7.23097 11.0606 7.23097C8.95274 7.02154 7.257 5.42041 6.93271 3.32607C6.89218 3.04908 7.08134 2.79235 7.35834 2.74506C7.63533 2.70452 7.89206 2.89369 7.93935 3.17068C8.19607 4.80562 9.52024 6.06223 11.1687 6.22437C11.4457 6.25139 11.6484 6.50136 11.6213 6.77832C11.5876 7.03505 11.3646 7.23097 11.1079 7.23097Z" fill="#8C8FA8"/>
<path id="Vector_3" d="M13.5802 15.2031H1.41954C1.14254 15.2031 0.912842 14.9734 0.912842 14.6964C0.912842 14.4194 1.14254 14.1897 1.41954 14.1897H13.5802C13.8572 14.1897 14.0869 14.4194 14.0869 14.6964C14.0869 14.9734 13.8572 15.2031 13.5802 15.2031Z" fill="#8C8FA8"/>
</g>
</svg>
