<svg width="24" height="24" viewBox="0 0 24 24" fill="none" xmlns="http://www.w3.org/2000/svg">
<g id="book(3) 2">
<path id="Vector" d="M20.3145 4.57837C20.0964 4.36795 19.8383 4.20337 19.5555 4.09433C19.2727 3.98529 18.9709 3.934 18.6679 3.9435C16.0804 4.02937 13.9748 4.59187 12.4054 5.61637C12.2847 5.69511 12.1438 5.73704 11.9997 5.73704C11.8556 5.73704 11.7146 5.69511 11.5939 5.61637C10.0257 4.59225 7.91892 4.02975 5.33142 3.94387C5.02846 3.93383 4.72657 3.98486 4.44374 4.09394C4.16092 4.20301 3.90294 4.36788 3.68517 4.57875C3.46763 4.78776 3.29475 5.03872 3.17699 5.31646C3.05923 5.59421 2.99903 5.89295 3.00004 6.19462V15.9645C2.99645 16.5476 3.22098 17.109 3.62569 17.5287C4.03041 17.9485 4.58321 18.1934 5.16604 18.2111C7.45354 18.2861 9.35704 18.7924 10.8252 19.7197C11.1775 19.9403 11.5848 20.0572 12.0004 20.0572C12.4161 20.0572 12.8233 19.9403 13.1757 19.7197C14.643 18.7924 16.5469 18.285 18.834 18.2111C19.4169 18.1934 19.9697 17.9485 20.3744 17.5287C20.7791 17.109 21.0036 16.5476 21 15.9645V6.19462C21.0011 5.89286 20.9408 5.59403 20.823 5.31622C20.7052 5.03841 20.5322 4.78739 20.3145 4.57837ZM5.21442 16.7115C5.02226 16.7024 4.84096 16.6197 4.708 16.4807C4.57505 16.3417 4.50059 16.1569 4.50004 15.9645V6.19462C4.49982 6.09407 4.51998 5.99451 4.55929 5.90196C4.59861 5.8094 4.65627 5.72578 4.72879 5.65612C4.87008 5.51859 5.05962 5.44186 5.25679 5.44237H5.28229C7.59079 5.51737 9.43842 6 10.7738 6.8715C10.9228 6.96684 11.0827 7.04401 11.25 7.10137V18.2347C9.39193 17.2439 7.32021 16.721 5.21442 16.7115ZM19.5 15.9645C19.4995 16.1566 19.4253 16.3411 19.2928 16.4801C19.1602 16.6191 18.9794 16.7019 18.7875 16.7115C16.6811 16.7206 14.6086 17.2436 12.75 18.2351V7.10175C12.9173 7.04423 13.0772 6.96707 13.2263 6.87187C14.5617 6.00037 16.4093 5.51925 18.7174 5.44275C18.8195 5.43797 18.9214 5.45447 19.0168 5.4912C19.1121 5.52793 19.1988 5.5841 19.2713 5.65612C19.3438 5.72578 19.4015 5.8094 19.4408 5.90196C19.4801 5.99451 19.5003 6.09407 19.5 6.19462V15.9645Z" fill="black"/>
</g>
</svg>
