<svg width="31" height="43" viewBox="0 0 31 43" fill="none" xmlns="http://www.w3.org/2000/svg">
<g id="Group 205">
<path id="Vector" d="M31 11.7213V40.0402C31 41.5651 29.7684 42.7967 28.2435 42.7967H2.75648C1.23162 42.7967 0 41.5651 0 40.0402V2.75649C0 1.23162 1.23162 0 2.75648 0H19.2786L31 11.7213Z" fill="#23A566"/>
<path id="Vector_2" d="M22.2782 21.3064H8.72201C8.23607 21.3064 7.84229 21.7002 7.84229 22.1861V33.9913C7.84229 34.4772 8.23607 34.871 8.72201 34.871H22.2866C22.7725 34.871 23.1663 34.4772 23.1663 33.9913V22.1945C23.158 21.7086 22.7642 21.3064 22.2782 21.3064ZM9.60174 26.9702H14.6204V29.2072H9.60174V26.9702ZM16.3798 26.9702H21.3985V29.2072H16.3798V26.9702ZM21.3985 25.2107H16.3798V23.0742H21.3985V25.2107ZM14.6204 23.0742V25.2107H9.60174V23.0742H14.6204ZM9.60174 30.975H14.6204V33.1115H9.60174V30.975ZM16.3798 33.1115V30.975H21.3985V33.1115H16.3798Z" fill="white"/>
<path id="Vector_3" opacity="0.19" d="M20.8535 11.2941L30.9997 19.5133V11.7968L25.2438 8.45386L20.8535 11.2941Z" fill="black"/>
<path id="Vector_4" d="M31.0002 11.7213H22.0353C20.5104 11.7213 19.2788 10.4897 19.2788 8.96486V0L31.0002 11.7213Z" fill="#8ED1B1"/>
</g>
</svg>
