<svg width="20" height="23" viewBox="0 0 20 23" fill="none" xmlns="http://www.w3.org/2000/svg">
<g id="book(2) 1">
<g id="Group">
<g id="Group_2">
<path id="Vector" d="M16.4786 2.11646H5.40417C4.04292 2.11646 2.93542 3.34701 2.93542 4.85951V18.4211C2.93542 19.9336 4.04292 21.1641 5.40414 21.1641H16.4786C16.8022 21.1641 17.0645 20.8726 17.0645 20.513V16.3291V2.7675C17.0645 2.40795 16.8023 2.11646 16.4786 2.11646ZM4.10734 4.85951C4.10734 4.06498 4.68917 3.41854 5.40417 3.41854H15.8927V15.678H5.40417C4.92871 15.678 4.48453 15.8285 4.10734 16.0883V4.85951ZM5.40421 19.862C4.6891 19.862 4.10734 19.2156 4.10734 18.4211C4.10734 17.6265 4.6891 16.9801 5.40417 16.9801H15.8927V19.862H5.40421Z" fill="black"/>
</g>
</g>
<g id="Group_3">
<g id="Group_4">
<path id="Vector_2" d="M12.713 6.30042H7.28699C6.96343 6.30042 6.70105 6.59191 6.70105 6.95146C6.70105 7.31101 6.96343 7.6025 7.28699 7.6025H12.713C13.0366 7.6025 13.299 7.31101 13.299 6.95146C13.299 6.59191 13.0366 6.30042 12.713 6.30042Z" fill="black"/>
</g>
</g>
</g>
</svg>
