<svg width="19" height="13" viewBox="0 0 19 13" fill="none" xmlns="http://www.w3.org/2000/svg">
<path id="Vector" d="M1.02379 5.94029L6.56546 0.398622C6.71477 0.254414 6.91474 0.174618 7.12231 0.176422C7.32989 0.178225 7.52845 0.261484 7.67523 0.408266C7.82201 0.555047 7.90527 0.753607 7.90707 0.961179C7.90888 1.16875 7.82908 1.36873 7.68487 1.51804L3.49458 5.70833H17.4168C17.6268 5.70833 17.8282 5.79174 17.9766 5.9402C18.1251 6.08867 18.2085 6.29003 18.2085 6.5C18.2085 6.70996 18.1251 6.91132 17.9766 7.05979C17.8282 7.20826 17.6268 7.29166 17.4168 7.29166H3.49458L7.68487 11.482C7.76048 11.555 7.8208 11.6423 7.86229 11.7389C7.90378 11.8355 7.92562 11.9394 7.92653 12.0445C7.92744 12.1496 7.90741 12.2539 7.86761 12.3512C7.8278 12.4485 7.76902 12.5369 7.69468 12.6112C7.62035 12.6855 7.53196 12.7443 7.43467 12.7841C7.33738 12.8239 7.23313 12.8439 7.12801 12.843C7.0229 12.8421 6.91901 12.8203 6.82243 12.7788C6.72584 12.7373 6.63848 12.677 6.56546 12.6014L1.02379 7.05971C0.875374 6.91125 0.792 6.70992 0.792 6.5C0.792 6.29008 0.875374 6.08875 1.02379 5.94029Z" fill="#000B33"/>
</svg>
