<svg width="33" height="33" viewBox="0 0 33 33" fill="none" xmlns="http://www.w3.org/2000/svg">
<path fill-rule="evenodd" clip-rule="evenodd" d="M29.834 21.7711C29.834 24.5578 27.5671 26.821 24.784 26.821H8.21586C5.43271 26.821 3.16583 24.5577 3.16583 21.7711V11.229C3.16583 10.2989 3.42049 9.42539 3.86251 8.67567L11.9467 16.7599C13.1562 17.9729 14.7758 18.6413 16.5016 18.6413C18.2239 18.6413 19.8435 17.9729 21.053 16.7599L29.1372 8.67567C29.5793 9.42539 29.8339 10.2989 29.8339 11.229V21.7711H29.834ZM24.7839 6.17902H8.21586C7.06653 6.17902 6.00557 6.56799 5.15685 7.21516L13.3224 15.3843C14.1677 16.2259 15.2957 16.6927 16.5016 16.6927C17.704 16.6927 18.8321 16.2259 19.6773 15.3843L27.8429 7.21516C26.9942 6.56799 25.9333 6.17902 24.7839 6.17902ZM24.7839 4.23047H8.21586C4.35763 4.23047 1.21729 7.37082 1.21729 11.229V21.7711C1.21729 25.6329 4.35763 28.7697 8.21586 28.7697H24.7839C28.6422 28.7697 31.7825 25.6329 31.7825 21.7711V11.229C31.7825 7.37075 28.6422 4.23047 24.7839 4.23047Z" fill="#5D6185"/>
</svg>
