<svg width="24" height="24" viewBox="0 0 24 24" fill="none" xmlns="http://www.w3.org/2000/svg">
<path d="M12 0C9.62663 0 7.30655 0.703787 5.33316 2.02236C3.35977 3.34094 1.8217 5.21508 0.913451 7.4078C0.00519943 9.60051 -0.232441 12.0133 0.230582 14.3411C0.693604 16.6689 1.83649 18.807 3.51472 20.4853C5.19295 22.1635 7.33115 23.3064 9.65892 23.7694C11.9867 24.2324 14.3995 23.9948 16.5922 23.0865C18.7849 22.1783 20.6591 20.6402 21.9776 18.6668C23.2962 16.6935 24 14.3734 24 12C23.9962 8.81855 22.7308 5.76849 20.4811 3.51886C18.2315 1.26924 15.1814 0.00375324 12 0ZM17.4545 13.0909H13.0909V17.4545C13.0909 17.7439 12.976 18.0213 12.7714 18.2259C12.5668 18.4305 12.2893 18.5455 12 18.5455C11.7107 18.5455 11.4332 18.4305 11.2286 18.2259C11.024 18.0213 10.9091 17.7439 10.9091 17.4545V13.0909H6.54546C6.25613 13.0909 5.97865 12.976 5.77407 12.7714C5.56948 12.5668 5.45455 12.2893 5.45455 12C5.45455 11.7107 5.56948 11.4332 5.77407 11.2286C5.97865 11.024 6.25613 10.9091 6.54546 10.9091H10.9091V6.54545C10.9091 6.25613 11.024 5.97865 11.2286 5.77406C11.4332 5.56948 11.7107 5.45454 12 5.45454C12.2893 5.45454 12.5668 5.56948 12.7714 5.77406C12.976 5.97865 13.0909 6.25613 13.0909 6.54545V10.9091H17.4545C17.7439 10.9091 18.0214 11.024 18.2259 11.2286C18.4305 11.4332 18.5455 11.7107 18.5455 12C18.5455 12.2893 18.4305 12.5668 18.2259 12.7714C18.0214 12.976 17.7439 13.0909 17.4545 13.0909Z" fill="#2654A0"/>
</svg>
