<svg width="22" height="22" viewBox="0 0 22 22" fill="none" xmlns="http://www.w3.org/2000/svg">
<g id="delete(1) 1">
<g id="Layer_1">
<g id="Group">
<path id="Vector" d="M13.4062 16.3281C13.7859 16.3281 14.0938 16.0203 14.0938 15.6406V8.76562C14.0938 8.38599 13.7859 8.07812 13.4062 8.07812C13.0266 8.07812 12.7188 8.38599 12.7188 8.76562V15.6406C12.7188 16.0203 13.0266 16.3281 13.4062 16.3281Z" fill="#2A3547"/>
<path id="Vector_2" d="M8.59375 16.3281C8.97339 16.3281 9.28125 16.0203 9.28125 15.6406V8.76562C9.28125 8.38599 8.97339 8.07812 8.59375 8.07812C8.21411 8.07812 7.90625 8.38599 7.90625 8.76562V15.6406C7.90625 16.0203 8.21411 16.3281 8.59375 16.3281Z" fill="#2A3547"/>
<path id="Vector_3" d="M13.75 2.92188C14.1296 2.92188 14.4375 2.61401 14.4375 2.23438C14.4375 1.85474 14.1296 1.54688 13.75 1.54688H8.25C7.87036 1.54688 7.5625 1.85474 7.5625 2.23438C7.5625 2.61401 7.87036 2.92188 8.25 2.92188H13.75Z" fill="#2A3547"/>
<path id="Vector_4" d="M3.4375 3.60938C3.05786 3.60938 2.75 3.91724 2.75 4.29688C2.75 4.67651 3.05786 4.98438 3.4375 4.98438H4.125V17.6344C4.125 19.1881 5.39 20.4531 6.94375 20.4531H15.0562C16.6099 20.4531 17.875 19.1881 17.875 17.6344V4.98438H18.5625C18.9421 4.98438 19.25 4.67651 19.25 4.29688C19.25 3.91724 18.9421 3.60938 18.5625 3.60938H17.1875H4.8125H3.4375ZM16.5 4.98438V17.6344C16.5 18.4319 15.8537 19.0781 15.0562 19.0781H6.94375C6.14625 19.0781 5.5 18.4319 5.5 17.6344V4.98438H16.5Z" fill="#2A3547"/>
</g>
</g>
</g>
</svg>
