<svg width="49" height="49" viewBox="0 0 49 49" fill="none" xmlns="http://www.w3.org/2000/svg">
<g id="pdf(3) 2">
<path id="Vector" d="M12.25 0C10.5656 0 9.1875 1.37812 9.1875 3.0625V45.9375C9.1875 47.6219 10.5656 49 12.25 49H42.875C44.5594 49 45.9375 47.6219 45.9375 45.9375V12.25L33.6875 0H12.25Z" fill="#E2E5E7"/>
<path id="Vector_2" d="M36.75 12.25H45.9375L33.6875 0V9.1875C33.6875 10.8719 35.0656 12.25 36.75 12.25Z" fill="#B0B7BD"/>
<path id="Vector_3" d="M45.9375 21.4375L36.75 12.25H45.9375V21.4375Z" fill="#CAD1D8"/>
<path id="Vector_4" d="M39.8125 39.8125C39.8125 40.6547 39.1234 41.3438 38.2812 41.3438H4.59375C3.75156 41.3438 3.0625 40.6547 3.0625 39.8125V24.5C3.0625 23.6578 3.75156 22.9688 4.59375 22.9688H38.2812C39.1234 22.9688 39.8125 23.6578 39.8125 24.5V39.8125Z" fill="#F15642"/>
<g id="Group">
<path id="Vector_5" d="M9.7373 29.0126C9.7373 28.6083 10.0558 28.1673 10.5688 28.1673H13.397C14.9895 28.1673 16.4227 29.2331 16.4227 31.2758C16.4227 33.2113 14.9895 34.2893 13.397 34.2893H11.3528V35.9063C11.3528 36.4453 11.0098 36.75 10.5688 36.75C10.1645 36.75 9.7373 36.4453 9.7373 35.9063V29.0126ZM11.3528 29.7093V32.7596H13.397C14.2177 32.7596 14.867 32.0353 14.867 31.2758C14.867 30.4198 14.2177 29.7093 13.397 29.7093H11.3528Z" fill="white"/>
<path id="Vector_6" d="M18.8208 36.75C18.4166 36.75 17.9756 36.5295 17.9756 35.992V29.0371C17.9756 28.5976 18.4166 28.2776 18.8208 28.2776H21.6246C27.2197 28.2776 27.0972 36.75 21.7348 36.75H18.8208ZM19.5926 29.7721V35.257H21.6246C24.9305 35.257 25.0775 29.7721 21.6246 29.7721H19.5926Z" fill="white"/>
<path id="Vector_7" d="M29.0817 29.8701V31.8163H32.2039C32.6449 31.8163 33.0859 32.2573 33.0859 32.6845C33.0859 33.0888 32.6449 33.4195 32.2039 33.4195H29.0817V35.9905C29.0817 36.4193 28.777 36.7485 28.3482 36.7485C27.8092 36.7485 27.48 36.4193 27.48 35.9905V29.0356C27.48 28.5961 27.8107 28.2761 28.3482 28.2761H32.6464C33.1854 28.2761 33.5039 28.5961 33.5039 29.0356C33.5039 29.4276 33.1854 29.8686 32.6464 29.8686H29.0817V29.8701Z" fill="white"/>
</g>
<path id="Vector_8" d="M38.2812 41.3438H9.1875V42.875H38.2812C39.1234 42.875 39.8125 42.1859 39.8125 41.3438V39.8125C39.8125 40.6547 39.1234 41.3438 38.2812 41.3438Z" fill="#CAD1D8"/>
</g>
</svg>
