<svg width="51" height="51" viewBox="0 0 51 51" fill="none" xmlns="http://www.w3.org/2000/svg">
<g id="book(3) 1">
<path id="Vector" d="M43.1684 9.72904C42.7048 9.2819 42.1563 8.93216 41.5554 8.70044C40.9544 8.46873 40.3131 8.35975 39.6693 8.37993C34.1709 8.56242 29.6964 9.75773 26.3615 11.9348C26.1051 12.1021 25.8055 12.1912 25.4993 12.1912C25.1931 12.1912 24.8935 12.1021 24.6371 11.9348C21.3045 9.75853 16.8277 8.56321 11.3293 8.38073C10.6855 8.35939 10.044 8.46784 9.44296 8.69961C8.84195 8.93139 8.29374 9.28175 7.83098 9.72984C7.36871 10.174 7.00135 10.7073 6.75111 11.2975C6.50086 11.8877 6.37295 12.5225 6.37509 13.1636V33.9246C6.36745 35.1636 6.84459 36.3566 7.7046 37.2486C8.56461 38.1406 9.73933 38.661 10.9778 38.6986C15.8388 38.858 19.8837 39.9338 23.0035 41.9045C23.7522 42.3731 24.6176 42.6216 25.5009 42.6216C26.3842 42.6216 27.2496 42.3731 27.9983 41.9045C31.1165 39.9338 35.1622 38.8556 40.0223 38.6986C41.2609 38.661 42.4356 38.1406 43.2956 37.2486C44.1556 36.3566 44.6327 35.1636 44.6251 33.9246V13.1636C44.6272 12.5223 44.4992 11.8873 44.2489 11.297C43.9985 10.7066 43.6309 10.1732 43.1684 9.72904ZM11.0806 35.5119C10.6723 35.4925 10.287 35.3169 10.0045 35.0215C9.72197 34.7261 9.56376 34.3333 9.56259 33.9246V13.1636C9.56212 12.9499 9.60495 12.7383 9.6885 12.5417C9.77204 12.345 9.89457 12.1673 10.0487 12.0193C10.3489 11.727 10.7517 11.5639 11.1707 11.565H11.2249C16.1304 11.7244 20.0566 12.75 22.8943 14.6019C23.211 14.8045 23.5507 14.9685 23.9063 15.0904V38.7488C19.9578 36.6432 15.5555 35.5321 11.0806 35.5119ZM41.4376 33.9246C41.4365 34.3327 41.2788 34.7248 40.9971 35.0202C40.7154 35.3155 40.3312 35.4915 39.9235 35.5119C35.4472 35.5313 31.0433 36.6426 27.0938 38.7496V15.0912C27.4493 14.969 27.789 14.805 28.1059 14.6027C30.9435 12.7508 34.8697 11.7284 39.7745 11.5658C39.9914 11.5557 40.2081 11.5907 40.4107 11.6688C40.6133 11.7469 40.7975 11.8662 40.9515 12.0193C41.1056 12.1673 41.2281 12.345 41.3117 12.5417C41.3952 12.7383 41.4381 12.9499 41.4376 13.1636V33.9246Z" fill="black"/>
</g>
</svg>
