<svg width="43" height="43" viewBox="0 0 43 43" fill="none" xmlns="http://www.w3.org/2000/svg">
<circle cx="21.5" cy="21.5" r="20.75" fill="white" stroke="black" stroke-width="1.5"/>
<path d="M30.6567 15.4319L25.7678 10.9319C25.6762 10.8475 25.552 10.8 25.4221 10.8H15.1555C14.077 10.8 13.2 11.6073 13.2 12.6001V30.6001C13.2 31.5928 14.077 32.4 15.1555 32.4H28.8444C29.9229 32.4 30.8 31.5928 30.8 30.6V15.75C30.8 15.6305 30.7484 15.5163 30.6567 15.4319ZM25.911 12.3364L29.1308 15.3001H26.8888C26.3498 15.3001 25.911 14.8962 25.911 14.4001V12.3364ZM29.8222 30.6C29.8222 31.0962 29.3834 31.5 28.8444 31.5H15.1555C14.6165 31.5 14.1778 31.0962 14.1778 30.6V12.6001C14.1778 12.1039 14.6165 11.7001 15.1555 11.7001H24.9333V14.4001C24.9333 15.3928 25.8103 16.2 26.8889 16.2H29.8222V30.6Z" fill="black"/>
<path d="M24.5493 23.0781C24.0864 22.7139 23.6465 22.3394 23.3535 22.0464C22.9727 21.6656 22.6333 21.2964 22.3384 20.9449C22.7984 19.5235 23 18.7906 23 18.3999C23 16.7403 22.4004 16.3999 21.5 16.3999C20.8159 16.3999 20 16.7554 20 18.4478C20 19.1939 20.4087 20.0997 21.2188 21.1524C21.0205 21.7573 20.7876 22.4551 20.5259 23.2417C20.3999 23.6192 20.2632 23.9688 20.1187 24.292C20.001 24.3443 19.8867 24.3975 19.7764 24.4527C19.3789 24.6514 19.0015 24.8301 18.6514 24.9961C17.0547 25.752 16 26.252 16 27.2393C16 27.9561 16.7788 28.3999 17.5 28.3999C18.4297 28.3999 19.8335 27.1582 20.8589 25.0664C21.9233 24.6465 23.2466 24.3354 24.291 24.1406C25.1279 24.7842 26.0522 25.3999 26.5 25.3999C27.7397 25.3999 28 24.6831 28 24.082C28 22.8999 26.6494 22.8999 26 22.8999C25.7983 22.8999 25.2573 22.9595 24.5493 23.0781ZM17.5 27.3999C17.2143 27.3999 17.021 27.2652 17 27.2393C17 26.8848 18.0571 26.3838 19.0796 25.8994C19.1445 25.8687 19.2105 25.8379 19.2774 25.8062C18.5264 26.8951 17.7837 27.3999 17.5 27.3999ZM21 18.4478C21 17.3999 21.3252 17.3999 21.5 17.3999C21.8536 17.3999 22 17.3999 22 18.3999C22 18.6109 21.8594 19.1382 21.6021 19.9615C21.2095 19.357 21 18.8389 21 18.4478ZM21.3833 23.8218C21.4146 23.7349 21.4449 23.647 21.4742 23.5581C21.6597 23.0015 21.8267 22.5015 21.9756 22.0513C22.1831 22.2798 22.4068 22.5137 22.6465 22.7534C22.7403 22.8472 22.9727 23.0581 23.2823 23.3223C22.666 23.4566 22.0103 23.6231 21.3833 23.8218ZM27 24.0821C27 24.3067 27 24.3999 26.5361 24.4029C26.3999 24.3736 26.085 24.188 25.6963 23.9234C25.8374 23.9078 25.9414 23.8999 26 23.8999C26.7388 23.8999 26.9483 23.9722 27 24.0821Z" fill="black"/>
</svg>
