<svg width="19" height="13" viewBox="0 0 19 13" fill="none" xmlns="http://www.w3.org/2000/svg">
<path d="M1.02354 5.94041L6.56521 0.398744C6.71452 0.254536 6.9145 0.17474 7.12207 0.176544C7.32964 0.178347 7.5282 0.261606 7.67498 0.408388C7.82176 0.555169 7.90502 0.753729 7.90683 0.961301C7.90863 1.16887 7.82884 1.36885 7.68463 1.51816L3.49434 5.70845H17.4166C17.6265 5.70845 17.8279 5.79186 17.9764 5.94033C18.1248 6.08879 18.2083 6.29016 18.2083 6.50012C18.2083 6.71008 18.1248 6.91145 17.9764 7.05991C17.8279 7.20838 17.6265 7.29179 17.4166 7.29179H3.49434L7.68463 11.4821C7.76024 11.5551 7.82055 11.6425 7.86204 11.739C7.90353 11.8356 7.92537 11.9395 7.92628 12.0446C7.9272 12.1498 7.90717 12.254 7.86736 12.3513C7.82756 12.4486 7.76877 12.537 7.69444 12.6113C7.62011 12.6856 7.53172 12.7444 7.43442 12.7842C7.33713 12.824 7.23289 12.8441 7.12777 12.8432C7.02265 12.8422 6.91877 12.8204 6.82218 12.7789C6.7256 12.7374 6.63824 12.6771 6.56521 12.6015L1.02354 7.05983C0.87513 6.91137 0.791756 6.71004 0.791756 6.50012C0.791756 6.2902 0.87513 6.08887 1.02354 5.94041Z" fill="#000B33"/>
</svg>
