<svg width="29" height="29" viewBox="0 0 29 29" fill="none" xmlns="http://www.w3.org/2000/svg">
<g clip-path="url(#clip0_424_2552)">
<path d="M14.5 29C6.50484 29 0 22.4952 0 14.5C0 6.50484 6.50484 0 14.5 0C22.4952 0 29 6.50484 29 14.5C29 22.4952 22.4952 29 14.5 29ZM14.5 1.8125C7.50398 1.8125 1.8125 7.50398 1.8125 14.5C1.8125 21.496 7.50398 27.1875 14.5 27.1875C21.496 27.1875 27.1875 21.496 27.1875 14.5C27.1875 7.50398 21.496 1.8125 14.5 1.8125ZM12.422 19.672L21.4845 10.6095C21.8386 10.2554 21.8386 9.68192 21.4845 9.32803C21.1304 8.97414 20.5569 8.97391 20.203 9.32803L11.7812 17.7498L8.79697 14.7655C8.44285 14.4114 7.86942 14.4114 7.51553 14.7655C7.16164 15.1196 7.16141 15.6931 7.51553 16.047L11.1405 19.672C11.3175 19.8489 11.5495 19.9375 11.7812 19.9375C12.013 19.9375 12.245 19.8489 12.422 19.672Z" fill="#58B473"/>
</g>
<defs>
<clipPath id="clip0_424_2552">
<rect width="29" height="29" fill="white"/>
</clipPath>
</defs>
</svg>
