<svg width="32" height="32" viewBox="0 0 32 32" fill="none" xmlns="http://www.w3.org/2000/svg">
<path d="M25.3729 12.1944C25.3061 7.31556 21.3165 3.36694 16.4221 3.36694C14.2449 3.36694 12.1474 4.15894 10.516 5.59706C9.05998 6.8805 8.06398 8.59562 7.66955 10.4787C7.64074 10.4784 7.61217 10.4781 7.58367 10.4781C3.40212 10.4781 0 13.8802 0 18.0618C0 22.2434 3.40212 25.6455 7.58374 25.6455H12.8802C13.257 25.6455 13.5626 25.34 13.5626 24.963C13.5626 24.5861 13.257 24.2806 12.8802 24.2806H7.58374C4.15462 24.2806 1.36487 21.4908 1.36487 18.0618C1.36487 14.6327 4.15462 11.843 7.58374 11.843C7.76642 11.843 7.95955 11.8528 8.17423 11.873C8.53811 11.9071 8.8648 11.6482 8.91436 11.2857C9.16011 9.48449 10.0494 7.82781 11.4185 6.62087C12.8005 5.40263 14.5774 4.73175 16.422 4.73175C20.6055 4.73175 24.0088 8.13518 24.0088 12.3186C24.0088 12.4692 23.9976 12.6244 23.9858 12.7888L23.9808 12.8587C23.9666 13.0594 24.0417 13.2562 24.1862 13.3964C24.3305 13.5366 24.5292 13.6059 24.7298 13.5858C24.9113 13.5675 25.0944 13.5583 25.274 13.5583C28.2301 13.5583 30.6351 15.9633 30.6351 18.9194C30.6351 21.8755 28.2301 24.2805 25.274 24.2805H19.7046C19.3278 24.2805 19.0222 24.586 19.0222 24.9629C19.0222 25.3398 19.3278 25.6453 19.7046 25.6453H25.274C28.9827 25.6453 32 22.6282 32 18.9194C31.9999 15.244 29.0362 12.2474 25.3729 12.1944Z" fill="#D37F16"/>
<path d="M16.4221 6.57446C13.5685 6.57446 11.1257 8.70702 10.74 11.5349C10.689 11.9083 10.9505 12.2524 11.3239 12.3033C11.3552 12.3076 11.3863 12.3097 11.417 12.3097C11.7529 12.3097 12.0457 12.0616 12.0922 11.7195C12.3862 9.56446 14.2476 7.93934 16.422 7.93934C16.799 7.93934 17.1045 7.63384 17.1045 7.2569C17.1045 6.88002 16.799 6.57446 16.4221 6.57446Z" fill="#D37F16"/>
<path d="M19.5255 20.0031L17.0432 17.7856C16.6152 17.4031 15.9696 17.4032 15.5415 17.7856L13.0591 20.0032C12.778 20.2543 12.7537 20.6857 13.0048 20.9668C13.2559 21.2478 13.6872 21.2723 13.9684 21.0211L15.6099 19.5548V27.9504C15.6099 28.3274 15.9154 28.6329 16.2924 28.6329C16.6692 28.6329 16.9748 28.3274 16.9748 27.9504V19.5546L18.6164 21.0211C18.7465 21.1374 18.9089 21.1946 19.0707 21.1946C19.2583 21.1946 19.4451 21.1178 19.58 20.9668C19.8309 20.6856 19.8066 20.2543 19.5255 20.0031Z" fill="#D37F16"/>
</svg>
