<svg width="47" height="47" viewBox="0 0 47 47" fill="none" xmlns="http://www.w3.org/2000/svg">
<circle cx="23.5" cy="23.5" r="23.5" fill="#26529C"/>
<path d="M32.2037 26.9297C32.2037 29.358 30.2541 31.3251 27.8258 31.3338H19.1917C16.7721 31.3338 14.7963 29.3754 14.7963 26.9471V26.9384C14.7963 26.9384 14.8015 23.0861 14.8085 21.1487C14.8094 20.7849 15.2272 20.5812 15.5118 20.8075C17.5798 22.4482 21.278 25.4396 21.3241 25.4788C21.9421 25.974 22.7254 26.2534 23.5261 26.2534C24.3269 26.2534 25.1102 25.974 25.7282 25.4692C25.7743 25.4387 29.3898 22.5369 31.4892 20.8693C31.7746 20.6421 32.1942 20.8458 32.195 21.2087C32.2037 23.1314 32.2037 26.9297 32.2037 26.9297Z" fill="white"/>
<path d="M31.7476 17.994C30.9938 16.5736 29.5107 15.6667 27.8779 15.6667H19.1916C17.5588 15.6667 16.0757 16.5736 15.3219 17.994C15.1531 18.3117 15.2332 18.7077 15.5143 18.9323L21.9768 24.1014C22.4294 24.467 22.9777 24.6489 23.5261 24.6489H23.5435C24.0918 24.6489 24.6401 24.467 25.0927 24.1014L31.5552 18.9323C31.8364 18.7077 31.9164 18.3117 31.7476 17.994Z" fill="white"/>
</svg>
