<svg width="19" height="13" viewBox="0 0 19 13" fill="none" xmlns="http://www.w3.org/2000/svg">
<path d="M17.9765 5.94041L12.4348 0.398744C12.2855 0.254536 12.0855 0.17474 11.8779 0.176544C11.6704 0.178347 11.4718 0.261606 11.325 0.408388C11.1782 0.555169 11.095 0.753729 11.0932 0.961301C11.0914 1.16887 11.1712 1.36885 11.3154 1.51816L15.5057 5.70845H1.58341C1.37345 5.70845 1.17209 5.79186 1.02362 5.94033C0.875156 6.08879 0.791748 6.29016 0.791748 6.50012C0.791748 6.71008 0.875156 6.91145 1.02362 7.05991C1.17209 7.20838 1.37345 7.29179 1.58341 7.29179H15.5057L11.3154 11.4821C11.2398 11.5551 11.1794 11.6425 11.138 11.739C11.0965 11.8356 11.0746 11.9395 11.0737 12.0446C11.0728 12.1498 11.0928 12.254 11.1326 12.3513C11.1724 12.4486 11.2312 12.537 11.3056 12.6113C11.3799 12.6856 11.4683 12.7444 11.5656 12.7842C11.6629 12.824 11.7671 12.8441 11.8722 12.8432C11.9773 12.8422 12.0812 12.8204 12.1778 12.7789C12.2744 12.7374 12.3618 12.6771 12.4348 12.6015L17.9765 7.05983C18.1249 6.91137 18.2082 6.71004 18.2082 6.50012C18.2082 6.2902 18.1249 6.08887 17.9765 5.94041Z" fill="#2654A0"/>
</svg>
