<svg width="47" height="47" viewBox="0 0 47 47" fill="none" xmlns="http://www.w3.org/2000/svg">
<circle cx="23.5" cy="23.5" r="23.5" fill="#26529C"/>
<g clip-path="url(#clip0_272_5697)">
<path d="M23.5 13.9259C18.221 13.9259 13.9259 18.2211 13.9259 23.5C13.9259 28.7789 18.221 33.0741 23.5 33.0741C28.7789 33.0741 33.0741 28.7789 33.0741 23.5C33.0741 18.2211 28.7789 13.9259 23.5 13.9259ZM28.8509 20.9805L22.7321 27.0513C22.3722 27.4112 21.7963 27.4352 21.4124 27.0753L18.173 24.1239C17.7891 23.7639 17.7651 23.1641 18.1011 22.7801C18.461 22.3962 19.0609 22.3722 19.4448 22.7322L22.0123 25.0837L27.4832 19.6128C27.8671 19.2289 28.467 19.2289 28.8509 19.6128C29.2348 19.9967 29.2348 20.5966 28.8509 20.9805Z" fill="white"/>
</g>
<defs>
<clipPath id="clip0_272_5697">
<rect width="19.1481" height="19.1481" fill="white" transform="translate(13.9259 13.9259)"/>
</clipPath>
</defs>
</svg>
