<svg width="12" height="12" viewBox="0 0 12 12" fill="none" xmlns="http://www.w3.org/2000/svg">
<g id="upload 1">
<path id="Vector" d="M10.5882 9.13252C10.5882 9.54674 10.2524 9.88252 9.83821 9.88252H2.16174C1.74753 9.88252 1.41174 9.54674 1.41174 9.13252C1.41174 8.71831 1.74753 8.38252 2.16174 8.38252H9.83821C10.2524 8.38252 10.5882 8.71829 10.5882 9.13252ZM3.34271 4.15747C3.53463 4.15747 3.72659 4.08425 3.87303 3.93779L5.24998 2.56083V6.93218C5.24998 7.34639 5.58577 7.68218 5.99998 7.68218C6.41419 7.68218 6.74998 7.34639 6.74998 6.93218V2.56083L8.12693 3.93779C8.41983 4.23069 8.8947 4.23069 9.1876 3.93779C9.48049 3.64489 9.48049 3.17002 9.1876 2.87712L6.5303 0.21985C6.2374 -0.0730479 5.76253 -0.0730479 5.46964 0.21985L2.81236 2.87712C2.51946 3.17002 2.51946 3.64489 2.81236 3.93779C2.95882 4.08425 3.15075 4.15747 3.34271 4.15747Z" fill="white"/>
</g>
</svg>
