<svg width="47" height="47" viewBox="0 0 47 47" fill="none" xmlns="http://www.w3.org/2000/svg">
<circle cx="23.5" cy="23.5" r="23.5" fill="#26529C"/>
<path d="M27.539 22.6024H19.4609C19.343 22.6025 19.2263 22.5793 19.1174 22.5342C19.0085 22.4891 18.9095 22.423 18.8262 22.3396C18.7428 22.2563 18.6767 22.1573 18.6316 22.0484C18.5865 21.9395 18.5633 21.8227 18.5634 21.7049V18.5634C18.5634 17.2541 19.0835 15.9984 20.0093 15.0726C20.9351 14.1468 22.1907 13.6267 23.5 13.6267C24.8093 13.6267 26.0649 14.1468 26.9907 15.0726C27.9165 15.9984 28.4366 17.2541 28.4366 18.5634V21.7049C28.4366 21.8227 28.4135 21.9395 28.3684 22.0484C28.3233 22.1573 28.2571 22.2563 28.1738 22.3396C28.0904 22.423 27.9915 22.4891 27.8826 22.5342C27.7737 22.5793 27.6569 22.6025 27.539 22.6024ZM20.3585 20.8073H26.6415V18.5634C26.6415 17.7302 26.3105 16.9311 25.7214 16.342C25.1322 15.7529 24.3332 15.4219 23.5 15.4219C22.6668 15.4219 21.8678 15.7529 21.2786 16.342C20.6895 16.9311 20.3585 17.7302 20.3585 18.5634V20.8073Z" fill="white"/>
<path d="M27.9878 20.8073H19.0122C18.0603 20.8083 17.1477 21.1869 16.4746 21.86C15.8015 22.5331 15.4229 23.4457 15.4219 24.3976V29.783C15.4229 30.7349 15.8015 31.6475 16.4746 32.3206C17.1477 32.9937 18.0603 33.3723 19.0122 33.3733H27.9878C28.9397 33.3723 29.8523 32.9937 30.5254 32.3206C31.1985 31.6475 31.5771 30.7349 31.5781 29.783V24.3976C31.5771 23.4457 31.1985 22.5331 30.5254 21.86C29.8523 21.1869 28.9397 20.8083 27.9878 20.8073ZM23.5 27.9879C23.145 27.9879 22.7979 27.8826 22.5027 27.6853C22.2075 27.4881 21.9774 27.2077 21.8415 26.8797C21.7056 26.5517 21.6701 26.1907 21.7394 25.8425C21.8086 25.4943 21.9796 25.1744 22.2306 24.9234C22.4817 24.6723 22.8016 24.5013 23.1498 24.4321C23.498 24.3628 23.859 24.3984 24.187 24.5342C24.515 24.6701 24.7954 24.9002 24.9926 25.1954C25.1899 25.4906 25.2951 25.8377 25.2951 26.1927C25.2951 26.6688 25.106 27.1254 24.7693 27.4621C24.4327 27.7987 23.9761 27.9878 23.5 27.9879Z" fill="white"/>
</svg>
