<svg width="27" height="27" viewBox="0 0 27 27" fill="none" xmlns="http://www.w3.org/2000/svg">
<g clip-path="url(#clip0_210_274)">
<path d="M6.81665 12.539C7.28264 12.539 7.6604 12.1612 7.6604 11.6952C7.6604 11.2292 7.28264 10.8515 6.81665 10.8515C6.35066 10.8515 5.9729 11.2292 5.9729 11.6952C5.9729 12.1612 6.35066 12.539 6.81665 12.539Z" fill="#2A3547"/>
<path d="M1.6875 10.2988C1.22175 10.2988 0.84375 9.92081 0.84375 9.45506V5.90625C0.84375 3.11006 3.11091 0.84375 5.90625 0.84375H9.23147C9.69722 0.84375 10.0752 1.22175 10.0752 1.6875C10.0752 2.15325 9.69722 2.53125 9.23147 2.53125H5.90625C4.04241 2.53125 2.53125 4.04241 2.53125 5.90625V9.45506C2.53125 9.92081 2.15325 10.2988 1.6875 10.2988Z" fill="#2A3547"/>
<path d="M9.23232 26.1563H5.9071C3.11092 26.1563 0.844604 23.8899 0.844604 21.0938V17.55C0.844604 17.0843 1.2226 16.7063 1.68835 16.7063C2.1541 16.7063 2.5321 17.0843 2.5321 17.55V21.0938C2.5321 22.9576 4.04326 24.4688 5.9071 24.4688H9.23232C9.69807 24.4688 10.0761 24.8468 10.0761 25.3125C10.0761 25.7783 9.69807 26.1563 9.23232 26.1563Z" fill="#2A3547"/>
<path d="M21.0938 26.1563H17.7744C17.3087 26.1563 16.9307 25.7783 16.9307 25.3125C16.9307 24.8468 17.3087 24.4688 17.7744 24.4688H21.0938C22.9576 24.4688 24.4688 22.9576 24.4688 21.0938V17.7609C24.4688 17.2952 24.8468 16.9172 25.3125 16.9172C25.7783 16.9172 26.1563 17.2952 26.1563 17.7609V21.0938C26.1563 23.8899 23.8899 26.1563 21.0938 26.1563Z" fill="#2A3547"/>
<path d="M25.3125 10.0617C24.8468 10.0617 24.4688 9.68372 24.4688 9.21797V5.90625C24.4688 4.04241 22.9576 2.53125 21.0938 2.53125H17.8015C17.3357 2.53125 16.9577 2.15325 16.9577 1.6875C16.9577 1.22175 17.3357 0.84375 17.8015 0.84375H21.0938C23.89 0.84375 26.1563 3.11006 26.1563 5.90625V9.21797C26.1563 9.68372 25.7783 10.0617 25.3125 10.0617Z" fill="#2A3547"/>
<path d="M20.25 20.6862C19.7842 20.6862 19.4062 20.3082 19.4062 19.8425V16.4396C19.4062 15.9739 19.0283 15.5959 18.5625 15.5959H16.875C16.4093 15.5959 16.0312 15.9739 16.0312 16.4396V19.8425C16.0312 20.3082 15.6532 20.6862 15.1875 20.6862C14.7218 20.6862 14.3438 20.3082 14.3438 19.8425V16.4396C14.3438 15.0415 15.4769 13.9084 16.875 13.9084H18.5625C19.9606 13.9084 21.0938 15.0415 21.0938 16.4396V19.8425C21.0938 20.3082 20.7158 20.6862 20.25 20.6862Z" fill="#2A3547"/>
<path d="M6.72552 5.96194H10.1284C11.5265 5.96194 12.6596 7.0951 12.6596 8.49319V11.9315C12.6596 12.3972 12.2816 12.7752 11.8159 12.7752C11.3501 12.7752 10.9721 12.3972 10.9721 11.9315V8.49319C10.9721 8.02744 10.5941 7.64944 10.1284 7.64944H6.72552C6.25977 7.64944 5.88177 7.27144 5.88177 6.80569C5.88177 6.33994 6.25977 5.96194 6.72552 5.96194Z" fill="#2A3547"/>
<path d="M10.1275 21.0938H8.44003C7.04447 21.0938 5.90878 19.9581 5.90878 18.5625V16.875C5.90878 15.4794 7.04447 14.3438 8.44003 14.3438H10.1275C11.5231 14.3438 12.6588 15.4794 12.6588 16.875V18.5625C12.6588 19.9581 11.5231 21.0938 10.1275 21.0938ZM8.44003 16.0312C7.97428 16.0312 7.59628 16.4093 7.59628 16.875V18.5625C7.59628 19.0283 7.97428 19.4062 8.44003 19.4062H10.1275C10.5933 19.4062 10.9713 19.0283 10.9713 18.5625V16.875C10.9713 16.4093 10.5933 16.0312 10.1275 16.0312H8.44003Z" fill="#2A3547"/>
<path d="M17.7196 12.7119C15.8583 12.7119 14.3446 11.1983 14.3446 9.33694C14.3446 7.47563 15.8583 5.96194 17.7196 5.96194C19.5809 5.96194 21.0946 7.47563 21.0946 9.33694C21.0946 11.1983 19.5809 12.7119 17.7196 12.7119ZM17.7196 7.64944C16.7889 7.64944 16.0321 8.40629 16.0321 9.33694C16.0321 10.2676 16.7889 11.0244 17.7196 11.0244C18.6503 11.0244 19.4071 10.2676 19.4071 9.33694C19.4071 8.40629 18.6503 7.64944 17.7196 7.64944Z" fill="#2A3547"/>
</g>
<defs>
<clipPath id="clip0_210_274">
<rect width="27" height="27" fill="white"/>
</clipPath>
</defs>
</svg>
