<svg width="42" height="42" viewBox="0 0 42 42" fill="none" xmlns="http://www.w3.org/2000/svg">
<path d="M33.3019 16.0052C33.2142 9.60182 27.9779 4.41926 21.554 4.41926C18.6964 4.41926 15.9434 5.45876 13.8022 7.34629C11.8912 9.0308 10.584 11.2819 10.0663 13.7534C10.0285 13.753 9.99098 13.7527 9.95357 13.7527C4.46528 13.7527 0 18.2179 0 23.7062C0 29.1946 4.46528 33.6598 9.95365 33.6598H16.9052C17.3998 33.6598 17.8009 33.2589 17.8009 32.7641C17.8009 32.2694 17.3998 31.8684 16.9052 31.8684H9.95365C5.45293 31.8684 1.79139 28.2069 1.79139 23.7062C1.79139 19.2056 5.45293 15.5441 9.95365 15.5441C10.1934 15.5441 10.4469 15.5569 10.7287 15.5834C11.2063 15.6282 11.635 15.2885 11.7001 14.8127C12.0226 12.4485 13.1899 10.2741 14.9868 8.69004C16.8006 7.09109 19.1328 6.21057 21.5539 6.21057C27.0447 6.21057 31.5116 10.6776 31.5116 16.1682C31.5116 16.3659 31.4969 16.5697 31.4814 16.7854L31.4748 16.8772C31.4561 17.1406 31.5547 17.399 31.7444 17.583C31.9338 17.7669 32.1946 17.8578 32.4578 17.8315C32.696 17.8075 32.9364 17.7954 33.1721 17.7954C37.052 17.7954 40.2086 20.952 40.2086 24.8319C40.2086 28.7117 37.0521 31.8683 33.1721 31.8683H25.8623C25.3677 31.8683 24.9666 32.2692 24.9666 32.764C24.9666 33.2587 25.3677 33.6597 25.8623 33.6597H33.1721C38.0398 33.6597 42 29.6996 42 24.8319C41.9999 20.0079 38.11 16.0749 33.3019 16.0052Z" fill="#2654A0"/>
<path d="M21.554 8.62901C17.8086 8.62901 14.6025 11.428 14.0962 15.1396C14.0294 15.6297 14.3726 16.0813 14.8626 16.1481C14.9037 16.1537 14.9445 16.1565 14.9848 16.1565C15.4257 16.1565 15.8099 15.8309 15.871 15.3818C16.2568 12.5534 18.7 10.4204 21.5539 10.4204C22.0486 10.4204 22.4496 10.0194 22.4496 9.52471C22.4497 9.03006 22.0486 8.62901 21.554 8.62901Z" fill="#2654A0"/>
<path d="M25.6275 26.2542L22.3694 23.3437C21.8077 22.8417 20.9603 22.8418 20.3984 23.3437L17.1403 26.2543C16.7713 26.5838 16.7395 27.1501 17.069 27.5191C17.3985 27.8879 17.9647 27.9199 18.3338 27.5903L20.4882 25.6657V36.685C20.4882 37.1798 20.8892 37.5807 21.3839 37.5807C21.8786 37.5807 22.2796 37.1798 22.2796 36.685V25.6656L24.4342 27.5903C24.605 27.7429 24.8182 27.818 25.0306 27.818C25.2768 27.818 25.5219 27.7172 25.6989 27.519C26.0283 27.15 25.9964 26.5838 25.6275 26.2542Z" fill="#2654A0"/>
</svg>
