<svg width="84" height="84" viewBox="0 0 84 84" fill="none" xmlns="http://www.w3.org/2000/svg">
<circle cx="42" cy="42" r="42" fill="#DDE3EA"/>
<path d="M42 37.75C47.3848 37.75 51.75 33.3848 51.75 28C51.75 22.6152 47.3848 18.25 42 18.25C36.6152 18.25 32.25 22.6152 32.25 28C32.25 33.3848 36.6152 37.75 42 37.75Z" fill="#4E5779" fill-opacity="0.5"/>
<path d="M42 39.375C37.261 39.3806 32.7176 41.2656 29.3666 44.6166C26.0156 47.9676 24.1306 52.511 24.125 57.25V58.875C24.125 60.1679 24.6386 61.4079 25.5529 62.3221C26.4671 63.2364 27.7071 63.75 29 63.75H55C56.2929 63.75 57.5329 63.2364 58.4471 62.3221C59.3614 61.4079 59.875 60.1679 59.875 58.875V57.25C59.8694 52.511 57.9844 47.9676 54.6334 44.6166C51.2824 41.2656 46.739 39.3806 42 39.375Z" fill="#4E5779" fill-opacity="0.5"/>
</svg>
