<svg width="16" height="16" viewBox="0 0 16 16" fill="none" xmlns="http://www.w3.org/2000/svg">
<g id="mail(1) 1">
<path id="Vector" fill-rule="evenodd" clip-rule="evenodd" d="M14.4651 10.5556C14.4651 11.9068 13.366 13.0041 12.0166 13.0041H3.98358C2.63418 13.0041 1.53508 11.9067 1.53508 10.5556V5.44434C1.53508 4.9934 1.65855 4.56987 1.87286 4.20637L5.79249 8.12599C6.37889 8.71412 7.16418 9.03818 8.00093 9.03818C8.83596 9.03818 9.62124 8.71412 10.2076 8.12599L14.1273 4.20637C14.3416 4.56987 14.4651 4.99337 14.4651 5.44434V10.5556H14.4651ZM12.0166 2.99587H3.98358C3.42633 2.99587 2.91193 3.18446 2.50043 3.49824L6.45949 7.45902C6.8693 7.86709 7.41624 8.09343 8.00093 8.09343C8.58389 8.09343 9.13086 7.86709 9.54064 7.45902L13.4997 3.49824C13.0882 3.18446 12.5739 2.99587 12.0166 2.99587ZM12.0166 2.05112H3.98358C2.11293 2.05112 0.590332 3.57371 0.590332 5.44437V10.5557C0.590332 12.4281 2.11293 13.9489 3.98358 13.9489H12.0166C13.8872 13.9489 15.4098 12.4281 15.4098 10.5557V5.44434C15.4098 3.57368 13.8872 2.05112 12.0166 2.05112Z" fill="#7A83A4"/>
</g>
</svg>
