<svg width="22" height="22" viewBox="0 0 22 22" fill="none" xmlns="http://www.w3.org/2000/svg">
<path d="M17.1875 15.5833C17.1875 15.2037 16.8797 14.8958 16.5 14.8958C16.1204 14.8958 15.8125 15.2037 15.8125 15.5833H17.1875ZM15.8125 19.25C15.8125 19.6297 16.1204 19.9375 16.5 19.9375C16.8797 19.9375 17.1875 19.6297 17.1875 19.25H15.8125ZM4.68859 6.88736C4.31337 6.82925 3.96209 7.08632 3.90398 7.46155C3.84586 7.83677 4.10293 8.18806 4.47816 8.24616L4.68859 6.88736ZM8.00207 9.15512C8.35622 9.29208 8.75432 9.116 8.89127 8.76186C9.02822 8.40773 8.85214 8.00962 8.49801 7.87268L8.00207 9.15512ZM11.6875 5.54894C11.6875 5.16924 11.3797 4.86144 11 4.86144C10.6204 4.86144 10.3125 5.16924 10.3125 5.54894H11.6875ZM11 19.25V19.9375C11.3797 19.9375 11.6875 19.6297 11.6875 19.25H11ZM19.4792 12.8333C19.4792 13.213 19.787 13.5208 20.1667 13.5208C20.5464 13.5208 20.8542 13.213 20.8542 12.8333H19.4792ZM4.68859 10.5541C4.31337 10.4959 3.96209 10.753 3.90398 11.1283C3.84586 11.5034 4.10293 11.8547 4.47816 11.9128L4.68859 10.5541ZM6.24853 12.2701C6.61668 12.363 6.99043 12.1399 7.08332 11.7717C7.1762 11.4035 6.95305 11.0298 6.58489 10.9369L6.24853 12.2701ZM15.8125 15.5833V19.25H17.1875V15.5833H15.8125ZM4.47816 8.24616C5.60453 8.42061 6.84832 8.70896 8.00207 9.15512L8.49801 7.87268C7.22769 7.38145 5.8828 7.07231 4.68859 6.88736L4.47816 8.24616ZM10.3125 5.54894V19.25H11.6875V5.54894H10.3125ZM3.58432 3.4435C5.5793 3.66893 8.17376 4.27029 9.97924 5.53545L10.7683 4.40939C8.6804 2.94633 5.81074 2.31133 3.7387 2.07719L3.58432 3.4435ZM3.58432 17.5245C5.5793 17.7499 8.17376 18.3512 9.97924 19.6164L10.7683 18.4904C8.6804 17.0273 5.81074 16.3923 3.7387 16.1582L3.58432 17.5245ZM1.14587 4.52393V14.85H2.52087V4.52393H1.14587ZM3.7387 16.1582C3.05141 16.0805 2.52087 15.5091 2.52087 14.85H1.14587C1.14587 16.2646 2.25878 17.3747 3.58432 17.5245L3.7387 16.1582ZM3.7387 2.07719C2.26104 1.91022 1.14587 3.14353 1.14587 4.52393H2.52087C2.52087 3.83054 3.04916 3.38303 3.58432 3.4435L3.7387 2.07719ZM18.2614 2.07719C16.1894 2.31133 13.3197 2.94633 11.2318 4.40939L12.0208 5.53545C13.8263 4.27029 16.4207 3.66893 18.4158 3.4435L18.2614 2.07719ZM19.4792 4.52393V12.8333H20.8542V4.52393H19.4792ZM18.4158 3.4435C18.9509 3.38303 19.4792 3.83054 19.4792 4.52393H20.8542C20.8542 3.14353 19.7391 1.91022 18.2614 2.07719L18.4158 3.4435ZM9.97924 5.53545C10.5903 5.96358 11.4098 5.96358 12.0208 5.53545L11.2318 4.40939C11.0945 4.50561 10.9056 4.50561 10.7683 4.40939L9.97924 5.53545ZM9.97924 19.6164C10.2859 19.8313 10.6442 19.9375 11 19.9375V18.5625C10.9167 18.5625 10.8359 18.5377 10.7683 18.4904L9.97924 19.6164ZM4.47816 11.9128C5.0458 12.0007 5.64499 12.1179 6.24853 12.2701L6.58489 10.9369C5.93497 10.773 5.29335 10.6476 4.68859 10.5541L4.47816 11.9128Z" fill="#8C8FA8"/>
<path d="M17.4167 12.8334C17.4167 13.3396 17.0063 13.75 16.5 13.75C15.9938 13.75 15.5834 13.3396 15.5834 12.8334C15.5834 12.3271 15.9938 11.9167 16.5 11.9167C17.0063 11.9167 17.4167 12.3271 17.4167 12.8334Z" fill="#8C8FA8"/>
</svg>
