<svg width="19" height="19" viewBox="0 0 19 19" fill="none" xmlns="http://www.w3.org/2000/svg">
<g id="Vector">
<path d="M17.5322 1.46814C16.5861 0.521416 15.3273 0 13.9886 0C12.6497 0 11.3914 0.521416 10.4448 1.46814L1.46791 10.4448C0.521436 11.3916 0 12.6502 0 13.9886C0 15.327 0.521436 16.5857 1.46791 17.5319C2.41409 18.4786 3.67281 19 5.01155 19C6.35029 19 7.60873 18.4786 8.5552 17.5319L17.5322 8.55516C18.4787 7.60844 19 6.34976 19 5.01136C19 3.67296 18.4787 2.41428 17.5322 1.46814ZM7.61032 16.587C6.91594 17.2812 5.99296 17.6638 5.01155 17.6638C4.02971 17.6638 3.10701 17.2814 2.41278 16.587C1.71855 15.8927 1.33642 14.9702 1.33642 13.9888C1.33642 13.0074 1.71884 12.084 2.41278 11.3898L6.42886 7.3736L11.6264 12.5715L7.61032 16.587ZM16.5874 7.61032L12.5713 11.6265L7.37374 6.42862L11.3898 2.41298C12.0841 1.71877 13.007 1.33623 13.9886 1.33623C14.9703 1.33623 15.893 1.71863 16.5872 2.41298C17.2815 3.10733 17.6636 4.02985 17.6636 5.01122C17.6636 5.99258 17.2813 6.91597 16.5874 7.61032Z" fill="black"/>
<path d="M15.7572 4.58621C15.5586 4.58621 15.3634 4.47299 15.2428 4.26318C14.9514 3.755 14.4708 3.4523 13.9567 3.4523C13.5408 3.4523 13.1502 3.64534 12.8559 3.99675C12.6126 4.28705 12.2186 4.28705 11.9755 3.99675C11.7323 3.7063 11.7323 3.23587 11.9755 2.94557C12.5048 2.31322 13.2083 1.96552 13.9567 1.96552C14.8819 1.96552 15.7468 2.50998 16.2703 3.42262C16.4646 3.76146 16.3923 4.22399 16.1084 4.45638C16.001 4.54411 15.8785 4.58621 15.7572 4.58621Z" fill="black"/>
</g>
</svg>
