<svg width="30" height="29" viewBox="0 0 30 29" fill="none" xmlns="http://www.w3.org/2000/svg">
<g clip-path="url(#clip0_203_842)">
<path d="M22.7124 19.6354H7.28766V21.4479H22.7124V19.6354ZM21.9689 10.7281L22.4 14.4068L24.2631 14.2029L23.832 10.5241L21.9689 10.7281ZM7.59997 14.4068L8.03107 10.7281L6.16798 10.5241L5.7369 14.2029L7.59997 14.4068ZM6.28381 17.3586C7.01463 16.527 7.47217 15.4975 7.59997 14.4068L5.7369 14.2029C5.65046 14.9404 5.34148 15.6314 4.8549 16.1849L6.28381 17.3586ZM22.4 14.4068C22.5279 15.4975 22.9854 16.527 23.7161 17.3586L25.1451 16.1849C24.6585 15.6314 24.3495 14.9404 24.2631 14.2029L22.4 14.4068ZM7.28766 19.6354C6.17916 19.6354 5.47406 18.2798 6.28381 17.3586L4.8549 16.1849C3.08112 18.2032 4.47283 21.4479 7.28766 21.4479V19.6354ZM22.7124 21.4479C25.5271 21.4479 26.9189 18.2032 25.1451 16.1849L23.7161 17.3586C24.5259 18.2798 23.8209 19.6354 22.7124 19.6354V21.4479ZM23.832 10.5241C23.313 6.09572 19.5349 2.71875 15 2.71875V4.53125C18.5377 4.53125 21.5524 7.17385 21.9689 10.7281L23.832 10.5241ZM8.03107 10.7281C8.44758 7.17385 11.4622 4.53125 15 4.53125V2.71875C10.4651 2.71875 6.68693 6.09572 6.16798 10.5241L8.03107 10.7281Z" fill="#000B33"/>
<path d="M19.6279 23.2764C19.8096 22.8077 19.5639 22.2854 19.079 22.1097C18.5941 21.934 18.0539 22.1716 17.8721 22.6403L19.6279 23.2764ZM12.1279 22.6403C11.9462 22.1716 11.4058 21.934 10.921 22.1097C10.4362 22.2854 10.1904 22.8077 10.3721 23.2764L12.1279 22.6403ZM17.8721 22.6403C17.4688 23.6808 16.3558 24.4688 15 24.4688V26.2813C17.1069 26.2813 18.9395 25.0518 19.6279 23.2764L17.8721 22.6403ZM15 24.4688C13.6443 24.4688 12.5313 23.6808 12.1279 22.6403L10.3721 23.2764C11.0604 25.0518 12.8931 26.2813 15 26.2813V24.4688Z" fill="#000B33"/>
<path d="M23 7.76667C25.1769 7.76667 27 6.05227 27 3.86667C27 1.68108 25.1769 -0.0333252 23 -0.0333252C20.8231 -0.0333252 19 1.68108 19 3.86667C19 6.05227 20.8231 7.76667 23 7.76667Z" fill="#ED1C24" stroke="white" stroke-width="2"/>
</g>
<defs>
<clipPath id="clip0_203_842">
<rect width="30" height="29" fill="white"/>
</clipPath>
</defs>
</svg>
