<svg width="27" height="27" viewBox="0 0 27 27" fill="none" xmlns="http://www.w3.org/2000/svg">
<g id="pdf(3) 1">
<path id="Vector" d="M6.75 0C5.82187 0 5.0625 0.759375 5.0625 1.6875V25.3125C5.0625 26.2406 5.82187 27 6.75 27H23.625C24.5531 27 25.3125 26.2406 25.3125 25.3125V6.75L18.5625 0H6.75Z" fill="#E2E5E7"/>
<path id="Vector_2" d="M20.25 6.75H25.3125L18.5625 0V5.0625C18.5625 5.99062 19.3219 6.75 20.25 6.75Z" fill="#B0B7BD"/>
<path id="Vector_3" d="M25.3125 11.8125L20.25 6.75H25.3125V11.8125Z" fill="#CAD1D8"/>
<path id="Vector_4" d="M21.9375 21.9375C21.9375 22.4016 21.5578 22.7812 21.0938 22.7812H2.53125C2.06719 22.7812 1.6875 22.4016 1.6875 21.9375V13.5C1.6875 13.0359 2.06719 12.6562 2.53125 12.6562H21.0938C21.5578 12.6562 21.9375 13.0359 21.9375 13.5V21.9375Z" fill="#F15642"/>
<g id="Group">
<path id="Vector_5" d="M5.36523 15.9865C5.36523 15.7638 5.54073 15.5208 5.82339 15.5208H7.3818C8.2593 15.5208 9.04905 16.108 9.04905 17.2336C9.04905 18.3001 8.2593 18.8941 7.3818 18.8941H6.25539V19.7851C6.25539 20.0821 6.06639 20.25 5.82339 20.25C5.60064 20.25 5.36523 20.0821 5.36523 19.7851V15.9865ZM6.25539 16.3704V18.0512H7.3818C7.83405 18.0512 8.1918 17.6521 8.1918 17.2336C8.1918 16.7619 7.83405 16.3704 7.3818 16.3704H6.25539Z" fill="white"/>
<path id="Vector_6" d="M10.3705 20.25C10.1478 20.25 9.90479 20.1285 9.90479 19.8323V16C9.90479 15.7579 10.1478 15.5815 10.3705 15.5815H11.9154C14.9985 15.5815 14.931 20.25 11.9762 20.25H10.3705ZM10.7958 16.405V19.4273H11.9154C13.7371 19.4273 13.8181 16.405 11.9154 16.405H10.7958Z" fill="white"/>
<path id="Vector_7" d="M16.0242 16.459V17.5314H17.7446C17.9876 17.5314 18.2306 17.7744 18.2306 18.0098C18.2306 18.2326 17.9876 18.4148 17.7446 18.4148H16.0242V19.8315C16.0242 20.0678 15.8563 20.2492 15.62 20.2492C15.323 20.2492 15.1416 20.0678 15.1416 19.8315V15.9992C15.1416 15.757 15.3239 15.5807 15.62 15.5807H17.9884C18.2854 15.5807 18.4609 15.757 18.4609 15.9992C18.4609 16.2152 18.2854 16.4582 17.9884 16.4582H16.0242V16.459Z" fill="white"/>
</g>
<path id="Vector_8" d="M21.0938 22.7812H5.0625V23.625H21.0938C21.5578 23.625 21.9375 23.2453 21.9375 22.7812V21.9375C21.9375 22.4016 21.5578 22.7812 21.0938 22.7812Z" fill="#CAD1D8"/>
</g>
</svg>
