<svg width="16" height="17" viewBox="0 0 16 17" fill="none" xmlns="http://www.w3.org/2000/svg">
<g id="gear 1">
<path id="XMLID_273_" d="M13.7628 9.518L13.4998 9.366C13.1868 9.1855 12.9998 8.8615 12.9998 8.5C12.9998 8.1385 13.1868 7.8145 13.4998 7.634L13.7628 7.482C14.4808 7.067 14.7263 6.151 14.3118 5.433L13.8118 4.567C13.3983 3.8505 12.4788 3.6045 11.7628 4.018L11.4998 4.1695C11.1868 4.3505 10.8123 4.3505 10.4998 4.1695C10.1868 3.9885 9.99981 3.665 9.99981 3.3035V3C9.99981 2.173 9.32681 1.5 8.49981 1.5H7.49981C6.67281 1.5 5.99981 2.173 5.99981 3V3.304C5.99981 3.6655 5.81281 3.989 5.49981 4.17C5.18681 4.3505 4.81281 4.351 4.49981 4.17L4.23681 4.018C3.52081 3.6045 2.60131 3.8505 2.18731 4.567L1.68731 5.433C1.27281 6.151 1.51831 7.0675 2.23631 7.482L2.49981 7.634C2.81281 7.8145 2.99981 8.1385 2.99981 8.5C2.99981 8.8615 2.81281 9.1855 2.49981 9.366L2.23681 9.518C1.51881 9.9325 1.27331 10.849 1.68781 11.567L2.18781 12.433C2.60181 13.1495 3.52131 13.3955 4.23681 12.982L4.49981 12.8305C4.81281 12.649 5.18681 12.65 5.49981 12.8305C5.81281 13.0115 5.99981 13.335 5.99981 13.6965V14C5.99981 14.827 6.67281 15.5 7.49981 15.5H8.49981C9.32681 15.5 9.99981 14.827 9.99981 14V13.696C9.99981 13.3345 10.1868 13.011 10.4998 12.83C10.8123 12.6495 11.1868 12.649 11.4998 12.83L11.7628 12.982C12.4788 13.395 13.3983 13.149 13.8118 12.433L14.3118 11.567C14.7263 10.849 14.4808 9.9325 13.7628 9.518ZM7.99981 11C6.62131 11 5.49981 9.8785 5.49981 8.5C5.49981 7.1215 6.62131 6 7.99981 6C9.37831 6 10.4998 7.1215 10.4998 8.5C10.4998 9.8785 9.37831 11 7.99981 11Z" fill="#2654A0"/>
</g>
</svg>
