<svg width="18" height="18" viewBox="0 0 18 18" fill="none" xmlns="http://www.w3.org/2000/svg">
<g id="swap 1">
<g id="Group">
<path id="Vector" fill-rule="evenodd" clip-rule="evenodd" d="M2.97725 11.9772C3.19692 11.7576 3.55308 11.7576 3.77275 11.9772L5.625 13.8295L7.47726 11.9772C7.69691 11.7576 8.05309 11.7576 8.27274 11.9772C8.4924 12.1969 8.4924 12.5531 8.27274 12.7727L6.02274 15.0227C5.80309 15.2424 5.44692 15.2424 5.22725 15.0227L2.97725 12.7727C2.75758 12.5531 2.75758 12.1969 2.97725 11.9772Z" fill="#2A3547"/>
<path id="Vector_2" fill-rule="evenodd" clip-rule="evenodd" d="M5.625 2.8125C5.93567 2.8125 6.1875 3.06434 6.1875 3.375V14.625C6.1875 14.9357 5.93567 15.1875 5.625 15.1875C5.31434 15.1875 5.0625 14.9357 5.0625 14.625V3.375C5.0625 3.06434 5.31434 2.8125 5.625 2.8125Z" fill="#2A3547"/>
<path id="Vector_3" fill-rule="evenodd" clip-rule="evenodd" d="M11.9772 2.97725C12.1969 2.75758 12.5531 2.75758 12.7727 2.97725L15.0227 5.22725C15.2424 5.44692 15.2424 5.80309 15.0227 6.02274C14.8031 6.2424 14.4469 6.2424 14.2272 6.02274L12.375 4.17049L10.5227 6.02274C10.3031 6.2424 9.9469 6.2424 9.72724 6.02274C9.50759 5.80309 9.50759 5.44692 9.72724 5.22725L11.9772 2.97725Z" fill="#2A3547"/>
<path id="Vector_4" fill-rule="evenodd" clip-rule="evenodd" d="M12.375 2.8125C12.6857 2.8125 12.9375 3.06434 12.9375 3.375V14.625C12.9375 14.9357 12.6857 15.1875 12.375 15.1875C12.0643 15.1875 11.8125 14.9357 11.8125 14.625V3.375C11.8125 3.06434 12.0643 2.8125 12.375 2.8125Z" fill="#2A3547"/>
</g>
</g>
</svg>
