<svg width="26" height="26" viewBox="0 0 26 26" fill="none" xmlns="http://www.w3.org/2000/svg">
<g id="database 1">
<g id="Group">
<path id="Vector" d="M12.9973 14.1765C8.11544 14.1765 4.02439 12.7423 2.90744 10.8087C2.71106 11.1491 2.59644 11.5027 2.59644 11.8697V15.034C2.59644 17.4785 7.2544 19.4618 12.9973 19.4618C18.7438 19.4618 23.4035 17.4785 23.4035 15.034V11.8697C23.4035 11.5027 23.2871 11.1491 23.089 10.8087C21.972 12.7414 17.8845 14.1765 12.9973 14.1765Z" fill="#F3C96B"/>
<path id="Vector_2" d="M12.9973 20.7129C8.11544 20.7129 4.02439 19.277 2.90744 17.347C2.71106 17.6855 2.59644 18.0392 2.59644 18.4053V21.5722C2.59644 24.0176 7.2544 26 12.9973 26C18.7438 26 23.4035 24.0185 23.4035 21.5722V18.4053C23.4035 18.0392 23.2871 17.6855 23.089 17.3478C21.972 19.277 17.8845 20.7129 12.9973 20.7129Z" fill="#F3C96B"/>
<path id="Vector_3" d="M23.1192 4.48026C22.9148 6.27164 18.4701 7.70493 12.9973 7.70493C7.52719 7.70493 3.08249 6.27164 2.87901 4.48114C2.7004 4.80637 2.59644 5.14581 2.59644 5.49502V8.65927C2.59644 11.1047 7.2544 13.0871 12.9973 13.0871C18.7438 13.0871 23.4035 11.1055 23.4035 8.65927V5.49502C23.4035 5.14581 23.2978 4.80637 23.1192 4.48026Z" fill="#F3C96B"/>
<path id="Vector_4" d="M12.9973 6.70082C18.5981 6.70082 23.1361 5.20178 23.1361 3.34997C23.1361 1.49993 18.5981 0 12.9973 0C7.40013 0.000888585 2.86035 1.50082 2.86035 3.35085C2.86035 5.20178 7.40013 6.70082 12.9973 6.70082Z" fill="#F3C96B"/>
</g>
</g>
</svg>
