<svg width="29" height="29" viewBox="0 0 29 29" fill="none" xmlns="http://www.w3.org/2000/svg">
<g id="crown 1">
<g id="crown">
<path id="Vector" d="M26.2813 12.5425L24.0519 22.3934C24.0077 22.5996 23.893 22.7838 23.7276 22.9145C23.5622 23.0452 23.3564 23.1141 23.1457 23.1094H5.78193C5.57119 23.1141 5.3654 23.0452 5.19999 22.9145C5.03458 22.7838 4.9199 22.5996 4.87568 22.3934L2.71881 12.5425C2.68251 12.3761 2.69386 12.2027 2.75157 12.0425C2.80927 11.8822 2.91099 11.7414 3.04506 11.6363C3.17949 11.5308 3.34101 11.4654 3.51098 11.4478C3.68096 11.4302 3.85245 11.4609 4.00568 11.5366L9.29818 14.1013L13.6844 6.34376C13.7635 6.20429 13.8781 6.08828 14.0166 6.00757C14.1551 5.92686 14.3126 5.88434 14.4729 5.88434C14.6332 5.88434 14.7906 5.92686 14.9291 6.00757C15.0676 6.08828 15.1823 6.20429 15.2613 6.34376L19.6476 14.1103L24.9763 11.5275C25.1306 11.4457 25.3053 11.4102 25.4793 11.4254C25.6533 11.4405 25.8193 11.5056 25.9571 11.6129C26.095 11.7201 26.199 11.8649 26.2565 12.0298C26.314 12.1948 26.3226 12.3728 26.2813 12.5425Z" fill="#FA756A"/>
</g>
</g>
</svg>
