<svg width="21" height="24" viewBox="0 0 21 24" fill="none" xmlns="http://www.w3.org/2000/svg">
<path d="M17.3026 2.21053H5.67446C4.24515 2.21053 3.08228 3.49581 3.08228 5.07558V19.2403C3.08228 20.82 4.24515 22.1053 5.67442 22.1053H17.3026C17.6424 22.1053 17.9178 21.8008 17.9178 21.4253V17.0552V2.89052C17.9178 2.51498 17.6425 2.21053 17.3026 2.21053ZM4.31278 5.07558C4.31278 4.24571 4.92371 3.57052 5.67446 3.57052H16.6874V16.3752H5.67446C5.17522 16.3752 4.70883 16.5324 4.31278 16.8037V5.07558ZM5.6745 20.7453C4.92363 20.7453 4.31278 20.0701 4.31278 19.2403C4.31278 18.4103 4.92363 17.7352 5.67446 17.7352H16.6874V20.7453H5.6745Z" fill="#8C8FA8"/>
<path d="M13.3487 6.58058H7.65137C7.31163 6.58058 7.03613 6.88504 7.03613 7.26058C7.03613 7.63612 7.31163 7.94057 7.65137 7.94057H13.3487C13.6885 7.94057 13.9639 7.63612 13.9639 7.26058C13.9639 6.88504 13.6885 6.58058 13.3487 6.58058Z" fill="#8C8FA8"/>
</svg>
