<svg width="27" height="27" viewBox="0 0 27 27" fill="none" xmlns="http://www.w3.org/2000/svg">
<g id="group 1" clip-path="url(#clip0_203_584)">
<g id="Group">
<g id="Group_2">
<path id="Vector" d="M23.1025 14.4134H21.0144C21.2272 14.9961 21.3435 15.625 21.3435 16.2804V24.1721C21.3435 24.4454 21.296 24.7077 21.2094 24.9516H24.6615C25.951 24.9516 27 23.9025 27 22.6131V18.3109C27.0001 16.1619 25.2516 14.4134 23.1025 14.4134Z" fill="#58B473"/>
</g>
</g>
<g id="Group_3">
<g id="Group_4">
<path id="Vector_2" d="M5.65656 16.2805C5.65656 15.625 5.77284 14.9962 5.98568 14.4135H3.89761C1.74846 14.4135 0 16.1619 0 18.3111V22.6132C0 23.9027 1.04905 24.9518 2.33856 24.9518H5.79067C5.70413 24.7077 5.65656 24.4454 5.65656 24.1722V16.2805Z" fill="#58B473"/>
</g>
</g>
<g id="Group_5">
<g id="Group_6">
<path id="Vector_3" d="M15.8868 12.3828H11.1132C8.96404 12.3828 7.21558 14.1313 7.21558 16.2804V24.1722C7.21558 24.6026 7.56457 24.9517 7.9951 24.9517H19.0049C19.4354 24.9517 19.7844 24.6027 19.7844 24.1722V16.2804C19.7844 14.1313 18.036 12.3828 15.8868 12.3828Z" fill="#58B473"/>
</g>
</g>
<g id="Group_7">
<g id="Group_8">
<path id="Vector_4" d="M13.5 2.04822C10.9154 2.04822 8.81268 4.15095 8.81268 6.73563C8.81268 8.48878 9.78031 10.0199 11.2093 10.8238C11.8871 11.2051 12.6685 11.423 13.5 11.423C14.3316 11.423 15.113 11.2051 15.7908 10.8238C17.2198 10.0199 18.1874 8.48873 18.1874 6.73563C18.1874 4.151 16.0847 2.04822 13.5 2.04822Z" fill="#58B473"/>
</g>
</g>
<g id="Group_9">
<g id="Group_10">
<path id="Vector_5" d="M5.26913 6.41721C3.33615 6.41721 1.76361 7.98975 1.76361 9.92273C1.76361 11.8557 3.33615 13.4283 5.26913 13.4283C5.75946 13.4283 6.22637 13.3267 6.65051 13.1441C7.38384 12.8284 7.98849 12.2695 8.36265 11.5695C8.62526 11.0781 8.77466 10.5176 8.77466 9.92273C8.77466 7.9898 7.20212 6.41721 5.26913 6.41721Z" fill="#58B473"/>
</g>
</g>
<g id="Group_11">
<g id="Group_12">
<path id="Vector_6" d="M21.7309 6.41721C19.7979 6.41721 18.2254 7.98975 18.2254 9.92273C18.2254 10.5177 18.3748 11.0782 18.6374 11.5695C19.0116 12.2696 19.6162 12.8285 20.3495 13.1441C20.7737 13.3267 21.2406 13.4283 21.7309 13.4283C23.6639 13.4283 25.2365 11.8557 25.2365 9.92273C25.2365 7.98975 23.6639 6.41721 21.7309 6.41721Z" fill="#58B473"/>
</g>
</g>
</g>
<defs>
<clipPath id="clip0_203_584">
<rect width="27" height="27" fill="white"/>
</clipPath>
</defs>
</svg>
