<svg width="17" height="16" viewBox="0 0 17 16" fill="none" xmlns="http://www.w3.org/2000/svg">
<g id="Vector">
<path d="M16.3383 0.612805C15.4562 -0.204227 14.0283 -0.20432 13.146 0.612836L10.6239 2.94871L4.4064 0.989117C4.20287 0.924992 3.97761 0.973492 3.82554 1.11434L2.22941 2.59265C1.9803 2.82327 2.01822 3.20665 2.30722 3.39193L6.93882 6.36165L5.58968 7.61121L3.89063 7.29646C3.70569 7.26231 3.51438 7.31584 3.38093 7.43943L1.78476 8.91777C1.51274 9.16962 1.58697 9.59531 1.9314 9.75481L4.95551 11.1552L6.46753 13.956C6.63988 14.2753 7.09957 14.3435 7.37132 14.0918L8.96749 12.6135C9.1009 12.4899 9.15884 12.3128 9.12182 12.1414L8.78201 10.5678L10.1312 9.31827L13.3377 13.6079C13.5392 13.8775 13.9532 13.9092 14.2007 13.68L15.7969 12.2016C15.9489 12.0608 16.0014 11.8522 15.9321 11.6637L13.8162 5.90531L16.3383 3.5694C17.2205 2.75237 17.2206 1.42993 16.3383 0.612805ZM3.50564 2.88896L4.37532 2.08349L9.7344 3.77252L7.75003 5.61037L3.50564 2.88896ZM14.7504 11.6925L13.8807 12.498L10.9423 8.56706C11.7419 7.82656 11.5268 8.02571 12.9267 6.72921L14.7504 11.6925ZM15.5403 2.83027C15.3275 3.0274 7.9563 9.85434 7.77041 10.0265C7.637 10.1501 7.57907 10.3272 7.61605 10.4986L7.95586 12.0722L7.1269 12.8399L5.8809 10.5319C5.82627 10.4307 5.73773 10.3487 5.62851 10.2982L3.13648 9.14415L3.96543 8.3764L5.66448 8.69115C5.84952 8.72527 6.04076 8.67174 6.17418 8.54818L13.9441 1.35199C14.3853 0.943398 15.0991 0.94343 15.5403 1.35199C15.9814 1.76049 15.9814 2.42174 15.5403 2.83027Z" fill="black"/>
<path d="M3.22068 11.4491C3.00028 11.245 2.64296 11.245 2.4226 11.4491L0.165299 13.5398C-0.0550996 13.7438 -0.0550996 14.0748 0.165299 14.2789C0.385698 14.483 0.742985 14.483 0.963383 14.2789L3.22071 12.1883C3.44108 11.9842 3.44108 11.6532 3.22068 11.4491Z" fill="black"/>
<path d="M4.91369 13.0171C4.69329 12.813 4.33597 12.813 4.1156 13.0171L1.85827 15.1078C1.63787 15.3118 1.63787 15.6428 1.85827 15.8469C2.07867 16.051 2.43596 16.051 2.65636 15.8469L4.91369 13.7563C5.13409 13.5522 5.13409 13.2212 4.91369 13.0171Z" fill="black"/>
</g>
</svg>
