<svg width="23" height="23" viewBox="0 0 23 23" fill="none" xmlns="http://www.w3.org/2000/svg">
<path d="M8.63365 11.3021C7.82811 11.3021 7.04065 11.0632 6.37086 10.6157C5.70107 10.1681 5.17904 9.53204 4.87077 8.78781C4.5625 8.04358 4.48184 7.22465 4.639 6.43458C4.79615 5.64451 5.18406 4.91879 5.75366 4.34918C6.32327 3.77957 7.049 3.39167 7.83907 3.23451C8.62913 3.07736 9.44806 3.15801 10.1923 3.46628C10.9365 3.77455 11.5726 4.29659 12.0202 4.96638C12.4677 5.63617 12.7066 6.42362 12.7066 7.22917C12.7053 8.30898 12.2758 9.34421 11.5122 10.1078C10.7487 10.8713 9.71347 11.3008 8.63365 11.3021ZM8.63365 4.59375C8.11242 4.59375 7.60289 4.74832 7.16949 5.0379C6.7361 5.32748 6.39831 5.73908 6.19885 6.22064C5.99938 6.7022 5.94719 7.23209 6.04887 7.74331C6.15056 8.25453 6.40156 8.72412 6.77013 9.09269C7.1387 9.46126 7.60829 9.71226 8.11951 9.81395C8.63073 9.91564 9.16062 9.86345 9.64218 9.66398C10.1237 9.46451 10.5353 9.12672 10.8249 8.69333C11.1145 8.25994 11.2691 7.75041 11.2691 7.22917C11.2686 6.53037 10.9907 5.86033 10.4966 5.36621C10.0025 4.87208 9.33245 4.59426 8.63365 4.59375ZM12.4584 20.8438H4.79169C2.47253 20.8438 1.19507 19.574 1.19507 17.2682C1.19507 14.7171 2.63832 11.7396 6.70549 11.7396H10.5388C14.606 11.7396 16.0492 14.7171 16.0492 17.2682C16.0521 19.574 14.7747 20.8438 12.4584 20.8438ZM6.70836 13.1771C6.16114 13.1348 5.61125 13.2117 5.09666 13.4026C4.58207 13.5935 4.11504 13.8938 3.7278 14.2828C3.34057 14.6717 3.04236 15.1401 2.85377 15.6555C2.66517 16.171 2.59068 16.7212 2.63544 17.2682C2.63544 18.767 3.28136 19.4063 4.79457 19.4063H12.4584C13.9716 19.4063 14.6175 18.767 14.6175 17.2682C14.6623 16.7209 14.5878 16.1704 14.399 15.6548C14.2102 15.1391 13.9118 14.6706 13.5242 14.2816C13.1366 13.8926 12.6692 13.5923 12.1543 13.4016C11.6394 13.2109 11.0891 13.1343 10.5417 13.1771H6.70836Z" fill="#8C8FA8"/>
</svg>
