<svg width="15" height="15" viewBox="0 0 15 15" fill="none" xmlns="http://www.w3.org/2000/svg">
<g id="user 1">
<g id="Group">
<g id="Group_2">
<path id="Vector" d="M12.6855 15C12.3619 15 12.0996 14.7377 12.0996 14.4141C12.0996 12.1201 10.2334 10.2539 7.93945 10.2539H7.06055C4.76663 10.2539 2.90039 12.1201 2.90039 14.4141C2.90039 14.7377 2.63807 15 2.31445 15C1.99084 15 1.72852 14.7377 1.72852 14.4141C1.72852 11.474 4.12046 9.08203 7.06055 9.08203H7.93945C10.8795 9.08203 13.2715 11.474 13.2715 14.4141C13.2715 14.7377 13.0092 15 12.6855 15Z" fill="#000B33"/>
</g>
<g id="Group_3">
<path id="Vector_2" d="M7.44141 7.91016C5.26058 7.91016 3.48633 6.13591 3.48633 3.95508C3.48633 1.77425 5.26058 0 7.44141 0C9.62224 0 11.3965 1.77425 11.3965 3.95508C11.3965 6.13591 9.62224 7.91016 7.44141 7.91016ZM7.44141 1.17188C5.90675 1.17188 4.6582 2.42042 4.6582 3.95508C4.6582 5.48974 5.90675 6.73828 7.44141 6.73828C8.97606 6.73828 10.2246 5.48974 10.2246 3.95508C10.2246 2.42042 8.97606 1.17188 7.44141 1.17188Z" fill="#000B33"/>
</g>
</g>
</g>
</svg>
