<svg width="15" height="18" viewBox="0 0 15 18" fill="none" xmlns="http://www.w3.org/2000/svg">
<path d="M7.26122 7.95161C6.47488 7.95161 5.7062 7.71843 5.05238 7.28157C4.39857 6.8447 3.88898 6.22377 3.58806 5.49728C3.28714 4.7708 3.20841 3.9714 3.36181 3.20017C3.51522 2.42893 3.89388 1.72051 4.4499 1.16449C5.00593 0.608462 5.71435 0.229803 6.48558 0.0763958C7.25681 -0.0770115 8.05622 0.00172261 8.7827 0.302642C9.50918 0.603561 10.1301 1.11315 10.567 1.76697C11.0039 2.42079 11.237 3.18947 11.237 3.97581C11.2358 5.02988 10.8165 6.04042 10.0712 6.78576C9.32584 7.5311 8.31529 7.95037 7.26122 7.95161ZM7.26122 1.40323C6.75242 1.40323 6.25503 1.55411 5.83197 1.83678C5.40892 2.11946 5.07918 2.52125 4.88447 2.99132C4.68976 3.4614 4.63881 3.97866 4.73808 4.47769C4.83734 4.97672 5.08235 5.43511 5.44213 5.7949C5.80192 6.15468 6.26031 6.39969 6.75934 6.49896C7.25837 6.59822 7.77563 6.54727 8.24571 6.35256C8.71579 6.15785 9.11757 5.82811 9.40025 5.40506C9.68293 4.982 9.8338 4.48462 9.8338 3.97581C9.83331 3.29367 9.56211 2.63961 9.07977 2.15727C8.59742 1.67492 7.94336 1.40372 7.26122 1.40323ZM10.9947 17.2658H3.51087C1.247 17.2658 0 16.0263 0 13.7755C0 11.2852 1.40884 8.37868 5.37903 8.37868H9.12097C13.0912 8.37868 14.5 11.2852 14.5 13.7755C14.5028 16.0263 13.2558 17.2658 10.9947 17.2658ZM5.38184 9.78191C4.84766 9.7406 4.31089 9.8157 3.80856 10.002C3.30624 10.1884 2.85035 10.4815 2.47235 10.8612C2.09434 11.2409 1.80325 11.6981 1.61915 12.2012C1.43505 12.7044 1.36234 13.2415 1.40603 13.7755C1.40603 15.2386 2.03655 15.8626 3.51368 15.8626H10.9947C12.4719 15.8626 13.1024 15.2386 13.1024 13.7755C13.1461 13.2412 13.0734 12.7039 12.8891 12.2005C12.7048 11.6972 12.4135 11.2398 12.0352 10.8601C11.6569 10.4803 11.2006 10.1873 10.6979 10.0011C10.1953 9.81496 9.65817 9.74017 9.12377 9.78191H5.38184Z" fill="#8C8FA8"/>
</svg>
