<svg width="21" height="22" viewBox="0 0 21 22" fill="none" xmlns="http://www.w3.org/2000/svg">
<path d="M2.24019 21.6585C1.89544 21.6585 1.56026 21.5723 1.27297 21.4C0.63135 21.0265 0.267456 20.2795 0.267456 19.3506V7.75363C0.267456 5.71386 1.92416 4.05713 3.96394 4.05713H11.4144C13.4541 4.05713 15.1109 5.71386 15.1109 7.75363V19.3506C15.1109 20.2795 14.7469 21.0169 14.1053 21.4C13.4637 21.7735 12.6401 21.7351 11.8261 21.2851L8.06267 19.1878C7.88072 19.0825 7.49763 19.0825 7.31568 19.1878L3.55216 21.2851C3.11165 21.534 2.66156 21.6585 2.24019 21.6585ZM3.97352 5.50318C2.72859 5.50318 1.7135 6.51826 1.7135 7.76319V19.3602C1.7135 19.7528 1.82842 20.0593 2.01037 20.1646C2.19232 20.27 2.51794 20.2221 2.86269 20.0305L6.62621 17.9333C7.2391 17.5981 8.15842 17.5981 8.77127 17.9333L12.5348 20.0305C12.8796 20.2221 13.1956 20.27 13.3871 20.1646C13.5691 20.0593 13.684 19.7528 13.684 19.3602V7.76319C13.684 6.51826 12.669 5.50318 11.424 5.50318H3.97352Z" fill="#000B33"/>
<path d="M18.8933 17.9427C18.4719 17.9427 18.0314 17.8182 17.5813 17.5788L14.0476 15.6061C13.8178 15.4816 13.6837 15.2422 13.6837 14.9836V7.7726C13.6837 6.52767 12.6686 5.51258 11.4237 5.51258H6.74081C6.34818 5.51258 6.02258 5.18698 6.02258 4.79435V4.05695C6.02258 2.01718 7.67929 0.360474 9.71907 0.360474H17.1695C19.2093 0.360474 20.866 2.01718 20.866 4.05695V15.654C20.866 16.5733 20.5021 17.3203 19.8605 17.6938C19.5732 17.8566 19.2476 17.9427 18.8933 17.9427ZM15.1202 14.5527L18.2804 16.3243C18.6251 16.5159 18.9411 16.5637 19.1327 16.4488C19.3242 16.3339 19.4295 16.037 19.4295 15.6444V4.04737C19.4295 2.80244 18.4144 1.78735 17.1695 1.78735H9.71907C8.47413 1.78735 7.45904 2.80244 7.45904 4.04737V4.06653H11.4237C13.4634 4.06653 15.1202 5.72324 15.1202 7.76301V14.5527Z" fill="#000B33"/>
</svg>
