<svg width="21" height="25" viewBox="0 0 21 25" fill="none" xmlns="http://www.w3.org/2000/svg">
<path d="M2.79097 25C2.30323 25 1.82902 24.8776 1.42257 24.6328C0.514826 24.1023 0 23.0413 0 21.722V5.25029C0 2.35312 2.34386 0 5.22967 0H15.7703C18.6561 0 21 2.35312 21 5.25029V21.722C21 23.0413 20.4852 24.0887 19.5774 24.6328C18.6697 25.1632 17.5045 25.1088 16.3529 24.4695L11.0284 21.4907C10.771 21.3411 10.229 21.3411 9.97162 21.4907L4.64711 24.4695C4.02388 24.8232 3.3871 25 2.79097 25ZM5.24324 2.05388C3.48194 2.05388 2.04582 3.49564 2.04582 5.26387V21.7356C2.04582 22.2933 2.2084 22.7285 2.46582 22.8781C2.72324 23.0278 3.18392 22.9597 3.67166 22.6877L8.99617 19.7089C9.86327 19.2329 11.1639 19.2329 12.031 19.7089L17.3555 22.6877C17.8432 22.9597 18.2903 23.0278 18.5613 22.8781C18.8187 22.7285 18.9813 22.2933 18.9813 21.7356V5.26387C18.9813 3.49564 17.5453 2.05388 15.784 2.05388H5.24324Z" fill="#1C3E77"/>
</svg>
