<svg width="25" height="25" viewBox="0 0 25 25" fill="none" xmlns="http://www.w3.org/2000/svg">
<g id="calendar(2) 1">
<g id="Group">
<path id="Vector" d="M8.3335 5.98975C7.90641 5.98975 7.55225 5.63558 7.55225 5.2085V2.0835C7.55225 1.65641 7.90641 1.30225 8.3335 1.30225C8.76058 1.30225 9.11475 1.65641 9.11475 2.0835V5.2085C9.11475 5.63558 8.76058 5.98975 8.3335 5.98975Z" fill="#3D426B"/>
<path id="Vector_2" d="M16.6665 5.98975C16.2394 5.98975 15.8853 5.63558 15.8853 5.2085V2.0835C15.8853 1.65641 16.2394 1.30225 16.6665 1.30225C17.0936 1.30225 17.4478 1.65641 17.4478 2.0835V5.2085C17.4478 5.63558 17.0936 5.98975 16.6665 5.98975Z" fill="#3D426B"/>
<path id="Vector_3" d="M8.85417 15.1044C8.71875 15.1044 8.58333 15.0732 8.45833 15.0211C8.32292 14.969 8.21875 14.8961 8.11458 14.8023C7.92708 14.6044 7.8125 14.344 7.8125 14.0627C7.8125 13.9273 7.84375 13.7919 7.89583 13.6669C7.94792 13.5419 8.02083 13.4273 8.11458 13.3232C8.21875 13.2294 8.32292 13.1565 8.45833 13.1044C8.83333 12.9482 9.30208 13.0315 9.59375 13.3232C9.78125 13.5211 9.89583 13.7919 9.89583 14.0627C9.89583 14.1252 9.88542 14.1982 9.875 14.2711C9.86458 14.3336 9.84375 14.3961 9.8125 14.4586C9.79167 14.5211 9.76042 14.5836 9.71875 14.6461C9.6875 14.6982 9.63542 14.7502 9.59375 14.8023C9.39583 14.9898 9.125 15.1044 8.85417 15.1044Z" fill="#3D426B"/>
<path id="Vector_4" d="M12.5002 15.1041C12.3647 15.1041 12.2293 15.0729 12.1043 15.0208C11.9689 14.9687 11.8647 14.8958 11.7606 14.8021C11.5731 14.6041 11.4585 14.3437 11.4585 14.0625C11.4585 13.9271 11.4897 13.7916 11.5418 13.6666C11.5939 13.5416 11.6668 13.4271 11.7606 13.3229C11.8647 13.2291 11.9689 13.1562 12.1043 13.1041C12.4793 12.9375 12.9481 13.0312 13.2397 13.3229C13.4272 13.5208 13.5418 13.7916 13.5418 14.0625C13.5418 14.125 13.5314 14.1979 13.521 14.2708C13.5106 14.3333 13.4897 14.3958 13.4585 14.4583C13.4377 14.5208 13.4064 14.5833 13.3647 14.6458C13.3335 14.6979 13.2814 14.75 13.2397 14.8021C13.0418 14.9896 12.771 15.1041 12.5002 15.1041Z" fill="#3D426B"/>
<path id="Vector_5" d="M16.1457 15.1041C16.0103 15.1041 15.8748 15.0729 15.7498 15.0208C15.6144 14.9687 15.5103 14.8958 15.4061 14.8021C15.3644 14.75 15.3228 14.6979 15.2811 14.6458C15.2394 14.5833 15.2082 14.5208 15.1873 14.4583C15.1561 14.3958 15.1353 14.3333 15.1248 14.2708C15.1144 14.1979 15.104 14.125 15.104 14.0625C15.104 13.7916 15.2186 13.5208 15.4061 13.3229C15.5103 13.2291 15.6144 13.1562 15.7498 13.1041C16.1353 12.9375 16.5936 13.0312 16.8853 13.3229C17.0728 13.5208 17.1873 13.7916 17.1873 14.0625C17.1873 14.125 17.1769 14.1979 17.1665 14.2708C17.1561 14.3333 17.1353 14.3958 17.104 14.4583C17.0832 14.5208 17.0519 14.5833 17.0103 14.6458C16.979 14.6979 16.9269 14.75 16.8853 14.8021C16.6873 14.9896 16.4165 15.1041 16.1457 15.1041Z" fill="#3D426B"/>
<path id="Vector_6" d="M8.85417 18.7499C8.71875 18.7499 8.58333 18.7187 8.45833 18.6667C8.33333 18.6146 8.21875 18.5416 8.11458 18.4478C7.92708 18.2499 7.8125 17.9791 7.8125 17.7082C7.8125 17.5728 7.84375 17.4374 7.89583 17.3124C7.94792 17.177 8.02083 17.0625 8.11458 16.9688C8.5 16.5833 9.20833 16.5833 9.59375 16.9688C9.78125 17.1667 9.89583 17.4374 9.89583 17.7082C9.89583 17.9791 9.78125 18.2499 9.59375 18.4478C9.39583 18.6353 9.125 18.7499 8.85417 18.7499Z" fill="#3D426B"/>
<path id="Vector_7" d="M12.5002 18.7499C12.2293 18.7499 11.9585 18.6353 11.7606 18.4478C11.5731 18.2499 11.4585 17.9791 11.4585 17.7082C11.4585 17.5728 11.4897 17.4374 11.5418 17.3124C11.5939 17.177 11.6668 17.0625 11.7606 16.9688C12.146 16.5833 12.8543 16.5833 13.2397 16.9688C13.3335 17.0625 13.4064 17.177 13.4585 17.3124C13.5106 17.4374 13.5418 17.5728 13.5418 17.7082C13.5418 17.9791 13.4272 18.2499 13.2397 18.4478C13.0418 18.6353 12.771 18.7499 12.5002 18.7499Z" fill="#3D426B"/>
<path id="Vector_8" d="M16.1457 18.7503C15.8748 18.7503 15.604 18.6357 15.4061 18.4482C15.3123 18.3544 15.2394 18.2399 15.1873 18.1044C15.1353 17.9794 15.104 17.844 15.104 17.7086C15.104 17.5732 15.1353 17.4378 15.1873 17.3128C15.2394 17.1774 15.3123 17.0628 15.4061 16.969C15.6457 16.7294 16.0103 16.6148 16.3436 16.6878C16.4165 16.6982 16.479 16.719 16.5415 16.7503C16.604 16.7711 16.6665 16.8024 16.729 16.844C16.7811 16.8753 16.8332 16.9274 16.8853 16.969C17.0728 17.1669 17.1873 17.4378 17.1873 17.7086C17.1873 17.9794 17.0728 18.2503 16.8853 18.4482C16.6873 18.6357 16.4165 18.7503 16.1457 18.7503Z" fill="#3D426B"/>
<path id="Vector_9" d="M21.3543 10.25H3.646C3.21891 10.25 2.86475 9.89583 2.86475 9.46875C2.86475 9.04167 3.21891 8.6875 3.646 8.6875H21.3543C21.7814 8.6875 22.1356 9.04167 22.1356 9.46875C22.1356 9.89583 21.7814 10.25 21.3543 10.25Z" fill="#3D426B"/>
<path id="Vector_10" d="M16.6667 23.6981H8.33333C4.53125 23.6981 2.34375 21.5106 2.34375 17.7085V8.85433C2.34375 5.05225 4.53125 2.86475 8.33333 2.86475H16.6667C20.4688 2.86475 22.6562 5.05225 22.6562 8.85433V17.7085C22.6562 21.5106 20.4688 23.6981 16.6667 23.6981ZM8.33333 4.42725C5.35417 4.42725 3.90625 5.87516 3.90625 8.85433V17.7085C3.90625 20.6877 5.35417 22.1356 8.33333 22.1356H16.6667C19.6458 22.1356 21.0938 20.6877 21.0938 17.7085V8.85433C21.0938 5.87516 19.6458 4.42725 16.6667 4.42725H8.33333Z" fill="#3D426B"/>
</g>
</g>
</svg>
