<svg width="25" height="25" viewBox="0 0 25 25" fill="none" xmlns="http://www.w3.org/2000/svg">
<path d="M14.7904 12.5001L24.5249 22.2349C25.1584 22.8681 25.1584 23.8919 24.5249 24.5251C23.8917 25.1583 22.8679 25.1583 22.2347 24.5251L12.4999 14.7903L2.76536 24.5251C2.13185 25.1583 1.10834 25.1583 0.475129 24.5251C-0.158376 23.8919 -0.158376 22.8681 0.475129 22.2349L10.2096 12.5001L0.475129 2.76527C-0.158376 2.13206 -0.158376 1.10825 0.475129 0.47504C0.790695 0.159178 1.20562 0.00050354 1.62024 0.00050354C2.03487 0.00050354 2.44949 0.159178 2.76536 0.47504L12.4999 10.2098L22.2347 0.47504C22.5505 0.159178 22.9651 0.00050354 23.3798 0.00050354C23.7944 0.00050354 24.209 0.159178 24.5249 0.47504C25.1584 1.10825 25.1584 2.13206 24.5249 2.76527L14.7904 12.5001Z" fill="#000B33"/>
</svg>
