<svg width="32" height="32" viewBox="0 0 32 32" fill="none" xmlns="http://www.w3.org/2000/svg">
<g id="expand-arrows 1">
<path id="Vector" d="M20.4308 10.5311L10.1383 20.8236L10.1383 17.6219C10.1383 17.2417 9.83108 16.9345 9.45092 16.9345C9.07076 16.9345 8.76352 17.2417 8.76352 17.6219L8.76352 22.4823C8.76304 22.8512 9.06152 23.1711 9.45189 23.1706L14.3123 23.1706C14.6924 23.1706 14.9997 22.8634 14.9997 22.4832C14.9997 22.1031 14.6924 21.7958 14.3123 21.7958L11.1106 21.7958L21.4031 11.5034L21.4031 14.705C21.4031 15.0852 21.7103 15.3924 22.0905 15.3924C22.4706 15.3924 22.7778 15.0852 22.7778 14.705L22.7778 9.84466C22.7783 9.46402 22.4653 9.1558 22.0895 9.15629L17.2291 9.15629C16.8489 9.15629 16.5417 9.46353 16.5417 9.84369C16.5417 10.2238 16.8489 10.5311 17.2291 10.5311L20.4308 10.5311Z" fill="#000B33"/>
</g>
</svg>
