<svg width="23" height="22" viewBox="0 0 23 22" fill="none" xmlns="http://www.w3.org/2000/svg">
<path d="M9.37002 22C9.14406 22 8.92735 21.9091 8.76757 21.7473C8.60779 21.5855 8.51803 21.3661 8.51803 21.1373V12.842L0.620073 4.04627C0.30917 3.69934 0.104395 3.26849 0.0305993 2.80601C-0.043196 2.34352 0.0171619 1.86929 0.204347 1.44087C0.391533 1.01244 0.697498 0.64825 1.08511 0.39248C1.47272 0.13671 1.92531 0.00037 2.38795 0H20.612C21.0747 0.00037 21.5273 0.13671 21.9149 0.39248C22.3025 0.64825 22.6085 1.01244 22.7957 1.44087C22.9828 1.86929 23.0432 2.34352 22.9694 2.80601C22.8956 3.26849 22.6908 3.69934 22.3799 4.04627L14.482 12.842V17.6863C14.4819 17.8155 14.4531 17.9431 14.3978 18.0596C14.3425 18.176 14.2621 18.2784 14.1625 18.3592L9.90252 21.8102C9.75148 21.9329 9.56366 21.9998 9.37002 22ZM2.38795 1.72549C2.25538 1.72583 2.12574 1.76506 2.01472 1.83846C1.90371 1.91185 1.81608 2.01625 1.76245 2.13903C1.70881 2.2618 1.69147 2.39769 1.71251 2.53024C1.73355 2.66279 1.79208 2.78632 1.88102 2.88588L10.0005 11.9447C10.1396 12.0996 10.2183 12.3005 10.222 12.5098V19.3427L12.778 17.2549V12.5098C12.7775 12.2945 12.8565 12.0868 12.9995 11.9275L21.119 2.86863C21.2026 2.76862 21.2566 2.64668 21.2747 2.51692C21.2928 2.38715 21.2743 2.25485 21.2213 2.13529C21.1682 2.01574 21.0829 1.91382 20.9751 1.8413C20.8673 1.76879 20.7414 1.72863 20.612 1.72549H2.38795Z" fill="#000B33"/>
</svg>
