<svg width="34" height="34" viewBox="0 0 34 34" fill="none" xmlns="http://www.w3.org/2000/svg">
<g clip-path="url(#clip0_463_458)">
<path d="M31.9816 5.43752L29.1083 2.57294C27.6456 1.1146 25.1902 1.1146 23.7275 2.57294L7.32375 18.9271C7.11479 19.1355 7.0103 19.448 7.0103 19.7084C7.0103 19.9688 7.11479 20.2813 7.32375 20.4896L7.68944 20.8542L4.86842 23.6667C4.39825 24.1354 4.13704 24.7084 4.13704 25.3334L1.36826 28.0937C1.05482 28.4062 0.950333 28.823 1.00257 29.2396C1.05482 29.6563 1.31602 30.0209 1.68171 30.2292L5.65203 32.3646C5.861 32.4688 6.1222 32.5208 6.33117 32.5208C6.69686 32.5208 7.06254 32.3646 7.37599 32.1042L9.15219 30.3333C9.77908 30.2812 10.3537 30.0209 10.7717 29.6042L13.5927 26.7917L13.9584 27.1563C14.1673 27.3646 14.4808 27.4687 14.7942 27.4687C15.1077 27.4687 15.3689 27.3646 15.6301 27.1563L32.0338 10.8021C33.4966 9.3438 33.4966 6.89588 31.9816 5.43752ZM6.27893 30.6459L3.09222 28.9271L4.76394 27.2605C4.76394 27.2605 4.76394 27.3125 4.81618 27.3125L7.16703 29.6562C7.16703 29.6562 7.21927 29.7084 7.27151 29.7084L6.27893 30.6459ZM9.51788 28.3542C9.25667 28.6146 8.7865 28.6146 8.47306 28.3542L6.1222 26.0104C5.861 25.75 5.861 25.2812 6.1222 24.9687L8.94323 22.1563L12.2867 25.4896L9.51788 28.3542ZM30.6755 9.50005L14.7942 25.3854L9.09995 19.7084L25.0335 3.87502C25.8171 3.09377 27.0709 3.09377 27.8545 3.87502L30.7278 6.73963C31.4592 7.52088 31.4592 8.77088 30.6755 9.50005Z" fill="#1C3E77"/>
</g>
<defs>
<clipPath id="clip0_463_458">
<rect width="33.4343" height="33.3333" fill="white" transform="translate(0.323242 0.333374)"/>
</clipPath>
</defs>
</svg>
