<svg width="22" height="21" viewBox="0 0 22 21" fill="none" xmlns="http://www.w3.org/2000/svg">
<path d="M20.2982 3.23006L18.0369 0.97666C16.8857 -0.170524 14.9533 -0.170524 13.8021 0.97666L5.25245 9.48106C5.08799 9.64495 5.00576 9.89077 5.00576 10.0956C5.00576 10.3005 5.08799 10.5463 5.25245 10.7102L5.54026 10.997L3.32006 13.2094C2.95002 13.5781 2.74445 14.0288 2.74445 14.5205L0.565356 16.6919C0.318667 16.9377 0.236437 17.2655 0.277552 17.5933C0.318667 17.9211 0.524241 18.2079 0.812046 18.3717L3.93678 20.0515C4.10124 20.1335 4.30681 20.1744 4.47127 20.1744C4.75908 20.1744 5.04688 20.0515 5.29357 19.8467L6.69148 18.4536C7.18486 18.4127 7.63712 18.2079 7.96604 17.8801L10.1862 15.6676L10.474 15.9545C10.6385 16.1183 10.8852 16.2002 11.1319 16.2002C11.3786 16.2002 11.5842 16.1183 11.7897 15.9545L20.3394 7.45008C21.4906 6.30289 21.4906 4.37726 20.2982 3.23006ZM4.43016 18.6995L1.92215 17.3475L3.23783 16.0364C3.23783 16.0364 3.23783 16.0773 3.27894 16.0773L5.12911 17.921C5.12911 17.921 5.17022 17.962 5.21134 17.962L4.43016 18.6995ZM6.97928 16.8967C6.77371 17.1016 6.40367 17.1016 6.15698 16.8967L4.30681 15.0531C4.10124 14.8482 4.10124 14.4795 4.30681 14.2336L6.52702 12.0213L9.15837 14.6433L6.97928 16.8967ZM19.2704 6.4258L11.1319 14.5614L6.65036 10.0956L14.8299 2.00093C15.4467 1.38637 16.4334 1.38637 17.0502 2.00093L19.3115 4.25435C19.8871 4.86891 19.8871 5.85221 19.2704 6.4258Z" fill="#000B33"/>
</svg>
