<svg width="30" height="22" viewBox="0 0 30 22" fill="none" xmlns="http://www.w3.org/2000/svg">
<path d="M0.723991 10.0573L10.0573 0.724014C10.3088 0.481137 10.6456 0.346744 10.9952 0.349782C11.3448 0.35282 11.6792 0.493045 11.9264 0.740256C12.1736 0.987467 12.3139 1.32188 12.3169 1.67148C12.3199 2.02108 12.1855 2.35788 11.9427 2.60935L4.88532 9.66668H28.3333C28.6869 9.66668 29.0261 9.80716 29.2761 10.0572C29.5262 10.3073 29.6667 10.6464 29.6667 11C29.6667 11.3536 29.5262 11.6928 29.2761 11.9428C29.0261 12.1929 28.6869 12.3333 28.3333 12.3333H4.88532L11.9427 19.3907C12.07 19.5137 12.1716 19.6608 12.2415 19.8235C12.3113 19.9861 12.3481 20.1611 12.3497 20.3381C12.3512 20.5152 12.3175 20.6908 12.2504 20.8546C12.1834 21.0185 12.0844 21.1674 11.9592 21.2925C11.834 21.4177 11.6851 21.5167 11.5213 21.5838C11.3574 21.6508 11.1818 21.6846 11.0048 21.683C10.8278 21.6815 10.6528 21.6447 10.4901 21.5748C10.3274 21.5049 10.1803 21.4034 10.0573 21.276L0.723991 11.9427C0.47403 11.6926 0.333611 11.3536 0.333611 11C0.333611 10.6465 0.47403 10.3074 0.723991 10.0573Z" fill="#000B33"/>
</svg>
