<svg width="57" height="57" viewBox="0 0 57 57" fill="none" xmlns="http://www.w3.org/2000/svg">
<g id="art 1" clip-path="url(#clip0_8_421)">
<path id="Vector" d="M16.476 18.4806C14.0207 18.4806 12.0228 20.4785 12.0228 22.9338C12.0228 25.3891 14.0207 27.3869 16.476 27.3869C18.9317 27.3869 20.9291 25.3891 20.9291 22.9338C20.9291 20.4785 18.9317 18.4806 16.476 18.4806ZM16.476 25.1604C15.2483 25.1604 14.2494 24.1614 14.2494 22.9338C14.2494 21.7061 15.2483 20.7072 16.476 20.7072C17.7041 20.7072 18.7026 21.7061 18.7026 22.9338C18.7026 24.1614 17.7041 25.1604 16.476 25.1604Z" fill="#FD7C36"/>
<path id="Vector_2" d="M33.1754 17.3673C33.1754 14.912 31.178 12.9142 28.7222 12.9142C26.2669 12.9142 24.269 14.912 24.269 17.3673C24.269 19.8226 26.2669 21.8205 28.7222 21.8205C31.178 21.8205 33.1754 19.8226 33.1754 17.3673ZM26.4956 17.3673C26.4956 16.1397 27.4945 15.1407 28.7222 15.1407C29.9503 15.1407 30.9488 16.1397 30.9488 17.3673C30.9488 18.595 29.9503 19.5939 28.7222 19.5939C27.4945 19.5939 26.4956 18.595 26.4956 17.3673Z" fill="#FD7C36"/>
<path id="Vector_3" d="M8.68298 36.2932C8.68298 38.7486 10.6808 40.7464 13.1361 40.7464C15.5919 40.7464 17.5893 38.7486 17.5893 36.2932C17.5893 33.8379 15.5919 31.8401 13.1361 31.8401C10.6808 31.8401 8.68298 33.8379 8.68298 36.2932ZM13.1361 34.0667C14.3642 34.0667 15.3627 35.0656 15.3627 36.2932C15.3627 37.5209 14.3642 38.5198 13.1361 38.5198C11.9085 38.5198 10.9096 37.5209 10.9096 36.2932C10.9096 35.0656 11.9085 34.0667 13.1361 34.0667Z" fill="#FD7C36"/>
<path id="Vector_4" d="M18.7026 45.1996C18.7026 47.6549 20.7005 49.6527 23.1558 49.6527C25.6116 49.6527 27.609 47.6549 27.609 45.1996C27.609 42.7442 25.6116 40.7464 23.1558 40.7464C20.7005 40.7464 18.7026 42.7442 18.7026 45.1996ZM25.3824 45.1996C25.3824 46.4272 24.3839 47.4261 23.1558 47.4261C21.9281 47.4261 20.9292 46.4272 20.9292 45.1996C20.9292 43.9719 21.9281 42.973 23.1558 42.973C24.3839 42.973 25.3824 43.9719 25.3824 45.1996Z" fill="#FD7C36"/>
<path id="Vector_5" d="M48.794 10.5876C48.794 7.93871 44.9401 1.73343 44.1674 0.516636C43.963 0.194826 43.6085 0 43.2276 0C42.8462 0 42.4918 0.194826 42.2878 0.516636C41.6124 1.57992 38.5861 6.45056 37.8316 9.43035C30.8344 6.5558 23.541 6.63408 17.1366 9.68649C10.7687 12.7215 5.63316 18.6254 3.81363 26.0584C3.66708 26.6559 4.03281 27.2582 4.6299 27.4043C4.71905 27.4261 4.8082 27.4365 4.89561 27.4365C5.39659 27.4365 5.85191 27.096 5.97628 26.5876C7.55794 20.1262 12.0885 14.5589 18.0946 11.6961C24.1677 8.80195 31.1458 8.85892 37.8046 11.8422C38.1538 13.3534 39.1249 14.6511 40.4609 15.4173C39.8055 17.8026 39.295 21.423 39.0049 25.7875C38.8871 27.5591 38.8075 29.44 38.7683 31.3874C34.5409 33.8131 31.7568 38.4289 32.1056 43.9419C32.2378 46.025 32.4374 49.1731 29.1575 52.032C26.8148 54.0746 23.3667 54.636 20.1594 53.4975C12.1985 50.6721 6.43943 43.4318 5.48661 35.0517C5.41746 34.4407 4.86473 34.0023 4.25503 34.071C3.64403 34.1406 3.20524 34.692 3.27438 35.303C4.34331 44.7073 10.7413 52.5173 19.4149 55.5958C23.3801 57.0035 27.6737 56.2794 30.6209 53.7102C34.7287 50.1289 34.4678 46.0124 34.3273 43.8006C34.0677 39.6923 35.8581 36.2167 38.7418 34.0619V34.0662C38.7418 39.3391 39.1458 49.6723 40.8453 54.4903C41.0871 55.1766 41.7303 57 43.195 57C44.6601 57 45.3033 55.1766 45.545 54.4903C47.2341 49.7023 47.6481 39.4453 47.6481 34.0662C47.6481 33.3022 47.6416 32.5503 47.629 31.8166C47.9725 31.8118 48.3209 31.8114 48.6736 31.817C50.7819 31.8479 52.6971 30.565 53.4438 28.6216C55.4899 23.2917 51.6868 17.9827 47.2011 14.4854C48.2074 13.4599 48.794 12.0675 48.794 10.5876ZM43.2276 3.24768C44.8336 5.96654 46.5675 9.36251 46.5675 10.5876C46.5675 12.5206 44.9614 13.9701 43.1576 13.9296C41.3633 13.8892 39.8877 12.4249 39.8877 10.5876C39.8877 9.36251 41.6211 5.96654 43.2276 3.24768ZM43.2276 16.154C43.4241 16.154 43.6198 16.1427 43.8134 16.1223C44.3587 18.161 44.8101 21.2682 45.0915 24.9394C43.839 25.1003 42.5518 25.0973 41.2989 24.9312C41.5803 21.2604 42.0325 18.1545 42.5787 16.1157C42.7931 16.141 43.0097 16.154 43.2276 16.154ZM43.195 54.3633C41.3963 50.516 40.9684 38.9282 40.9684 34.0667C40.9684 33.4448 40.9827 32.0754 40.9832 32.0719C41.0088 30.3763 41.0662 28.7298 41.1528 27.1582C41.839 27.2434 42.5331 27.2865 43.2276 27.2865C43.9008 27.2865 44.5735 27.246 45.2385 27.1656C45.3033 28.3515 45.3511 29.5696 45.3811 30.8025C45.4081 31.8471 45.4215 32.9451 45.4215 34.0667C45.4215 39.08 44.9688 50.5699 43.195 54.3633ZM51.365 27.8236C50.9519 28.8986 49.883 29.6109 48.7084 29.5913C48.3261 29.5852 47.9469 29.5852 47.5733 29.5909C47.5303 28.3002 47.4677 27.0295 47.3863 25.8005C47.3859 25.7931 47.3846 25.7857 47.3837 25.7783C47.1363 22.0527 46.7275 18.8698 46.2061 16.5363C50.7118 20.1832 52.6775 24.405 51.365 27.8236Z" fill="#FD7C36"/>
<path id="Vector_6" d="M5.34316 30.7268C5.34316 31.3417 4.84479 31.8401 4.22987 31.8401C3.61538 31.8401 3.11658 31.3417 3.11658 30.7268C3.11658 30.1119 3.61538 29.6135 4.22987 29.6135C4.84479 29.6135 5.34316 30.1119 5.34316 30.7268Z" fill="#FD7C36"/>
</g>
<defs>
<clipPath id="clip0_8_421">
<rect width="57" height="57" fill="white"/>
</clipPath>
</defs>
</svg>
