<svg width="35" height="35" viewBox="0 0 35 35" fill="none" xmlns="http://www.w3.org/2000/svg">
<g id="book(1) 1">
<g id="Group">
<path id="Vector" d="M23.3333 33.1771H11.6667C6.34375 33.1771 3.28125 30.1146 3.28125 24.7917V10.2083C3.28125 4.88541 6.34375 1.82291 11.6667 1.82291H23.3333C28.6562 1.82291 31.7188 4.88541 31.7188 10.2083V24.7917C31.7188 30.1146 28.6562 33.1771 23.3333 33.1771ZM11.6667 4.01041C7.49583 4.01041 5.46875 6.03749 5.46875 10.2083V24.7917C5.46875 28.9625 7.49583 30.9896 11.6667 30.9896H23.3333C27.5042 30.9896 29.5312 28.9625 29.5312 24.7917V10.2083C29.5312 6.03749 27.5042 4.01041 23.3333 4.01041H11.6667Z" fill="#000B33"/>
<path id="Vector_2" d="M13.1249 16.2021C12.877 16.2021 12.6291 16.1583 12.3958 16.0562C11.7249 15.7646 11.302 15.1083 11.302 14.3937V2.91666C11.302 2.31874 11.7978 1.82291 12.3958 1.82291H22.6041C23.202 1.82291 23.6978 2.31874 23.6978 2.91666V14.3791C23.6978 15.1083 23.2749 15.7646 22.6041 16.0417C21.9478 16.3333 21.1749 16.2021 20.6353 15.7062L17.4999 12.8333L14.3645 15.7208C14.0145 16.0417 13.577 16.2021 13.1249 16.2021ZM17.4999 10.5146C17.9374 10.5146 18.3895 10.675 18.7395 10.9958L21.5103 13.5479V4.01041H13.4895V13.5479L16.2603 10.9958C16.6103 10.675 17.0624 10.5146 17.4999 10.5146Z" fill="#000B33"/>
<path id="Vector_3" d="M25.5209 21.5104H19.323C18.7251 21.5104 18.2292 21.0146 18.2292 20.4167C18.2292 19.8187 18.7251 19.3229 19.323 19.3229H25.5209C26.1188 19.3229 26.6147 19.8187 26.6147 20.4167C26.6147 21.0146 26.1188 21.5104 25.5209 21.5104Z" fill="#000B33"/>
<path id="Vector_4" d="M25.5208 27.3438H13.125C12.5271 27.3438 12.0312 26.8479 12.0312 26.25C12.0312 25.6521 12.5271 25.1562 13.125 25.1562H25.5208C26.1188 25.1562 26.6146 25.6521 26.6146 26.25C26.6146 26.8479 26.1188 27.3438 25.5208 27.3438Z" fill="#000B33"/>
</g>
</g>
</svg>
