<svg width="25" height="24" viewBox="0 0 25 24" fill="none" xmlns="http://www.w3.org/2000/svg">
<g clip-path="url(#clip0_583_5785)">
<mask id="mask0_583_5785" style="mask-type:luminance" maskUnits="userSpaceOnUse" x="0" y="0" width="25" height="24">
<path d="M0.5 0H24.5V24H0.5V0Z" fill="white"/>
</mask>
<g mask="url(#mask0_583_5785)">
<path d="M13.5 16H11.5C10.95 16 10.5 15.55 10.5 15H3.51V19C3.51 20.1 4.41 21 5.51 21H19.5C20.6 21 21.5 20.1 21.5 19V15H14.5C14.5 15.55 14.05 16 13.5 16ZM20.5 7H16.5C16.5 4.79 14.71 3 12.5 3C10.29 3 8.5 4.79 8.5 7H4.5C3.4 7 2.5 7.9 2.5 9V12C2.5 13.11 3.39 14 4.5 14H10.5V13C10.5 12.45 10.95 12 11.5 12H13.5C14.05 12 14.5 12.45 14.5 13V14H20.5C21.6 14 22.5 13.1 22.5 12V9C22.5 7.9 21.6 7 20.5 7ZM10.5 7C10.5 5.9 11.4 5 12.5 5C13.6 5 14.5 5.9 14.5 7H10.49H10.5Z" fill="#1C3E77"/>
</g>
</g>
<defs>
<clipPath id="clip0_583_5785">
<rect width="24" height="24" fill="white" transform="translate(0.5)"/>
</clipPath>
</defs>
</svg>
