<svg width="20" height="16" viewBox="0 0 20 16" fill="none" xmlns="http://www.w3.org/2000/svg">
<path d="M19.9782 6.20677L18.0896 14.5518C18.0522 14.7264 17.955 14.8825 17.8149 14.9932C17.6748 15.1039 17.5005 15.1623 17.3219 15.1583H2.61251C2.43398 15.1623 2.25965 15.1039 2.11952 14.9932C1.9794 14.8825 1.88225 14.7264 1.84479 14.5518L0.0176287 6.20677C-0.0131212 6.06576 -0.00350242 5.91895 0.0453817 5.78316C0.0942659 5.64737 0.180435 5.52811 0.294006 5.43906C0.407889 5.34969 0.54472 5.29434 0.688709 5.2794C0.832698 5.26445 0.977977 5.29053 1.10778 5.35461L5.59124 7.52724L9.30698 0.955598C9.37394 0.837449 9.47104 0.739175 9.58838 0.670802C9.70572 0.60243 9.83909 0.566406 9.9749 0.566406C10.1107 0.566406 10.2441 0.60243 10.3614 0.670802C10.4788 0.739175 10.5759 0.837449 10.6428 0.955598L14.3586 7.53492L18.8727 5.34693C19.0035 5.27763 19.1514 5.24758 19.2988 5.26041C19.4463 5.27324 19.5868 5.32839 19.7036 5.41924C19.8204 5.51008 19.9085 5.63274 19.9572 5.77246C20.0059 5.91218 20.0132 6.063 19.9782 6.20677Z" fill="white"/>
</svg>
