<svg width="50" height="50" viewBox="0 0 50 50" fill="none" xmlns="http://www.w3.org/2000/svg">
<g id="test 1">
<g id="Group">
<g id="Group_2">
<path id="Vector" d="M28.9062 22.6562C28.3672 22.6562 27.9297 23.0938 27.9297 23.6328C27.9297 24.1719 28.3672 24.6094 28.9062 24.6094C29.4453 24.6094 29.8828 24.1719 29.8828 23.6328C29.8828 23.0938 29.4453 22.6562 28.9062 22.6562Z" fill="#FC4F55"/>
</g>
</g>
<g id="Group_3">
<g id="Group_4">
<path id="Vector_2" d="M25 16.7969C24.4609 16.7969 24.0234 17.2344 24.0234 17.7734C24.0234 18.3125 24.4609 18.75 25 18.75C25.5391 18.75 25.9766 18.3125 25.9766 17.7734C25.9766 17.2344 25.5391 16.7969 25 16.7969Z" fill="#FC4F55"/>
</g>
</g>
<g id="Group_5">
<g id="Group_6">
<path id="Vector_3" d="M13.2812 42.1875C12.7422 42.1875 12.3047 42.625 12.3047 43.1641C12.3047 43.7031 12.7422 44.1406 13.2812 44.1406C13.8203 44.1406 14.2578 43.7031 14.2578 43.1641C14.2578 42.625 13.8203 42.1875 13.2812 42.1875Z" fill="#FC4F55"/>
</g>
</g>
<g id="Group_7">
<g id="Group_8">
<path id="Vector_4" d="M44.3765 39.8123L31.8359 17.5177V5.69199C32.9727 5.28896 33.789 4.20293 33.789 2.92969C33.789 1.31426 32.4747 0 30.8593 0H19.1406C17.5251 0 16.2109 1.31426 16.2109 2.92969C16.2109 4.20293 17.0272 5.28896 18.164 5.69199V17.5177L5.62337 39.8123C4.41946 41.9525 4.44085 44.4958 5.6804 46.6153C6.91985 48.7347 9.12571 50 11.581 50H38.4189C40.8741 50 43.0799 48.7347 44.3195 46.6153C45.559 44.4958 45.5804 41.9525 44.3765 39.8123ZM19.9917 18.2521C20.074 18.1061 20.1171 17.9411 20.1171 17.7734V5.85938H21.0937C21.6329 5.85938 22.0702 5.42207 22.0702 4.88281C22.0702 4.34355 21.6329 3.90625 21.0937 3.90625H19.1406C18.6021 3.90625 18.164 3.46816 18.164 2.92969C18.164 2.39121 18.6021 1.95312 19.1406 1.95312H30.8593C31.3978 1.95312 31.8359 2.39121 31.8359 2.92969C31.8359 3.46816 31.3978 3.90625 30.8593 3.90625H28.9062C28.3669 3.90625 27.9296 4.34355 27.9296 4.88281C27.9296 5.42207 28.3669 5.85938 28.9062 5.85938H29.8827V17.7734C29.8827 17.9412 29.9259 18.106 30.0081 18.2521L35.7641 28.4853C32.249 28.2006 28.746 28.9115 25.5277 30.578C21.3904 32.719 16.7846 33.096 12.4417 31.6744L19.9917 18.2521ZM42.6334 45.6293C41.7482 47.1431 40.1726 48.0469 38.4189 48.0469H11.581C9.82727 48.0469 8.25169 47.1431 7.36643 45.6293C6.48099 44.1153 6.46565 42.2986 7.32571 40.7697L11.4671 33.4072C13.4765 34.1089 15.5531 34.4631 17.6621 34.4631C17.9743 34.4631 18.2873 34.4554 18.6009 34.4398C21.326 34.3049 23.9585 33.5892 26.4255 32.3125C29.7255 30.6039 33.3551 30.0141 36.9512 30.5956L42.6742 40.7697C43.5342 42.2986 43.519 44.1153 42.6334 45.6293Z" fill="#FC4F55"/>
</g>
</g>
<g id="Group_9">
<g id="Group_10">
<path id="Vector_5" d="M21.0938 22.6562C19.4783 22.6562 18.1641 23.9705 18.1641 25.5859C18.1641 27.2014 19.4783 28.5156 21.0938 28.5156C22.7092 28.5156 24.0234 27.2014 24.0234 25.5859C24.0234 23.9705 22.7092 22.6562 21.0938 22.6562ZM21.0938 26.5625C20.5553 26.5625 20.1172 26.1244 20.1172 25.5859C20.1172 25.0475 20.5553 24.6094 21.0938 24.6094C21.6322 24.6094 22.0703 25.0475 22.0703 25.5859C22.0703 26.1244 21.6322 26.5625 21.0938 26.5625Z" fill="#FC4F55"/>
</g>
</g>
<g id="Group_11">
<g id="Group_12">
<path id="Vector_6" d="M36.7188 42.1875H17.1875C16.6482 42.1875 16.2109 42.6248 16.2109 43.1641C16.2109 43.7033 16.6482 44.1406 17.1875 44.1406H36.7188C37.258 44.1406 37.6953 43.7033 37.6953 43.1641C37.6953 42.6248 37.258 42.1875 36.7188 42.1875Z" fill="#FC4F55"/>
</g>
</g>
</g>
</svg>
