<svg width="54" height="54" viewBox="0 0 54 54" fill="none" xmlns="http://www.w3.org/2000/svg">
<g id="web-design 1">
<g id="Group">
<path id="Vector" d="M47.163 7.02239H46.5223C47.7436 5.03403 47.2926 2.36456 45.3325 0.910281C43.2206 -0.656532 40.2193 -0.152191 38.7454 2.05038L35.4184 7.0225H6.8372C4.48793 7.0225 2.57666 8.93377 2.57666 11.283V38.5223C2.57666 40.8716 4.48793 42.7829 6.8372 42.7829H23.3864L22.136 48.0348H19.4372C17.6783 48.0348 16.2474 49.4657 16.2474 51.2245V51.8906H12.9204C12.3379 51.8906 11.8657 52.3628 11.8657 52.9452C11.8657 53.5276 12.3379 53.9999 12.9204 53.9999H41.0799C41.6624 53.9999 42.1346 53.5276 42.1346 52.9452C42.1346 52.3628 41.6624 51.8906 41.0799 51.8906H37.753V51.2245C37.753 49.4657 36.322 48.0348 34.5631 48.0348H31.8643L30.6139 42.7829H47.1631C49.5124 42.7829 51.4237 40.8716 51.4237 38.5223V32.5287V11.2829C51.4237 8.93366 49.5124 7.02239 47.163 7.02239ZM32.0515 25.5633C30.4026 26.7177 27.3133 25.1486 24.3632 26.7228C23.6434 22.9835 24.0972 19.4667 27.8439 18.6905C28.3281 18.5896 28.8495 18.5439 29.2933 18.5527C30.5614 19.4936 31.8441 20.4452 33.1086 21.3836C33.6622 22.9938 33.4545 24.5813 32.0515 25.5633ZM33.1144 14.2586L36.0999 16.4736L33.804 19.2728C32.8588 18.5715 32.0463 17.9687 31.1011 17.2673C31.2973 16.974 32.935 14.5266 33.1144 14.2586ZM40.4986 3.22348C41.2974 2.02949 42.9265 1.75169 44.0757 2.60439C45.2253 3.4572 45.4312 5.09678 44.5202 6.20745C42.904 8.17789 39.0614 12.8628 37.439 14.8408L34.2887 12.5035L40.4986 3.22348ZM35.6435 51.2245V51.8906H18.3567V51.2245C18.3567 50.6289 18.8414 50.1441 19.4372 50.1441H34.563C35.1588 50.1441 35.6435 50.6289 35.6435 51.2245ZM29.6959 48.0348H24.3043L25.5547 42.7829H28.4455L29.6959 48.0348ZM49.3143 38.5223C49.3143 39.7085 48.3493 40.6735 47.1631 40.6735C45.4889 40.6735 8.71967 40.6735 6.8373 40.6735C5.65112 40.6735 4.6861 39.7085 4.6861 38.5223V33.5833H7.69992C8.28241 33.5833 8.75458 33.1111 8.75458 32.5287C8.75458 31.9463 8.28241 31.474 7.69992 31.474H4.68589V11.2829C4.68589 10.0967 5.65091 9.13173 6.83709 9.13173H34.0069C32.9965 10.6417 30.0488 15.0468 29.1151 16.442C27.0483 16.4607 24.9848 17.1807 23.634 18.7577C21.7959 20.9034 21.4729 24.2749 22.6742 28.7786C22.8795 29.5487 23.8404 29.8246 24.4219 29.2692C27.1489 26.6635 30.5454 29.5058 33.5869 27.044C35.4436 25.5411 35.8829 23.1518 35.1828 20.9176C36.1292 19.7638 43.9011 10.2883 44.8497 9.13173H47.1629C48.3491 9.13173 49.3141 10.0967 49.3141 11.2829V31.4739H16.137C15.5545 31.4739 15.0824 31.9462 15.0824 32.5286C15.0824 33.1109 15.5545 33.5832 16.137 33.5832H49.3143V38.5223Z" fill="#7260EB"/>
<path id="Vector_2" d="M11.7149 31.4944C11.2072 31.5981 10.8669 32.037 10.8669 32.5291C10.8669 33.1888 11.4701 33.694 12.1273 33.5627C12.7113 33.4442 13.067 32.8814 12.9552 32.3224C12.8378 31.7455 12.2782 31.381 11.7149 31.4944Z" fill="#7260EB"/>
</g>
</g>
</svg>
