<svg width="21" height="22" viewBox="0 0 21 22" fill="none" xmlns="http://www.w3.org/2000/svg">
<path d="M4.84773 17.5801C4.31398 17.5801 3.81523 17.3962 3.45648 17.055C3.00148 16.6263 2.78273 15.9787 2.86148 15.2787L3.18523 12.4437C3.24648 11.91 3.57023 11.2013 3.94648 10.8162L11.1302 3.21254C12.924 1.31379 14.7965 1.26129 16.6952 3.05504C18.594 4.84879 18.6465 6.72129 16.8527 8.62004L9.66899 16.2237C9.30149 16.6175 8.61898 16.985 8.08523 17.0726L5.26773 17.5538C5.11898 17.5625 4.98773 17.5801 4.84773 17.5801ZM13.939 3.04629C13.2652 3.04629 12.679 3.46629 12.084 4.09629L4.90023 11.7088C4.72523 11.8926 4.52398 12.3301 4.48898 12.5838L4.16523 15.4187C4.13023 15.7075 4.20023 15.9437 4.35773 16.0925C4.51523 16.2413 4.75148 16.2937 5.04023 16.25L7.85773 15.7688C8.11148 15.7251 8.53148 15.4975 8.70648 15.3138L15.8902 7.71004C16.9752 6.55504 17.369 5.48754 15.7852 4.00004C15.0852 3.32629 14.4815 3.04629 13.939 3.04629Z" fill="#8C8FA8"/>
<path d="M15.1729 10.0811C15.1554 10.0811 15.1291 10.0811 15.1116 10.0811C12.3816 9.80982 10.1854 7.73612 9.76538 5.02362C9.71288 4.66487 9.95788 4.33237 10.3166 4.27112C10.6754 4.21862 11.0079 4.46362 11.0691 4.82237C11.4016 6.93987 13.1166 8.56737 15.2516 8.77737C15.6104 8.81237 15.8729 9.13612 15.8379 9.49482C15.7941 9.82732 15.5054 10.0811 15.1729 10.0811Z" fill="#8C8FA8"/>
<path d="M18.375 20.4062H2.625C2.26625 20.4062 1.96875 20.1087 1.96875 19.75C1.96875 19.3913 2.26625 19.0938 2.625 19.0938H18.375C18.7337 19.0938 19.0312 19.3913 19.0312 19.75C19.0312 20.1087 18.7337 20.4062 18.375 20.4062Z" fill="#8C8FA8"/>
</svg>
