<svg width="54" height="54" viewBox="0 0 54 54" fill="none" xmlns="http://www.w3.org/2000/svg">
<g id="school 1">
<path id="Vector" d="M49.7812 20.309V18.6215C49.7818 18.272 49.7118 17.926 49.5756 17.6042C49.4393 17.2823 49.2395 16.9913 48.9881 16.7484C48.7341 16.5078 48.4346 16.3204 48.1071 16.1972C47.7797 16.0741 47.4309 16.0176 47.0812 16.0312C43.9683 16.1155 40.866 16.4314 37.8 16.9762L36.6862 17.1956C36.4471 14.8278 35.3506 12.6292 33.6031 11.0137C31.8557 9.39816 29.5779 8.47724 27.1987 8.42435C24.8194 8.37145 22.503 9.19023 20.6854 10.7265C18.8679 12.2628 17.6747 14.4105 17.3306 16.7653C17.3306 16.9172 17.3306 17.0606 17.3306 17.204C13.8991 16.5212 10.4162 16.1289 6.91875 16.0312C6.56852 16.0211 6.21982 16.0812 5.89319 16.208C5.56657 16.3348 5.26864 16.5257 5.01699 16.7695C4.76534 17.0133 4.56506 17.305 4.42796 17.6274C4.29087 17.9499 4.21973 18.2965 4.21875 18.6469V20.3344C3.26585 20.5289 2.40942 21.0466 1.7944 21.8C1.17938 22.5534 0.843552 23.4962 0.84375 24.4687V48.0937C0.84375 49.2126 1.28822 50.2857 2.07939 51.0768C2.47114 51.4686 2.93621 51.7793 3.44805 51.9914C3.9599 52.2034 4.50849 52.3125 5.0625 52.3125H48.9375C50.0564 52.3125 51.1294 51.868 51.9206 51.0768C52.7118 50.2857 53.1562 49.2126 53.1562 48.0937V24.4687C53.1623 23.4918 52.8291 22.5431 52.2136 21.7845C51.5981 21.0259 50.7384 20.5044 49.7812 20.309ZM19.0181 17.0015C19.2864 15.2479 20.1225 13.6306 21.3981 12.3976C22.6737 11.1647 24.3185 10.3841 26.0803 10.1756C26.3857 10.142 26.6927 10.1251 27 10.125C28.9825 10.1202 30.8956 10.8542 32.3663 12.1837C33.2515 12.9748 33.9511 13.9515 34.4153 15.0442C34.8796 16.1369 35.0968 17.3186 35.0517 18.5049C35.0066 19.6912 34.7001 20.853 34.1543 21.9072C33.6084 22.9614 32.8365 23.8822 31.8937 24.6037C31.1788 25.1338 30.597 25.8229 30.1942 26.6166C29.7915 27.4103 29.579 28.2869 29.5734 29.1769C29.5712 29.4939 29.4443 29.7974 29.2201 30.0216C28.9959 30.2458 28.6924 30.3728 28.3753 30.375H27.8438V24.4687C27.8441 24.2716 27.7755 24.0805 27.6497 23.9287L24.5784 20.25H29.1769L27.6666 21.7603C27.5283 21.9217 27.4561 22.1293 27.4643 22.3417C27.4725 22.554 27.5605 22.7555 27.7108 22.9057C27.8611 23.056 28.0625 23.144 28.2749 23.1522C28.4872 23.1604 28.6948 23.0882 28.8563 22.95L31.8094 19.9969C31.925 19.8789 32.0035 19.7297 32.0351 19.5675C32.0667 19.4054 32.05 19.2376 31.9871 19.0849C31.9242 18.9322 31.8179 18.8013 31.6813 18.7084C31.5447 18.6155 31.3839 18.5648 31.2188 18.5625H22.7812C22.6208 18.5622 22.4636 18.6077 22.328 18.6937C22.1925 18.7796 22.0843 18.9024 22.0161 19.0476C21.9479 19.1929 21.9226 19.3546 21.943 19.5137C21.9635 19.6729 22.0289 19.8229 22.1316 19.9462L26.1562 24.7725V30.375H25.6247C25.4655 30.375 25.3079 30.3435 25.161 30.2823C25.0141 30.2212 24.8807 30.1315 24.7685 30.0186C24.6564 29.9057 24.5677 29.7717 24.5075 29.6243C24.4474 29.4769 24.417 29.3191 24.4181 29.16C24.4083 28.2711 24.193 27.3964 23.789 26.6046C23.385 25.8127 22.8033 25.125 22.0894 24.5953C20.9426 23.7221 20.0522 22.5561 19.5118 21.2198C18.9713 19.8836 18.8008 18.4265 19.0181 17.0015ZM5.90625 18.6469C5.9073 18.5217 5.93342 18.398 5.98309 18.2831C6.03275 18.1682 6.10495 18.0644 6.19541 17.9779C6.28586 17.8914 6.39275 17.8239 6.50974 17.7793C6.62674 17.7348 6.75147 17.7142 6.87656 17.7187C10.3753 17.816 13.859 18.2168 17.2884 18.9169C17.3853 20.2895 17.775 21.6255 18.4314 22.835C19.0878 24.0444 19.9956 25.0992 21.0938 25.9284C21.6068 26.3009 22.0263 26.7874 22.3191 27.3497C22.612 27.9119 22.7702 28.5346 22.7812 29.1684C22.7811 29.9273 23.0791 30.6558 23.6109 31.1971C24.1428 31.7385 24.8659 32.0492 25.6247 32.0625H28.3753C28.7572 32.0614 29.1351 31.9849 29.4874 31.8375C29.8396 31.6901 30.1594 31.4746 30.4282 31.2034C30.6971 30.9322 30.9098 30.6106 31.0541 30.2571C31.1984 29.9035 31.2716 29.525 31.2694 29.1431C31.2831 28.5145 31.4426 27.8976 31.7355 27.3412C32.0283 26.7848 32.4464 26.304 32.9569 25.9369C34.0498 25.1027 34.9523 24.0451 35.6041 22.8346C36.2559 21.6241 36.6421 20.2885 36.7369 18.9169L38.1375 18.6384C41.106 18.1105 44.1095 17.8031 47.1234 17.7187C47.25 17.7122 47.3766 17.733 47.4945 17.7795C47.6124 17.8261 47.7189 17.8975 47.8069 17.9887C47.8959 18.0753 47.9664 18.179 48.0143 18.2935C48.0621 18.4081 48.0863 18.5312 48.0853 18.6553V45.4781C48.0856 45.7171 47.9936 45.947 47.8286 46.1199C47.6635 46.2928 47.4381 46.3954 47.1994 46.4062C40.5769 46.4948 34.023 47.7604 27.8438 50.144V35.4375H28.6875C28.9113 35.4375 29.1259 35.3486 29.2841 35.1904C29.4424 35.0321 29.5312 34.8175 29.5312 34.5937C29.5312 34.37 29.4424 34.1553 29.2841 33.9971C29.1259 33.8389 28.9113 33.75 28.6875 33.75H25.3125C25.0887 33.75 24.8741 33.8389 24.7159 33.9971C24.5576 34.1553 24.4688 34.37 24.4688 34.5937C24.4688 34.8175 24.5576 35.0321 24.7159 35.1904C24.8741 35.3486 25.0887 35.4375 25.3125 35.4375H26.1562V50.1525C19.9785 47.7625 13.424 46.4939 6.80063 46.4062C6.56037 46.3975 6.33288 46.2959 6.16605 46.1227C5.99923 45.9496 5.90609 45.7185 5.90625 45.4781V18.6469ZM2.53125 48.0937V24.4687C2.53272 23.9465 2.69568 23.4375 2.99779 23.0115C3.2999 22.5855 3.72638 22.2634 4.21875 22.0894V45.4781C4.2226 46.1562 4.48794 46.8066 4.95949 47.2939C5.43104 47.7811 6.07242 48.0677 6.75 48.0937C12.0472 48.2194 17.3021 49.0711 22.3678 50.625H5.0625C4.39117 50.625 3.74734 50.3583 3.27264 49.8836C2.79793 49.4089 2.53125 48.7651 2.53125 48.0937ZM51.4688 48.0937C51.4688 48.7651 51.2021 49.4089 50.7274 49.8836C50.2527 50.3583 49.6088 50.625 48.9375 50.625H31.6237C36.6922 49.0703 41.95 48.2186 47.25 48.0937C47.9276 48.0677 48.569 47.7811 49.0405 47.2939C49.5121 46.8066 49.7774 46.1562 49.7812 45.4781V22.064C50.2777 22.2396 50.7071 22.5655 51.0095 22.9965C51.312 23.4276 51.4725 23.9422 51.4688 24.4687V48.0937Z" fill="#FC5157"/>
<path id="Vector_2" d="M9.22219 22.7812C10.3359 22.8572 11.4581 22.9584 12.555 23.0934H12.6563C12.88 23.1069 13.1 23.0308 13.2677 22.8821C13.4354 22.7334 13.5372 22.5241 13.5506 22.3003C13.5641 22.0765 13.488 21.8566 13.3393 21.6889C13.1906 21.5211 12.9813 21.4194 12.7575 21.4059C11.6353 21.2709 10.4794 21.1612 9.34032 21.0853C9.11654 21.0708 8.89615 21.1457 8.72763 21.2937C8.55911 21.4416 8.45627 21.6504 8.44172 21.8742C8.42718 22.098 8.50212 22.3184 8.65007 22.4869C8.79802 22.6554 9.00685 22.7583 9.23063 22.7728L9.22219 22.7812Z" fill="#FC5157"/>
<path id="Vector_3" d="M9.22219 26.2659C11.2806 26.4002 13.3307 26.6396 15.3647 26.9831H15.5081C15.6189 26.9925 15.7305 26.98 15.8365 26.9463C15.9425 26.9126 16.0407 26.8584 16.1258 26.7867C16.2108 26.715 16.2808 26.6273 16.3319 26.5285C16.383 26.4297 16.4142 26.3219 16.4236 26.2111C16.433 26.1003 16.4205 25.9887 16.3868 25.8827C16.3531 25.7768 16.2989 25.6785 16.2272 25.5935C16.1555 25.5084 16.0678 25.4384 15.969 25.3873C15.8702 25.3362 15.7624 25.305 15.6516 25.2956C13.5618 24.941 11.4553 24.6932 9.34032 24.5531C9.11654 24.5386 8.89615 24.6135 8.72763 24.7615C8.55911 24.9094 8.45627 25.1182 8.44172 25.342C8.42718 25.5658 8.50212 25.7862 8.65007 25.9547C8.79802 26.1232 9.00685 26.2261 9.23063 26.2406L9.22219 26.2659Z" fill="#FC5157"/>
<path id="Vector_4" d="M8.43755 31.2778C8.42366 31.5003 8.49839 31.7193 8.64542 31.8868C8.79245 32.0544 8.99982 32.157 9.22224 32.1722C13.7351 32.4487 18.1991 33.2616 22.5197 34.5937C22.7334 34.6609 22.9651 34.6404 23.1637 34.5367C23.3622 34.4331 23.5115 34.2548 23.5786 34.0411C23.6458 33.8274 23.6253 33.5958 23.5216 33.3972C23.418 33.1986 23.2397 33.0493 23.026 32.9822C18.5779 31.5982 13.9809 30.7485 9.33193 30.4509C9.21835 30.4441 9.10456 30.4603 8.9974 30.4986C8.89024 30.5368 8.79193 30.5964 8.70838 30.6736C8.62483 30.7509 8.55777 30.8442 8.51123 30.948C8.46468 31.0519 8.43962 31.164 8.43755 31.2778Z" fill="#FC5157"/>
<path id="Vector_5" d="M23.0344 37.125C18.5862 35.7411 13.9892 34.8914 9.34032 34.5938C9.22951 34.5866 9.11838 34.6013 9.01325 34.637C8.90813 34.6727 8.81107 34.7289 8.72763 34.8021C8.55911 34.9501 8.45627 35.1589 8.44172 35.3827C8.42718 35.6064 8.50212 35.8268 8.65007 35.9954C8.79802 36.1639 9.00685 36.2667 9.23063 36.2813C13.7439 36.5606 18.2078 37.3763 22.5281 38.7113C22.726 38.7403 22.9278 38.6981 23.0975 38.5922C23.2671 38.4863 23.3936 38.3235 23.4545 38.133C23.5153 37.9424 23.5064 37.7365 23.4295 37.5519C23.3525 37.3673 23.2125 37.216 23.0344 37.125Z" fill="#FC5157"/>
<path id="Vector_6" d="M23.0344 41.3438C18.5863 39.9598 13.9893 39.11 9.34032 38.8125C9.11654 38.798 8.89615 38.8729 8.72763 39.0209C8.55911 39.1688 8.45627 39.3776 8.44172 39.6014C8.42718 39.8252 8.50212 40.0456 8.65007 40.2141C8.79802 40.3826 9.00685 40.4855 9.23063 40.5C13.7451 40.8128 18.2063 41.6626 22.5197 43.0313C22.7435 43.0995 22.9852 43.0761 23.1917 42.9661C23.3982 42.8561 23.5525 42.6686 23.6208 42.4449C23.689 42.2211 23.6656 41.9794 23.5556 41.7729C23.4457 41.5664 23.2582 41.412 23.0344 41.3438Z" fill="#FC5157"/>
<path id="Vector_7" d="M31.2188 34.6444C31.3027 34.6571 31.388 34.6571 31.4719 34.6444C35.7922 33.3094 40.2561 32.4936 44.7694 32.2144C44.9932 32.1998 45.202 32.097 45.35 31.9285C45.4979 31.7599 45.5728 31.5396 45.5583 31.3158C45.5438 31.092 45.4409 30.8832 45.2724 30.7352C45.1039 30.5873 44.8835 30.5123 44.6597 30.5269C40.0108 30.8244 35.4138 31.6741 30.9656 33.0581C30.8548 33.0747 30.7484 33.113 30.6524 33.1708C30.5564 33.2285 30.4727 33.3046 30.4061 33.3947C30.2716 33.5767 30.2149 33.8047 30.2485 34.0284C30.282 34.2522 30.4031 34.4535 30.5851 34.588C30.767 34.7225 30.995 34.7792 31.2188 34.7456V34.6444Z" fill="#FC5157"/>
<path id="Vector_8" d="M31.2188 38.7534C31.3027 38.7662 31.388 38.7662 31.4719 38.7534C35.7905 37.4042 40.2544 36.5743 44.7694 36.2813C44.8802 36.2741 44.9885 36.2451 45.0881 36.196C45.1877 36.147 45.2767 36.0788 45.35 35.9954C45.4232 35.9119 45.4793 35.8149 45.5151 35.7097C45.5508 35.6046 45.5655 35.4935 45.5583 35.3827C45.5511 35.2719 45.5221 35.1636 45.4731 35.064C45.424 34.9643 45.3558 34.8754 45.2724 34.8021C45.1889 34.7289 45.0919 34.6727 44.9868 34.637C44.8816 34.6013 44.7705 34.5866 44.6597 34.5938C40.0108 34.8914 35.4138 35.7411 30.9656 37.125C30.7419 37.1586 30.5406 37.2797 30.4061 37.4616C30.2716 37.6436 30.2149 37.8715 30.2485 38.0953C30.282 38.3191 30.4031 38.5204 30.5851 38.6549C30.767 38.7894 30.995 38.8461 31.2188 38.8125V38.7534Z" fill="#FC5157"/>
<path id="Vector_9" d="M31.2188 43.0312C31.3027 43.044 31.388 43.044 31.4719 43.0312C35.7922 41.6962 40.2561 40.8805 44.7694 40.6012C44.9932 40.5867 45.202 40.4838 45.35 40.3153C45.4979 40.1468 45.5728 39.9264 45.5583 39.7026C45.5438 39.4789 45.4409 39.27 45.2724 39.1221C45.1039 38.9741 44.8835 38.8992 44.6597 38.9137C40.0149 39.1784 35.4179 39.9941 30.9656 41.3437C30.7419 41.3773 30.5406 41.4984 30.4061 41.6804C30.2716 41.8623 30.2149 42.0903 30.2485 42.3141C30.282 42.5378 30.4031 42.7391 30.5851 42.8736C30.767 43.0081 30.995 43.0648 31.2188 43.0312Z" fill="#FC5157"/>
<path id="Vector_10" d="M27 5.90625C27.2238 5.90625 27.4384 5.81736 27.5966 5.65912C27.7549 5.50089 27.8438 5.28628 27.8438 5.0625V1.6875C27.8438 1.46372 27.7549 1.24911 27.5966 1.09088C27.4384 0.932645 27.2238 0.84375 27 0.84375C26.7762 0.84375 26.5616 0.932645 26.4034 1.09088C26.2451 1.24911 26.1562 1.46372 26.1562 1.6875V5.0625C26.1562 5.28628 26.2451 5.50089 26.4034 5.65912C26.5616 5.81736 26.7762 5.90625 27 5.90625Z" fill="#FC5157"/>
<path id="Vector_11" d="M32.9654 8.37844C33.0764 8.37908 33.1865 8.35779 33.2893 8.31581C33.3921 8.27382 33.4856 8.21195 33.5644 8.13375L35.9522 5.74594C36.0905 5.58453 36.1627 5.3769 36.1545 5.16455C36.1463 4.9522 36.0583 4.75076 35.908 4.60049C35.7577 4.45022 35.5563 4.36219 35.3439 4.35399C35.1316 4.34579 34.924 4.41802 34.7625 4.55625L32.3663 6.93562C32.2473 7.05364 32.1661 7.20442 32.1332 7.36874C32.1002 7.53306 32.1169 7.70347 32.1812 7.85825C32.2455 8.01303 32.3544 8.14517 32.494 8.23781C32.6337 8.33046 32.7978 8.37941 32.9654 8.37844Z" fill="#FC5157"/>
<path id="Vector_12" d="M20.4357 8.13376C20.5971 8.27199 20.8047 8.34422 21.017 8.33602C21.2294 8.32782 21.4308 8.23979 21.5811 8.08952C21.7314 7.93925 21.8194 7.73782 21.8276 7.52546C21.8358 7.31311 21.7636 7.10549 21.6253 6.94408L19.246 4.54783C19.0846 4.4096 18.8769 4.33737 18.6646 4.34557C18.4522 4.35377 18.2508 4.4418 18.1005 4.59207C17.9503 4.74234 17.8622 4.94377 17.854 5.15612C17.8458 5.36848 17.9181 5.5761 18.0563 5.73751L20.4357 8.13376Z" fill="#FC5157"/>
</g>
</svg>
