<svg width="37" height="37" viewBox="0 0 37 37" fill="none" xmlns="http://www.w3.org/2000/svg">
<g id="marker(1) 1" clip-path="url(#clip0_8_469)">
<g id="Group">
<path id="Vector" d="M5.01876 25.2732L8.74389 12.5013C8.75567 12.4578 8.7702 12.415 8.7874 12.373C8.85142 12.2152 8.94754 12.0825 9.06446 11.9776L19.907 1.13494C20.332 0.709945 21.0211 0.709945 21.446 1.13494C21.871 1.55993 21.871 2.24891 21.446 2.6739L11.3332 12.7867L25.0294 26.4829L35.1422 16.3701C35.5672 15.9451 36.2562 15.9451 36.6812 16.3701C37.1062 16.7951 37.1062 17.4841 36.6812 17.9091L25.8387 28.7517C25.7338 28.8686 25.6009 28.9648 25.4433 29.0288C25.4013 29.046 25.3583 29.0605 25.3149 29.0723L12.543 32.7974L9.47551 35.8649C9.12849 36.212 8.59221 36.2838 8.16613 36.0403L0.548424 31.6874C-0.0745756 31.3314 -0.188538 30.4804 0.318837 29.9731L5.01876 25.2732ZM12.2845 30.6057L22.9604 27.4919L10.3243 14.8559L7.21049 25.5316L12.2845 30.6057ZM10.4316 31.8308L5.98538 27.3845L2.86532 30.5047L8.52421 33.7383L10.4316 31.8308Z" fill="#000B33"/>
</g>
</g>
<defs>
<clipPath id="clip0_8_469">
<rect width="37" height="37" fill="white"/>
</clipPath>
</defs>
</svg>
