<svg width="23" height="23" viewBox="0 0 23 23" fill="none" xmlns="http://www.w3.org/2000/svg">
<path d="M20.161 0H5.00435C3.43891 0 2.16528 1.27363 2.16528 2.83906V20.161C2.16528 21.7264 3.43891 23 5.0043 23H20.1609C20.5331 23 20.8348 22.6983 20.8348 22.3262V17.9957V0.673828C20.8348 0.301695 20.5332 0 20.161 0ZM3.51298 2.83906C3.51298 2.01672 4.1821 1.34766 5.00435 1.34766H19.4872V17.3219H5.00435C4.45756 17.3219 3.94675 17.4777 3.51298 17.7466V2.83906ZM5.00439 21.6523C4.18201 21.6523 3.51298 20.9833 3.51298 20.161C3.51298 19.3386 4.18201 18.6696 5.00435 18.6696H19.4872V21.6523H5.00439Z" fill="#8C8FA8"/>
<path d="M15.8304 4.33043H7.16943C6.79735 4.33043 6.49561 4.63212 6.49561 5.00426C6.49561 5.37639 6.79735 5.67809 7.16943 5.67809H15.8304C16.2026 5.67809 16.5042 5.37639 16.5042 5.00426C16.5042 4.63212 16.2025 4.33043 15.8304 4.33043Z" fill="#8C8FA8"/>
</svg>
