<svg width="46" height="46" viewBox="0 0 46 46" fill="none" xmlns="http://www.w3.org/2000/svg">
<g id="book 2" clip-path="url(#clip0_8_366)">
<path id="Vector" d="M6.60563 40.5239H4.41528V5.47606C4.41528 2.45065 6.86593 0 9.89134 0H41.6535V19.7143H39.4628V2.19034H9.89134C8.08444 2.19034 6.60563 3.66915 6.60563 5.47606V40.5239Z" fill="#FD7C36"/>
<path id="Vector_2" d="M41.6535 46H9.89134C6.86593 46 4.41528 43.5494 4.41528 40.524C4.41528 37.4981 6.86593 35.0475 9.89134 35.0475H39.4628V18.6189H41.6535V37.2382H9.89134C8.08444 37.2382 6.60563 38.7167 6.60563 40.524C6.60563 42.3309 8.08444 43.8097 9.89134 43.8097H41.6535V46Z" fill="#FD7C36"/>
<path id="Vector_3" d="M36.1769 17.8524L30.1533 15.1828L24.1294 17.8524V1.09537H26.3197V14.4845L30.1533 12.7871L33.9865 14.4845V1.09537H36.1769V17.8524Z" fill="#FD7C36"/>
</g>
<defs>
<clipPath id="clip0_8_366">
<rect width="46" height="46" fill="white"/>
</clipPath>
</defs>
</svg>
