<svg width="26" height="26" viewBox="0 0 26 26" fill="none" xmlns="http://www.w3.org/2000/svg">
<g id="internet 1">
<g id="Layer 2">
<path id="Vector" d="M22.8688 19.0403C23.9841 17.2232 24.5731 15.1322 24.5702 13.0001V12.9997C24.5731 10.8676 23.9841 8.77658 22.8688 6.95949L22.8624 6.94957C21.8277 5.26305 20.3777 3.87006 18.6511 2.90371C16.9245 1.93736 14.9789 1.42994 13.0002 1.42993C11.0216 1.42992 9.07596 1.93733 7.34933 2.90366C5.62269 3.87 4.17272 5.26297 3.13795 6.94949L3.13152 6.95953C2.01894 8.77788 1.43018 10.8682 1.43018 12.9999C1.43017 15.1316 2.01891 17.2219 3.13148 19.0403L3.13801 19.0505C4.17279 20.7369 5.62276 22.1299 7.34938 23.0962C9.076 24.0625 11.0216 24.5699 13.0002 24.5699C14.9789 24.5699 16.9244 24.0625 18.651 23.0962C20.3777 22.1298 21.8276 20.7369 22.8624 19.0504L22.8688 19.0403ZM14.4791 22.587C14.2586 22.7997 14.0048 22.975 13.7278 23.1058C13.5005 23.2139 13.2519 23.2699 13.0002 23.2699C12.7484 23.2699 12.4999 23.2139 12.2725 23.1058C11.7453 22.8366 11.2941 22.4395 10.96 21.9508C10.2777 20.9648 9.772 19.8677 9.46561 18.7085C10.6426 18.636 11.8208 18.5991 13.0002 18.5978C14.1791 18.5978 15.3573 18.6347 16.5349 18.7085C16.3653 19.3045 16.1535 19.8877 15.9011 20.4536C15.5686 21.2496 15.0858 21.9739 14.4791 22.587ZM2.7528 13.6499H7.41954C7.44992 14.9521 7.59107 16.2494 7.84145 17.5276C6.56574 17.6399 5.2933 17.7941 4.02411 17.9902C3.2809 16.6568 2.84645 15.1736 2.7528 13.6499ZM4.0241 8.00969C5.29279 8.20629 6.56568 8.36051 7.84278 8.47234C7.59191 9.75051 7.45045 11.0477 7.41995 12.3499H2.7528C2.84644 10.8263 3.28089 9.34308 4.0241 8.00969ZM11.5213 3.41286C11.7417 3.20012 11.9955 3.02486 12.2725 2.894C12.4999 2.78597 12.7484 2.72992 13.0002 2.72992C13.2519 2.72992 13.5005 2.78597 13.7278 2.894C14.255 3.16327 14.7062 3.56037 15.0403 4.049C15.7227 5.03499 16.2283 6.13212 16.5347 7.29137C15.3577 7.3638 14.1795 7.40069 13.0002 7.40206C11.8213 7.40205 10.643 7.36514 9.4654 7.29136C9.635 6.69532 9.84683 6.11213 10.0993 5.5462C10.4317 4.75028 10.9145 4.02595 11.5213 3.41286ZM23.2476 12.3499H18.5808C18.5504 11.0477 18.4093 9.75049 18.1589 8.47223C19.4346 8.35997 20.7071 8.20579 21.9762 8.00969C22.7195 9.34307 23.1539 10.8263 23.2476 12.3499ZM9.14894 17.4265C8.89471 16.1828 8.75112 14.919 8.71987 13.6499H17.2806C17.2496 14.919 17.1063 16.1828 16.8523 17.4266C15.5697 17.3424 14.2856 17.2995 13.0002 17.2978C11.7156 17.2978 10.4319 17.3407 9.14894 17.4265ZM16.8514 8.57329C17.1056 9.81704 17.2492 11.0809 17.2804 12.3499H8.71973C8.7507 11.0809 8.89402 9.81702 9.14802 8.57323C10.4307 8.65739 11.7147 8.70032 13.0002 8.70204C14.2847 8.70204 15.5684 8.65912 16.8514 8.57329ZM18.5804 13.6499H23.2476C23.1539 15.1736 22.7194 16.6568 21.9762 17.9902C20.7075 17.7935 19.4347 17.6393 18.1576 17.5275C18.4084 16.2493 18.5499 14.9521 18.5804 13.6499ZM21.1968 6.81317C20.0875 6.97321 18.975 7.09992 17.8591 7.19329C17.6585 6.44659 17.3999 5.71673 17.0855 5.01038C16.7984 4.36037 16.4372 3.7457 16.0091 3.17861C18.0781 3.81315 19.8938 5.08522 21.1968 6.81317ZM5.73815 5.73791C6.92503 4.54991 8.38521 3.67118 9.99069 3.17876C9.96633 3.21031 9.94127 3.24046 9.91726 3.27266C9.09205 4.46059 8.49096 5.78938 8.14364 7.19349C7.02769 7.09898 5.91433 6.9722 4.80356 6.81317C5.09004 6.43372 5.40231 6.07445 5.73815 5.73791ZM4.80356 19.1867C5.91279 19.0266 7.02536 18.8999 8.14125 18.8066C8.34181 19.5533 8.60047 20.2831 8.91487 20.9895C9.20192 21.6395 9.5631 22.2541 9.99123 22.8212C7.92218 22.1867 6.10654 20.9146 4.80356 19.1867ZM20.2622 20.2619C19.0753 21.4499 17.6151 22.3287 16.0096 22.8211C16.034 22.7895 16.059 22.7594 16.0831 22.7272C16.9083 21.5393 17.5094 20.2105 17.8567 18.8064C18.9727 18.9009 20.086 19.0276 21.1968 19.1867C20.9103 19.5661 20.598 19.9254 20.2622 20.2619Z" fill="#000B33"/>
</g>
</g>
</svg>
