<svg width="28" height="28" viewBox="0 0 28 28" fill="none" xmlns="http://www.w3.org/2000/svg">
<path d="M24.0522 19.5813V8.41866C24.0518 7.89637 23.914 7.38338 23.6526 6.93122C23.3911 6.47907 23.0153 6.10368 22.5629 5.84275C22.1104 5.58183 21.5973 5.44457 21.075 5.44476C20.5527 5.44495 20.0397 5.58258 19.5874 5.84383L14.7504 8.62749L9.91691 11.4252C9.4654 11.6865 9.09054 12.0619 8.82994 12.5139C8.56934 12.9658 8.43216 13.4783 8.43216 14C8.43216 14.5217 8.56934 15.0342 8.82994 15.4861C9.09054 15.938 9.4654 16.3135 9.91691 16.5748L14.7539 19.3748L19.5909 22.1585C20.0432 22.419 20.5561 22.5559 21.0781 22.5555C21.6001 22.5552 22.1128 22.4176 22.5648 22.1565C23.0168 21.8954 23.3921 21.52 23.6532 21.068C23.9143 20.616 24.0519 20.1033 24.0522 19.5813ZM4.82324 22.0862C4.59118 22.0862 4.36862 21.994 4.20452 21.8299C4.04043 21.6658 3.94824 21.4432 3.94824 21.2112V6.78883C3.94824 6.55676 4.04043 6.3342 4.20452 6.1701C4.36862 6.00601 4.59118 5.91382 4.82324 5.91382C5.05531 5.91382 5.27787 6.00601 5.44196 6.1701C5.60605 6.3342 5.69824 6.55676 5.69824 6.78883V21.2112C5.69824 21.4432 5.60605 21.6658 5.44196 21.8299C5.27787 21.994 5.05531 22.0862 4.82324 22.0862Z" fill="#000B33"/>
</svg>
