<svg width="23" height="23" viewBox="0 0 23 23" fill="none" xmlns="http://www.w3.org/2000/svg">
<path d="M17.6925 14.1538C16.1267 14.1538 14.7591 14.9721 13.9735 16.1991L9.2373 13.4922C9.54248 12.8906 9.73092 12.2209 9.73092 11.5C9.73092 11.055 9.64509 10.634 9.52302 10.2288L14.4512 7.41304C15.2589 8.28885 16.4071 8.84615 17.6925 8.84615C20.1349 8.84615 22.1155 6.86548 22.1155 4.42308C22.1155 1.98067 20.1349 0 17.6925 0C15.2501 0 13.2694 1.98067 13.2694 4.42308C13.2694 4.86806 13.3552 5.2891 13.4772 5.69429L8.54907 8.5109C7.7414 7.63423 6.59317 7.07692 5.30784 7.07692C2.86544 7.07692 0.884766 9.05669 0.884766 11.5C0.884766 13.9424 2.86544 15.9231 5.30784 15.9231C6.3163 15.9231 7.23453 15.5728 7.97848 15.004L7.96169 15.0385L13.3172 18.0992C13.3004 18.2585 13.2694 18.4133 13.2694 18.5769C13.2694 21.0193 15.2501 23 17.6925 23C20.1349 23 22.1155 21.0193 22.1155 18.5769C22.1155 16.1345 20.1349 14.1538 17.6925 14.1538ZM17.6925 1.76923C19.1583 1.76923 20.3463 2.95729 20.3463 4.42308C20.3463 5.88887 19.1583 7.07692 17.6925 7.07692C16.2266 7.07692 15.0386 5.88887 15.0386 4.42308C15.0386 2.95729 16.2266 1.76923 17.6925 1.76923ZM5.30784 14.1538C3.84205 14.1538 2.654 12.9658 2.654 11.5C2.654 10.0342 3.84205 8.84615 5.30784 8.84615C6.77363 8.84615 7.96169 10.0342 7.96169 11.5C7.96169 12.9658 6.77363 14.1538 5.30784 14.1538ZM17.6925 21.2308C16.2266 21.2308 15.0386 20.0427 15.0386 18.5769C15.0386 17.1111 16.2266 15.9231 17.6925 15.9231C19.1583 15.9231 20.3463 17.1111 20.3463 18.5769C20.3463 20.0427 19.1583 21.2308 17.6925 21.2308Z" fill="#000B33"/>
</svg>
