<svg width="26" height="26" viewBox="0 0 26 26" fill="none" xmlns="http://www.w3.org/2000/svg">
<path d="M8.53122 24.366H17.4687C18.6436 24.366 20.0232 23.5698 20.6098 22.5525L25.0786 14.8143C25.675 13.7808 25.675 12.2208 25.0786 11.1865L20.609 3.44824C20.0224 2.43099 18.6428 1.63474 17.4679 1.63474H8.53122C7.35635 1.63474 5.97672 2.43099 5.3901 3.44824L0.921349 11.1865C0.324974 12.22 0.324974 13.78 0.921349 14.8143L5.39091 22.5525C5.97672 23.5698 7.35716 24.366 8.53122 24.366ZM17.4687 3.25892C18.074 3.25892 18.9003 3.73586 19.2026 4.25992L23.6722 11.9982C23.9744 12.5222 23.9744 13.4769 23.6722 14.001L19.2034 21.7392C18.9003 22.2641 18.074 22.7402 17.4695 22.7402H8.53122C7.92591 22.7402 7.0996 22.2633 6.79735 21.7392L2.32779 14.001C2.02554 13.4769 2.02554 12.5222 2.32779 11.9982L6.79654 4.25992C7.0996 3.73505 7.92591 3.25892 8.53041 3.25892H17.4687ZM13 17.8067C15.6512 17.8067 17.8075 15.6504 17.8075 13C17.8075 10.3496 15.6512 8.19323 13 8.19323C10.3488 8.19323 8.19241 10.3496 8.19241 13C8.19241 15.6504 10.3488 17.8067 13 17.8067ZM13 9.81823C14.755 9.81823 16.1825 11.2458 16.1825 13C16.1825 14.7542 14.755 16.1817 13 16.1817C11.245 16.1817 9.81741 14.7542 9.81741 13C9.81741 11.2458 11.245 9.81823 13 9.81823Z" fill="#8C8FA8"/>
</svg>
