<svg width="25" height="19" viewBox="0 0 25 19" fill="none" xmlns="http://www.w3.org/2000/svg">
<path d="M24.6573 4.36265C24.362 4.11055 23.9452 4.05742 23.596 4.22744L18.252 6.829L13.2378 1.04766C13.0523 0.833789 12.7831 0.710938 12.5 0.710938C12.2169 0.710938 11.9478 0.833789 11.7623 1.04766L6.74801 6.82895L1.40406 4.22739C1.0548 4.05742 0.638097 4.1105 0.342687 4.3626C0.0472764 4.6147 -0.0706924 5.01792 0.0422471 5.3895L3.75318 17.5965C3.87823 18.0079 4.25758 18.2891 4.68751 18.2891H20.3125C20.7424 18.2891 21.1218 18.0079 21.2468 17.5966L24.9577 5.38955C25.0707 5.01797 24.9527 4.61475 24.6573 4.36265ZM19.5886 16.3359H5.41129L2.56212 6.96348L6.5671 8.91323C6.96476 9.10679 7.44259 9.00903 7.73229 8.67505L12.5 3.17798L17.2678 8.67505C17.5574 9.00908 18.0354 9.10674 18.4329 8.91323L22.4379 6.96348L19.5886 16.3359Z" fill="#000B33"/>
</svg>
