<svg width="27" height="27" viewBox="0 0 27 27" fill="none" xmlns="http://www.w3.org/2000/svg">
<path d="M19.8226 10.8226H13.9164C13.4551 10.8226 13.0726 10.4401 13.0726 9.97888C13.0726 9.51763 13.4551 9.13513 13.9164 9.13513H19.8226C20.2839 9.13513 20.6664 9.51763 20.6664 9.97888C20.6664 10.4401 20.2951 10.8226 19.8226 10.8226Z" fill="#000B33"/>
<path d="M8.00952 11.6776C7.79577 11.6776 7.58202 11.5989 7.41327 11.4301L6.56952 10.5864C6.24327 10.2601 6.24327 9.72011 6.56952 9.39386C6.89577 9.06761 7.43577 9.06761 7.76202 9.39386L8.00952 9.64136L9.94452 7.70636C10.2708 7.38011 10.8108 7.38011 11.137 7.70636C11.4633 8.03261 11.4633 8.57261 11.137 8.89886L8.60577 11.4301C8.44827 11.5876 8.23452 11.6776 8.00952 11.6776Z" fill="#000B33"/>
<path d="M19.8226 18.6976H13.9164C13.4551 18.6976 13.0726 18.3151 13.0726 17.8539C13.0726 17.3926 13.4551 17.0101 13.9164 17.0101H19.8226C20.2839 17.0101 20.6664 17.3926 20.6664 17.8539C20.6664 18.3151 20.2951 18.6976 19.8226 18.6976Z" fill="#000B33"/>
<path d="M8.00952 19.5526C7.79577 19.5526 7.58202 19.4739 7.41327 19.3051L6.56952 18.4614C6.24327 18.1351 6.24327 17.5951 6.56952 17.2689C6.89577 16.9426 7.43577 16.9426 7.76202 17.2689L8.00952 17.5164L9.94452 15.5814C10.2708 15.2551 10.8108 15.2551 11.137 15.5814C11.4633 15.9076 11.4633 16.4476 11.137 16.7739L8.60577 19.3051C8.44827 19.4626 8.23452 19.5526 8.00952 19.5526Z" fill="#000B33"/>
<path d="M16.875 25.5938H10.125C4.01625 25.5938 1.40625 22.9837 1.40625 16.875V10.125C1.40625 4.01625 4.01625 1.40625 10.125 1.40625H16.875C22.9837 1.40625 25.5938 4.01625 25.5938 10.125V16.875C25.5938 22.9837 22.9837 25.5938 16.875 25.5938ZM10.125 3.09375C4.93875 3.09375 3.09375 4.93875 3.09375 10.125V16.875C3.09375 22.0613 4.93875 23.9062 10.125 23.9062H16.875C22.0613 23.9062 23.9062 22.0613 23.9062 16.875V10.125C23.9062 4.93875 22.0613 3.09375 16.875 3.09375H10.125Z" fill="#000B33"/>
</svg>
