<svg width="28" height="22" viewBox="0 0 28 22" fill="none" xmlns="http://www.w3.org/2000/svg">
<path fill-rule="evenodd" clip-rule="evenodd" d="M28 13.5818V18.7452C28 20.5396 26.561 22 24.792 22H22.0868C21.5736 22 21.1573 21.5775 21.1573 21.0571V11.2696C21.1573 10.7494 21.5736 10.3267 22.0868 10.3267H23.2019C22.7342 5.59412 18.786 1.88724 14.0001 1.88724C9.21409 1.88724 5.26589 5.59412 4.79831 10.3267H5.91338C6.42668 10.3267 6.84273 10.7495 6.84273 11.2696V21.0571C6.84273 21.5775 6.42668 22 5.91338 22H3.20811C1.4391 22 0 20.5397 0 18.7452V13.5818C0 11.882 1.29126 10.4828 2.9309 10.3397C3.39865 4.55986 8.18418 0 14.0001 0C19.8159 0 24.6015 4.55986 25.0693 10.3397C26.7089 10.4828 28 11.882 28 13.5818Z" fill="black"/>
</svg>
