<svg width="22" height="22" viewBox="0 0 22 22" fill="none" xmlns="http://www.w3.org/2000/svg">
<path d="M18.2436 2.33708L2.33703 18.2436L2.33703 13.2956C2.33703 12.708 1.86221 12.2332 1.27469 12.2332C0.687176 12.2332 0.212353 12.708 0.212353 13.2956L0.212355 20.8071C0.211604 21.3773 0.672904 21.8717 1.2762 21.8709L8.7877 21.8709C9.37522 21.8709 9.85004 21.3961 9.85004 20.8086C9.85004 20.221 9.37522 19.7462 8.7877 19.7462L3.83964 19.7462L19.7462 3.83968L19.7462 8.78775C19.7462 9.37527 20.221 9.85009 20.8085 9.85009C21.396 9.85009 21.8709 9.37527 21.8709 8.78775L21.8709 1.27624C21.8716 0.687973 21.3878 0.211648 20.807 0.212399L13.2955 0.212399C12.708 0.212399 12.2332 0.687221 12.2332 1.27474C12.2332 1.86226 12.708 2.33708 13.2955 2.33708L18.2436 2.33708Z" fill="#1C3E77"/>
</svg>
