<svg width="22" height="22" viewBox="0 0 22 22" fill="none" xmlns="http://www.w3.org/2000/svg">
<path d="M1.57782 1.57791C1.64167 1.51399 1.71749 1.46328 1.80095 1.42868C1.88441 1.39408 1.97388 1.37627 2.06423 1.37627C2.15457 1.37627 2.24404 1.39408 2.3275 1.42868C2.41096 1.46328 2.48678 1.51399 2.55063 1.57791L11 10.0273L19.4528 1.57791C19.5818 1.44891 19.7568 1.37643 19.9392 1.37643C20.1217 1.37643 20.2966 1.44891 20.4256 1.57791C20.5546 1.70691 20.6271 1.88188 20.6271 2.06432C20.6271 2.24675 20.5546 2.42172 20.4256 2.55072L11.9728 11.0001L20.4222 19.4529C20.5512 19.5819 20.6237 19.7569 20.6237 19.9393C20.6237 20.1218 20.5512 20.2967 20.4222 20.4257C20.2932 20.5547 20.1182 20.6272 19.9358 20.6272C19.7533 20.6272 19.5784 20.5547 19.4494 20.4257L11 11.9729L2.54719 20.4223C2.41567 20.5349 2.2465 20.5938 2.07347 20.5871C1.90044 20.5804 1.73631 20.5087 1.61387 20.3862C1.49143 20.2638 1.4197 20.0997 1.41302 19.9266C1.40633 19.7536 1.46519 19.5844 1.57782 19.4529L10.0272 11.0001L1.57782 2.54728C1.44977 2.41847 1.3779 2.24422 1.3779 2.0626C1.3779 1.88097 1.44977 1.70672 1.57782 1.57791Z" fill="black"/>
</svg>
