<svg width="21" height="21" viewBox="0 0 21 21" fill="none" xmlns="http://www.w3.org/2000/svg">
<path d="M12.7804 4.83184H4.35928C4.02464 4.83184 3.7533 5.10318 3.7533 5.43782C3.7533 5.77246 4.02464 6.0438 4.35928 6.0438H12.7804C13.115 6.0438 13.3864 5.77246 13.3864 5.43782C13.3864 5.10318 13.115 4.83184 12.7804 4.83184Z" fill="#000B33"/>
<path d="M12.7804 8.20028H4.35253C4.0179 8.20028 3.74655 8.47162 3.74655 8.80626C3.74655 9.14089 4.0179 9.41224 4.35253 9.41224H12.7804C13.115 9.41224 13.3864 9.14089 13.3864 8.80626C13.3864 8.47162 13.115 8.20028 12.7804 8.20028Z" fill="#000B33"/>
<path d="M7.2471 11.5762H4.35253C4.0179 11.5762 3.74655 11.8475 3.74655 12.1822C3.74655 12.5168 4.0179 12.7882 4.35253 12.7882H7.2471C7.58173 12.7882 7.85308 12.5168 7.85308 12.1822C7.85308 11.8475 7.58173 11.5762 7.2471 11.5762Z" fill="#000B33"/>
<path d="M18.253 3.97915H16.8653V2.545C16.8653 1.42326 15.9529 0.511597 14.8312 0.511597H2.30153C1.18047 0.511597 0.267456 1.42326 0.267456 2.545V15.0746C0.267456 16.1964 1.17979 17.108 2.30153 17.108H3.73703V18.5025C3.73703 19.6451 4.66687 20.5749 5.80948 20.5749H18.2523C19.3989 20.5749 20.3328 19.6451 20.3328 18.5025V6.05228C20.3328 4.90899 19.3996 3.97915 18.253 3.97915ZM1.48009 15.0746V2.545C1.48009 2.09186 1.84839 1.72356 2.30153 1.72356H14.8312C15.2843 1.72356 15.6526 2.09186 15.6526 2.545V15.0746C15.6526 15.5278 15.2843 15.8961 14.8312 15.8961H2.30153C1.84839 15.8961 1.48009 15.5278 1.48009 15.0746ZM19.1208 18.5025C19.1208 18.9772 18.7317 19.363 18.253 19.363H5.80948C5.33547 19.363 4.94966 18.9765 4.94966 18.5025V17.108H14.8319C15.9529 17.108 16.8659 16.1964 16.8659 15.0746V5.19111H18.2536C18.7323 5.19111 19.1215 5.57759 19.1215 6.0516L19.1208 18.5025Z" fill="#000B33"/>
</svg>
