<svg width="20" height="20" viewBox="0 0 20 20" fill="none" xmlns="http://www.w3.org/2000/svg">
<path d="M8.75 8.12451C8.40438 8.12451 8.125 8.40389 8.125 8.74951V13.7495C8.125 14.0951 8.40438 14.3745 8.75 14.3745C9.09562 14.3745 9.375 14.0951 9.375 13.7495V8.74951C9.375 8.40389 9.09562 8.12451 8.75 8.12451Z" fill="#5F6579"/>
<path d="M11.25 8.12451C10.9044 8.12451 10.625 8.40389 10.625 8.74951V13.7495C10.625 14.0951 10.9044 14.3745 11.25 14.3745C11.5956 14.3745 11.875 14.0951 11.875 13.7495V8.74951C11.875 8.40389 11.5956 8.12451 11.25 8.12451Z" fill="#5F6579"/>
<path d="M11.875 1.87451H8.125C7.43563 1.87451 6.875 2.43514 6.875 3.12451V4.37451H5H3.125C2.77938 4.37451 2.5 4.65389 2.5 4.99951C2.5 5.34514 2.77938 5.62451 3.125 5.62451H4.375V16.2495C4.375 17.2833 5.21625 18.1245 6.25 18.1245H13.75C14.7837 18.1245 15.625 17.2833 15.625 16.2495V5.62451H16.875C17.2206 5.62451 17.5 5.34514 17.5 4.99951C17.5 4.65389 17.2206 4.37451 16.875 4.37451H15H13.125V3.12451C13.125 2.43514 12.5644 1.87451 11.875 1.87451ZM14.375 16.2495C14.375 16.5945 14.095 16.8745 13.75 16.8745H6.25C5.905 16.8745 5.625 16.5945 5.625 16.2495V5.62451H14.375V16.2495ZM8.125 4.37451V3.12451H11.875V4.37451H8.125Z" fill="#5F6579"/>
</svg>
