<svg width="18" height="18" viewBox="0 0 18 18" fill="none" xmlns="http://www.w3.org/2000/svg">
<g id="edit 2" clip-path="url(#clip0_3_8081)">
<g id="Group">
<path id="Vector" d="M4.15499 14.6396C3.69749 14.6396 3.26999 14.482 2.96249 14.1895C2.57249 13.822 2.38499 13.267 2.45249 12.667L2.72999 10.237C2.78249 9.77951 3.05999 9.17201 3.38249 8.84201L9.54 2.32455C11.0775 0.697048 12.6825 0.652048 14.31 2.18955C15.9375 3.72705 15.9825 5.33205 14.445 6.95955L8.2875 13.477C7.9725 13.8145 7.38749 14.1295 6.92999 14.2046L4.51499 14.617C4.38749 14.6245 4.27499 14.6396 4.15499 14.6396ZM11.9475 2.18205C11.37 2.18205 10.8675 2.54205 10.3575 3.08205L4.19999 9.60709C4.04999 9.76459 3.87749 10.1396 3.84749 10.3571L3.56999 12.787C3.53999 13.0345 3.59999 13.237 3.73499 13.3645C3.86999 13.492 4.07249 13.537 4.31999 13.4995L6.73499 13.0871C6.95249 13.0496 7.31249 12.8545 7.46249 12.697L13.62 6.17955C14.55 5.18955 14.8875 4.27455 13.53 2.99955C12.93 2.42205 12.4125 2.18205 11.9475 2.18205Z" fill="#5F6579"/>
<path id="Vector_2" d="M13.0053 8.21186C12.9903 8.21186 12.9678 8.21186 12.9528 8.21186C10.6128 7.97936 8.73033 6.2019 8.37033 3.8769C8.32533 3.5694 8.53533 3.2844 8.84283 3.2319C9.15033 3.1869 9.43533 3.3969 9.48783 3.7044C9.77283 5.5194 11.2428 6.9144 13.0728 7.0944C13.3803 7.1244 13.6053 7.4019 13.5753 7.70936C13.5378 7.99436 13.2903 8.21186 13.0053 8.21186Z" fill="#5F6579"/>
<path id="Vector_3" d="M15.75 17.062H2.25C1.9425 17.062 1.6875 16.807 1.6875 16.4995C1.6875 16.192 1.9425 15.937 2.25 15.937H15.75C16.0575 15.937 16.3125 16.192 16.3125 16.4995C16.3125 16.807 16.0575 17.062 15.75 17.062Z" fill="#5F6579"/>
</g>
</g>
<defs>
<clipPath id="clip0_3_8081">
<rect width="18" height="18" fill="white" transform="translate(0 -0.000488281)"/>
</clipPath>
</defs>
</svg>
