<svg width="28" height="28" viewBox="0 0 28 28" fill="none" xmlns="http://www.w3.org/2000/svg">
<rect width="28" height="28" fill="#F5F5F5"/>
<g id="Book">
<rect width="1920" height="2817" transform="translate(-322 -765)" fill="white"/>
<g id="Group 190">
<g id="Group 189">
<circle id="Ellipse 20" cx="13.5" cy="13.5" r="24.75" fill="white" stroke="black" stroke-width="1.5"/>
</g>
<g id="pdf(2) 1">
<g id="Group">
<g id="Group_2">
<g id="Group_3">
<path id="Vector" d="M24.0996 6.33714L18.3959 1.08713C18.289 0.98869 18.1442 0.933319 17.9926 0.933319H6.01484C4.75659 0.933319 3.7334 1.87512 3.7334 3.03334V24.0334C3.7334 25.1915 4.75659 26.1333 6.0149 26.1333H21.9853C23.2435 26.1333 24.2667 25.1915 24.2667 24.0333V6.7083C24.2667 6.56887 24.2066 6.43558 24.0996 6.33714ZM18.563 2.72572L22.3194 6.18334H19.7037C19.0749 6.18334 18.563 5.71216 18.563 5.13335V2.72572ZM23.126 24.0333C23.126 24.6121 22.6141 25.0833 21.9853 25.0833H6.0149C5.38606 25.0833 4.87417 24.6121 4.87417 24.0333V3.03334C4.87417 2.45452 5.38606 1.98335 6.0149 1.98335H17.4223V5.13335C17.4223 6.29152 18.4455 7.23332 19.7038 7.23332H23.126V24.0333Z" fill="black"/>
<path id="Vector_2" d="M16.9742 15.2579C16.4341 14.8329 15.9209 14.396 15.5791 14.0542C15.1348 13.6099 14.7388 13.1792 14.3948 12.7691C14.9314 11.1108 15.1667 10.2557 15.1667 9.79996C15.1667 7.8637 14.4671 7.46661 13.4167 7.46661C12.6186 7.46661 11.6667 7.88131 11.6667 9.8558C11.6667 10.7263 12.1435 11.783 13.0886 13.0112C12.8573 13.717 12.5856 14.531 12.2802 15.4487C12.1332 15.8891 11.9738 16.297 11.8051 16.6741C11.6679 16.7351 11.5345 16.7971 11.4058 16.8615C10.9421 17.0934 10.5018 17.3018 10.0933 17.4955C8.23047 18.3774 7 18.9607 7 20.1126C7 20.9488 7.90863 21.4666 8.75 21.4666C9.83462 21.4666 11.4724 20.0179 12.6687 17.5775C13.9105 17.0876 15.4544 16.7247 16.6729 16.4974C17.6492 17.2482 18.7276 17.9666 19.25 17.9666C20.6964 17.9666 21 17.1303 21 16.4291C21 15.0499 19.4243 15.0499 18.6666 15.0499C18.4314 15.05 17.8002 15.1195 16.9742 15.2579ZM8.75 20.3C8.41673 20.3 8.19115 20.1427 8.16665 20.1126C8.16665 19.6989 9.39996 19.1145 10.5929 18.5494C10.6686 18.5135 10.7455 18.4776 10.8236 18.4406C9.94744 19.711 9.08097 20.3 8.75 20.3ZM12.8334 9.8558C12.8334 8.63332 13.2128 8.63332 13.4167 8.63332C13.8292 8.63332 14.0001 8.63332 14.0001 9.79996C14.0001 10.0461 13.836 10.6613 13.5358 11.6218C13.0777 10.9165 12.8334 10.3121 12.8334 9.8558ZM13.2805 16.1255C13.317 16.0241 13.3523 15.9216 13.3865 15.8179C13.603 15.1685 13.7978 14.5851 13.9716 14.0599C14.2137 14.3265 14.4746 14.5994 14.7543 14.8791C14.8637 14.9884 15.1348 15.2345 15.496 15.5427C14.777 15.6994 14.012 15.8936 13.2805 16.1255ZM19.8334 16.4291C19.8334 16.6912 19.8334 16.8 19.2922 16.8034C19.1332 16.7692 18.7658 16.5528 18.3123 16.244C18.4769 16.2258 18.5983 16.2167 18.6666 16.2167C19.5286 16.2167 19.773 16.3009 19.8334 16.4291Z" fill="black"/>
</g>
</g>
</g>
</g>
</g>
</g>
</svg>
