<svg width="21" height="21" viewBox="0 0 21 21" fill="none" xmlns="http://www.w3.org/2000/svg">
<path d="M15.8099 0.779053H4.52724C2.10397 0.779053 0.139526 2.7435 0.139526 5.16677V16.4495C0.139526 18.8727 2.10397 20.8372 4.52724 20.8372H15.8099C18.2332 20.8372 20.1977 18.8727 20.1977 16.4495V5.16677C20.1977 2.7435 18.2332 0.779053 15.8099 0.779053ZM18.944 16.4495C18.944 18.1804 17.5409 19.5836 15.8099 19.5836H4.52724C2.79633 19.5836 1.39316 18.1804 1.39316 16.4495V5.16677C1.39316 3.43586 2.79633 2.03269 4.52724 2.03269H15.8099C17.5409 2.03269 18.944 3.43586 18.944 5.16677V16.4495Z" fill="#000B33"/>
<path d="M6.4077 5.16678H5.15407C4.80787 5.16678 4.52725 5.4474 4.52725 5.7936V7.04723C4.52725 7.39343 4.80787 7.67405 5.15407 7.67405H6.4077C6.7539 7.67405 7.03452 7.39343 7.03452 7.04723V5.7936C7.03452 5.4474 6.7539 5.16678 6.4077 5.16678Z" fill="#000B33"/>
<path d="M6.4077 9.5545H5.15407C4.80787 9.5545 4.52725 9.83511 4.52725 10.1813V11.4349C4.52725 11.7811 4.80787 12.0618 5.15407 12.0618H6.4077C6.7539 12.0618 7.03452 11.7811 7.03452 11.4349V10.1813C7.03452 9.83511 6.7539 9.5545 6.4077 9.5545Z" fill="#000B33"/>
<path d="M6.4077 13.9422H5.15407C4.80787 13.9422 4.52725 14.2228 4.52725 14.569V15.8227C4.52725 16.1689 4.80787 16.4495 5.15407 16.4495H6.4077C6.7539 16.4495 7.03452 16.1689 7.03452 15.8227V14.569C7.03452 14.2228 6.7539 13.9422 6.4077 13.9422Z" fill="#000B33"/>
<path d="M15.8099 5.79359H8.28815V7.04723H15.8099V5.79359Z" fill="#000B33"/>
<path d="M15.8099 10.1813H8.28815V11.4349H15.8099V10.1813Z" fill="#000B33"/>
<path d="M15.8099 14.569H8.28815V15.8227H15.8099V14.569Z" fill="#000B33"/>
</svg>
