<svg id="cart-shopping-regular" xmlns="http://www.w3.org/2000/svg" width="32" height="28.688" viewBox="0 0 32 28.688">
  <path id="Shape" d="M23.309,26A2.689,2.689,0,1,1,26,28.688,2.689,2.689,0,0,1,23.309,26ZM7.172,26a2.689,2.689,0,1,1,2.689,2.689A2.689,2.689,0,0,1,7.172,26Zm4.018-4.483a4.034,4.034,0,0,1-3.962-3.278L4.337,3.054a.455.455,0,0,0-.443-.364H1.345A1.345,1.345,0,1,1,1.345,0h2.55A3.132,3.132,0,0,1,6.729,1.793H29.758A2.24,2.24,0,0,1,31.92,4.617l-2.3,8.534a4.024,4.024,0,0,1-3.894,2.986H9.564l.3,1.6a1.35,1.35,0,0,0,1.323,1.093H27.343a1.345,1.345,0,0,1,0,2.689Z"/>
</svg>
