<svg width="98" height="42" viewBox="0 0 98 42" fill="none" xmlns="http://www.w3.org/2000/svg">
<path d="M2.85714 8.20101H0V16H20V8.20101H17.1429V13.164H2.85714V8.20101Z" fill="#69C200"/>
<path fill-rule="evenodd" clip-rule="evenodd" d="M10 3.62372L1.71504 10.3755L0 8.15349L9.97815 0.0218588L9.99502 0L10 0.00405464L10.005 0L10.0218 0.0218588L20 8.15349L18.285 10.3755L10 3.62372Z" fill="#69C200"/>
<path d="M32.9917 15.8225H25.3333V2.85292H32.9917V5.10619H28.1529V7.95383H32.6552V10.2071H28.1529V13.5515H32.9917V15.8225Z" fill="#263238"/>
<path d="M43.6244 12.2209C43.6244 13.3918 43.1908 14.3144 42.3237 14.9886C41.4627 15.6629 40.2621 16 38.7219 16C37.303 16 36.0478 15.7397 34.9564 15.2193V12.6644C35.8538 13.0547 36.6117 13.3297 37.2302 13.4894C37.8548 13.6491 38.4248 13.7289 38.9402 13.7289C39.5587 13.7289 40.0316 13.6136 40.3591 13.383C40.6926 13.1523 40.8593 12.8093 40.8593 12.3539C40.8593 12.0996 40.7866 11.8749 40.641 11.6797C40.4955 11.4786 40.2803 11.2864 39.9953 11.1031C39.7163 10.9197 39.1433 10.627 38.2762 10.2248C37.4637 9.85225 36.8543 9.49445 36.448 9.15143C36.0418 8.80842 35.7173 8.40921 35.4748 7.95383C35.2323 7.49844 35.111 6.96618 35.111 6.35702C35.111 5.20969 35.5081 4.30779 36.3025 3.65132C37.1029 2.99486 38.2065 2.66663 39.6133 2.66663C40.3045 2.66663 40.9624 2.74647 41.587 2.90615C42.2176 3.06583 42.8755 3.29056 43.5607 3.58035L42.6511 5.7183C41.9417 5.43442 41.3535 5.2363 40.8866 5.12393C40.4258 5.01157 39.971 4.95538 39.5223 4.95538C38.9887 4.95538 38.5794 5.07662 38.2944 5.3191C38.0094 5.56158 37.8669 5.87798 37.8669 6.26831C37.8669 6.51079 37.9245 6.7237 38.0397 6.90703C38.1549 7.08446 38.3369 7.25892 38.5855 7.43043C38.8401 7.59603 39.4374 7.89765 40.3773 8.33529C41.6203 8.91487 42.4723 9.49741 42.9331 10.0829C43.3939 10.6625 43.6244 11.3751 43.6244 12.2209Z" fill="#263238"/>
<path d="M51.1645 15.8225H48.3449V5.14168H44.734V2.85292H54.7755V5.14168H51.1645V15.8225Z" fill="#263238"/>
<path d="M64.9624 15.8225L63.9983 12.7354H59.1504L58.1863 15.8225H55.1484L59.8416 2.79969H63.2888L68.0003 15.8225H64.9624ZM63.3252 10.4289C62.4339 7.63151 61.9306 6.04949 61.8154 5.68282C61.7062 5.31614 61.6274 5.02635 61.5789 4.81344C61.3788 5.57045 60.8058 7.44226 59.8598 10.4289H63.3252Z" fill="#263238"/>
<path d="M74.8128 15.8225H71.9932V5.14168H68.3823V2.85292H78.4238V5.14168H74.8128V15.8225Z" fill="#263238"/>
<path d="M80.4702 15.8225V2.85292H83.2899V15.8225H80.4702Z" fill="#263238"/>
<path d="M97.3333 15.8225H94.1317L90.6481 10.3579L89.4566 11.1918V15.8225H86.637V2.85292H89.4566V8.78772L90.5663 7.26188L94.1681 2.85292H97.2969L92.6582 8.59255L97.3333 15.8225Z" fill="#263238"/>
<path d="M31.7832 33.7051L34.2969 26.4688H35.5215L32.3633 35H31.4902L31.7832 33.7051ZM29.4336 26.4688L31.9238 33.7051L32.2344 35H31.3613L28.209 26.4688H29.4336ZM38.8789 35.1172C38.4375 35.1172 38.0371 35.043 37.6777 34.8945C37.3223 34.7422 37.0156 34.5293 36.7578 34.2559C36.5039 33.9824 36.3086 33.6582 36.1719 33.2832C36.0352 32.9082 35.9668 32.498 35.9668 32.0527V31.8066C35.9668 31.291 36.043 30.832 36.1953 30.4297C36.3477 30.0234 36.5547 29.6797 36.8164 29.3984C37.0781 29.1172 37.375 28.9043 37.707 28.7598C38.0391 28.6152 38.3828 28.543 38.7383 28.543C39.1914 28.543 39.582 28.6211 39.9102 28.7773C40.2422 28.9336 40.5137 29.1523 40.7246 29.4336C40.9355 29.7109 41.0918 30.0391 41.1934 30.418C41.2949 30.793 41.3457 31.2031 41.3457 31.6484V32.1348H36.6113V31.25H40.2617V31.168C40.2461 30.8867 40.1875 30.6133 40.0859 30.3477C39.9883 30.082 39.832 29.8633 39.6172 29.6914C39.4023 29.5195 39.1094 29.4336 38.7383 29.4336C38.4922 29.4336 38.2656 29.4863 38.0586 29.5918C37.8516 29.6934 37.6738 29.8457 37.5254 30.0488C37.377 30.252 37.2617 30.5 37.1797 30.793C37.0977 31.0859 37.0566 31.4238 37.0566 31.8066V32.0527C37.0566 32.3535 37.0977 32.6367 37.1797 32.9023C37.2656 33.1641 37.3887 33.3945 37.5488 33.5938C37.7129 33.793 37.9102 33.9492 38.1406 34.0625C38.375 34.1758 38.6406 34.2324 38.9375 34.2324C39.3203 34.2324 39.6445 34.1543 39.9102 33.998C40.1758 33.8418 40.4082 33.6328 40.6074 33.3711L41.2637 33.8926C41.127 34.0996 40.9531 34.2969 40.7422 34.4844C40.5312 34.6719 40.2715 34.8242 39.9629 34.9414C39.6582 35.0586 39.2969 35.1172 38.8789 35.1172ZM43.6953 29.6562V35H42.6113V28.6602H43.666L43.6953 29.6562ZM45.6758 28.625L45.6699 29.6328C45.5801 29.6133 45.4941 29.6016 45.4121 29.5977C45.334 29.5898 45.2441 29.5859 45.1426 29.5859C44.8926 29.5859 44.6719 29.625 44.4805 29.7031C44.2891 29.7812 44.127 29.8906 43.9941 30.0312C43.8613 30.1719 43.7559 30.3398 43.6777 30.5352C43.6035 30.7266 43.5547 30.9375 43.5312 31.168L43.2266 31.3438C43.2266 30.9609 43.2637 30.6016 43.3379 30.2656C43.416 29.9297 43.5352 29.6328 43.6953 29.375C43.8555 29.1133 44.0586 28.9102 44.3047 28.7656C44.5547 28.6172 44.8516 28.543 45.1953 28.543C45.2734 28.543 45.3633 28.5527 45.4648 28.5723C45.5664 28.5879 45.6367 28.6055 45.6758 28.625ZM50.3691 33.3184C50.3691 33.1621 50.334 33.0176 50.2637 32.8848C50.1973 32.748 50.0586 32.625 49.8477 32.5156C49.6406 32.4023 49.3281 32.3047 48.9102 32.2227C48.5586 32.1484 48.2402 32.0605 47.9551 31.959C47.6738 31.8574 47.4336 31.7344 47.2344 31.5898C47.0391 31.4453 46.8887 31.2754 46.7832 31.0801C46.6777 30.8848 46.625 30.6562 46.625 30.3945C46.625 30.1445 46.6797 29.9082 46.7891 29.6855C46.9023 29.4629 47.0605 29.2656 47.2637 29.0938C47.4707 28.9219 47.7188 28.7871 48.0078 28.6895C48.2969 28.5918 48.6191 28.543 48.9746 28.543C49.4824 28.543 49.916 28.6328 50.2754 28.8125C50.6348 28.9922 50.9102 29.2324 51.1016 29.5332C51.293 29.8301 51.3887 30.1602 51.3887 30.5234H50.3047C50.3047 30.3477 50.252 30.1777 50.1465 30.0137C50.0449 29.8457 49.8945 29.707 49.6953 29.5977C49.5 29.4883 49.2598 29.4336 48.9746 29.4336C48.6738 29.4336 48.4297 29.4805 48.2422 29.5742C48.0586 29.6641 47.9238 29.7793 47.8379 29.9199C47.7559 30.0605 47.7148 30.209 47.7148 30.3652C47.7148 30.4824 47.7344 30.5879 47.7734 30.6816C47.8164 30.7715 47.8906 30.8555 47.9961 30.9336C48.1016 31.0078 48.25 31.0781 48.4414 31.1445C48.6328 31.2109 48.877 31.2773 49.1738 31.3438C49.6934 31.4609 50.1211 31.6016 50.457 31.7656C50.793 31.9297 51.043 32.1309 51.207 32.3691C51.3711 32.6074 51.4531 32.8965 51.4531 33.2363C51.4531 33.5137 51.3945 33.7676 51.2773 33.998C51.1641 34.2285 50.998 34.4277 50.7793 34.5957C50.5645 34.7598 50.3066 34.8887 50.0059 34.9824C49.709 35.0723 49.375 35.1172 49.0039 35.1172C48.4453 35.1172 47.9727 35.0176 47.5859 34.8184C47.1992 34.6191 46.9062 34.3613 46.707 34.0449C46.5078 33.7285 46.4082 33.3945 46.4082 33.043H47.498C47.5137 33.3398 47.5996 33.5762 47.7559 33.752C47.9121 33.9238 48.1035 34.0469 48.3301 34.1211C48.5566 34.1914 48.7812 34.2266 49.0039 34.2266C49.3008 34.2266 49.5488 34.1875 49.748 34.1094C49.9512 34.0312 50.1055 33.9238 50.2109 33.7871C50.3164 33.6504 50.3691 33.4941 50.3691 33.3184ZM54.0547 28.6602V35H52.9648V28.6602H54.0547ZM52.8828 26.9785C52.8828 26.8027 52.9355 26.6543 53.041 26.5332C53.1504 26.4121 53.3105 26.3516 53.5215 26.3516C53.7285 26.3516 53.8867 26.4121 53.9961 26.5332C54.1094 26.6543 54.166 26.8027 54.166 26.9785C54.166 27.1465 54.1094 27.291 53.9961 27.4121C53.8867 27.5293 53.7285 27.5879 53.5215 27.5879C53.3105 27.5879 53.1504 27.5293 53.041 27.4121C52.9355 27.291 52.8828 27.1465 52.8828 26.9785ZM55.5078 31.9004V31.7656C55.5078 31.3086 55.5742 30.8848 55.707 30.4941C55.8398 30.0996 56.0312 29.7578 56.2812 29.4688C56.5312 29.1758 56.834 28.9492 57.1895 28.7891C57.5449 28.625 57.9434 28.543 58.3848 28.543C58.8301 28.543 59.2305 28.625 59.5859 28.7891C59.9453 28.9492 60.25 29.1758 60.5 29.4688C60.7539 29.7578 60.9473 30.0996 61.0801 30.4941C61.2129 30.8848 61.2793 31.3086 61.2793 31.7656V31.9004C61.2793 32.3574 61.2129 32.7812 61.0801 33.1719C60.9473 33.5625 60.7539 33.9043 60.5 34.1973C60.25 34.4863 59.9473 34.7129 59.5918 34.877C59.2402 35.0371 58.8418 35.1172 58.3965 35.1172C57.9512 35.1172 57.5508 35.0371 57.1953 34.877C56.8398 34.7129 56.5352 34.4863 56.2812 34.1973C56.0312 33.9043 55.8398 33.5625 55.707 33.1719C55.5742 32.7812 55.5078 32.3574 55.5078 31.9004ZM56.5918 31.7656V31.9004C56.5918 32.2168 56.6289 32.5156 56.7031 32.7969C56.7773 33.0742 56.8887 33.3203 57.0371 33.5352C57.1895 33.75 57.3789 33.9199 57.6055 34.0449C57.832 34.166 58.0957 34.2266 58.3965 34.2266C58.6934 34.2266 58.9531 34.166 59.1758 34.0449C59.4023 33.9199 59.5898 33.75 59.7383 33.5352C59.8867 33.3203 59.998 33.0742 60.0723 32.7969C60.1504 32.5156 60.1895 32.2168 60.1895 31.9004V31.7656C60.1895 31.4531 60.1504 31.1582 60.0723 30.8809C59.998 30.5996 59.8848 30.3516 59.7324 30.1367C59.584 29.918 59.3965 29.7461 59.1699 29.6211C58.9473 29.4961 58.6855 29.4336 58.3848 29.4336C58.0879 29.4336 57.8262 29.4961 57.5996 29.6211C57.377 29.7461 57.1895 29.918 57.0371 30.1367C56.8887 30.3516 56.7773 30.5996 56.7031 30.8809C56.6289 31.1582 56.5918 31.4531 56.5918 31.7656ZM63.7227 30.0137V35H62.6387V28.6602H63.6641L63.7227 30.0137ZM63.4648 31.5898L63.0137 31.5723C63.0176 31.1387 63.082 30.7383 63.207 30.3711C63.332 30 63.5078 29.6777 63.7344 29.4043C63.9609 29.1309 64.2305 28.9199 64.543 28.7715C64.8594 28.6191 65.209 28.543 65.5918 28.543C65.9043 28.543 66.1855 28.5859 66.4355 28.6719C66.6855 28.7539 66.8984 28.8867 67.0742 29.0703C67.2539 29.2539 67.3906 29.4922 67.4844 29.7852C67.5781 30.0742 67.625 30.4277 67.625 30.8457V35H66.5352V30.834C66.5352 30.502 66.4863 30.2363 66.3887 30.0371C66.291 29.834 66.1484 29.6875 65.9609 29.5977C65.7734 29.5039 65.543 29.457 65.2695 29.457C65 29.457 64.7539 29.5137 64.5312 29.627C64.3125 29.7402 64.123 29.8965 63.9629 30.0957C63.8066 30.2949 63.6836 30.5234 63.5938 30.7812C63.5078 31.0352 63.4648 31.3047 63.4648 31.5898ZM77.8965 32.1289V33.0195H71.7324V32.3809L75.5527 26.4688H76.4375L75.4883 28.1797L72.9629 32.1289H77.8965ZM76.707 26.4688V35H75.623V26.4688H76.707ZM79.0156 34.4258C79.0156 34.2422 79.0723 34.0879 79.1855 33.9629C79.3027 33.834 79.4707 33.7695 79.6895 33.7695C79.9082 33.7695 80.0742 33.834 80.1875 33.9629C80.3047 34.0879 80.3633 34.2422 80.3633 34.4258C80.3633 34.6055 80.3047 34.7578 80.1875 34.8828C80.0742 35.0078 79.9082 35.0703 79.6895 35.0703C79.4707 35.0703 79.3027 35.0078 79.1855 34.8828C79.0723 34.7578 79.0156 34.6055 79.0156 34.4258ZM85.6074 26.4219V35H84.5234V27.7754L82.3379 28.5723V27.5938L85.4375 26.4219H85.6074ZM88.9297 34.4258C88.9297 34.2422 88.9863 34.0879 89.0996 33.9629C89.2168 33.834 89.3848 33.7695 89.6035 33.7695C89.8223 33.7695 89.9883 33.834 90.1016 33.9629C90.2188 34.0879 90.2773 34.2422 90.2773 34.4258C90.2773 34.6055 90.2188 34.7578 90.1016 34.8828C89.9883 35.0078 89.8223 35.0703 89.6035 35.0703C89.3848 35.0703 89.2168 35.0078 89.0996 34.8828C88.9863 34.7578 88.9297 34.6055 88.9297 34.4258ZM95.5215 26.4219V35H94.4375V27.7754L92.252 28.5723V27.5938L95.3516 26.4219H95.5215Z" fill="#B0BEC5"/>
</svg>
