<svg xmlns="http://www.w3.org/2000/svg" xmlns:xlink="http://www.w3.org/1999/xlink" width="40" height="40" viewBox="0 0 40 40"><defs><clipPath id="a"><rect width="12.403" height="24.553" fill="none"/></clipPath></defs><g transform="translate(-850 -880)"><circle cx="20" cy="20" r="20" transform="translate(850 880)" fill="#348679"/><g transform="translate(863 888)"><g clip-path="url(#a)"><path d="M.4,13.077H3.087v11.08a.4.4,0,0,0,.4.4H8.047a.4.4,0,0,0,.4-.4V13.129h3.094a.4.4,0,0,0,.393-.351L12.4,8.7a.4.4,0,0,0-.393-.441H8.443V5.7c0-.771.415-1.162,1.234-1.162h2.33a.4.4,0,0,0,.4-.4V.4a.4.4,0,0,0-.4-.4H8.8c-.023,0-.073,0-.147,0A6.154,6.154,0,0,0,4.625,1.517a4.22,4.22,0,0,0-1.4,3.751v2.99H.4a.4.4,0,0,0-.4.4v4.027a.4.4,0,0,0,.4.4" fill="#fff"/></g></g></g></svg>