<svg xmlns="http://www.w3.org/2000/svg" width="54" height="54" viewBox="0 0 54 54">
  <g id="Group_1721" data-name="Group 1721" transform="translate(-30 -30)">
    <circle id="legalod_icon" cx="27" cy="27" r="27" transform="translate(30 30)" fill="#13322b"/>
    <g id="Group_1720" data-name="Group 1720" transform="translate(-362.907 -280.381)">
      <path id="Path_305" data-name="Path 305" d="M448.074,339.884a10.924,10.924,0,0,1-4.193,8.613,5.759,5.759,0,0,0,.946.7,12.077,12.077,0,0,0-.093-18.694,4.349,4.349,0,0,0-.52.383,4.541,4.541,0,0,0-.373.358A10.924,10.924,0,0,1,448.074,339.884Z" transform="translate(-20.403 -2.503)" fill="#fff"/>
      <path id="Path_306" data-name="Path 306" d="M444.179,337.415l.546.105c0-.046,0-.092,0-.139,0-.327-.016-.655-.047-.982l-.3-.058a7.612,7.612,0,0,1-3.741-1.644,3.969,3.969,0,0,1-1.225-3.053,4.721,4.721,0,0,1,1.678-3.758,6.984,6.984,0,0,1,4.7-1.442,8.5,8.5,0,0,1,3.741.772,5.721,5.721,0,0,1,2.449,2.164,5.869,5.869,0,0,1,.856,3.137h1.174A6.863,6.863,0,0,0,453,328.86a7.045,7.045,0,0,0-2.868-2.6,9.386,9.386,0,0,0-4.345-.956,9.29,9.29,0,0,0-4.059.822,5.888,5.888,0,0,0-3.489,5.519,4.987,4.987,0,0,0,1.442,3.791A8.95,8.95,0,0,0,444.179,337.415Z" transform="translate(-17.706)" fill="#fff"/>
      <path id="Path_307" data-name="Path 307" d="M447.368,347.77l-.684-.133q.01.251.01.5c0,.2-.005.4-.015.605l.688.133a7.2,7.2,0,0,1,3.959,1.829,4.467,4.467,0,0,1,1.208,3.171,4.631,4.631,0,0,1-1.744,3.774,7.956,7.956,0,0,1-5.133,1.426,8.572,8.572,0,0,1-3.841-.8,6.051,6.051,0,0,1-2.5-2.181,5.643,5.643,0,0,1-.872-3.087H437.27a6.776,6.776,0,0,0,1.023,3.657,7.089,7.089,0,0,0,2.936,2.6,9.779,9.779,0,0,0,4.429.956,10.626,10.626,0,0,0,4.378-.822,6.181,6.181,0,0,0,2.751-2.247,5.891,5.891,0,0,0,.923-3.271Q453.71,348.978,447.368,347.77Z" transform="translate(-17.238 -10.758)" fill="#fff"/>
      <g id="Group_1719" data-name="Group 1719" transform="translate(405.009 325.303)">
        <path id="Path_308" data-name="Path 308" d="M411.3,332.021a10.951,10.951,0,0,1,14.113-4.583,6.352,6.352,0,0,1,.832-.859,12.084,12.084,0,0,0-16.231,5.442Z" transform="translate(-409.117 -325.303)" fill="#fff"/>
        <path id="Path_309" data-name="Path 309" d="M424.595,361.262a10.949,10.949,0,0,1-15.134-7.008h-1.175a12.085,12.085,0,0,0,17.2,7.836A7.6,7.6,0,0,1,424.595,361.262Z" transform="translate(-408.286 -339.248)" fill="#fff"/>
      </g>
      <path id="Path_310" data-name="Path 310" d="M410.159,348.882l-3.693-7.836h-1.291l-3.693,7.836h1.29l3.048-6.467,3.048,6.467Z" transform="translate(0 -7.583)" fill="#fff"/>
    </g>
  </g>
</svg>
