<svg xmlns="http://www.w3.org/2000/svg" xmlns:xlink="http://www.w3.org/1999/xlink" width="40" height="40" viewBox="0 0 40 40"><defs><clipPath id="a"><rect width="22.538" height="22.539" fill="none"/></clipPath></defs><g transform="translate(-910 -880)"><circle cx="20" cy="20" r="20" transform="translate(910 880)" fill="#348679"/><g transform="translate(919 889)"><g clip-path="url(#a)"><path d="M11.492,22.54h-.224c-1.767,0-3.4-.041-4.987-.137a6.666,6.666,0,0,1-3.842-1.454A6.168,6.168,0,0,1,.366,17.6a14.821,14.821,0,0,1-.34-3.54C.014,13.239,0,12.264,0,11.272S.014,9.3.025,8.479a14.824,14.824,0,0,1,.34-3.541A6.168,6.168,0,0,1,2.438,1.592,6.667,6.667,0,0,1,6.28.138C7.868.042,9.5,0,11.271,0s3.4.041,4.987.137A6.667,6.667,0,0,1,20.1,1.592a6.167,6.167,0,0,1,2.072,3.346,14.823,14.823,0,0,1,.34,3.541c.011.823.023,1.8.025,2.789v0c0,.991-.014,1.967-.025,2.789a14.813,14.813,0,0,1-.34,3.54A6.167,6.167,0,0,1,20.1,20.948,6.666,6.666,0,0,1,16.258,22.4c-1.52.092-3.082.138-4.767.138m-.224-1.761c1.738,0,3.334-.04,4.884-.134a4.85,4.85,0,0,0,2.837-1.061,4.446,4.446,0,0,0,1.479-2.417,13.479,13.479,0,0,0,.286-3.129c.011-.817.023-1.785.025-2.767s-.014-1.95-.025-2.767a13.483,13.483,0,0,0-.286-3.129,4.445,4.445,0,0,0-1.479-2.416A4.853,4.853,0,0,0,16.151,1.9c-1.55-.094-3.146-.138-4.88-.134S7.938,1.8,6.387,1.9A4.853,4.853,0,0,0,3.551,2.957,4.444,4.444,0,0,0,2.072,5.373,13.494,13.494,0,0,0,1.786,8.5c-.011.818-.023,1.787-.025,2.77s.014,1.947.025,2.765a13.491,13.491,0,0,0,.286,3.129,4.445,4.445,0,0,0,1.479,2.417,4.851,4.851,0,0,0,2.836,1.061c1.55.094,3.147.138,4.88.134m-.042-4.006a5.5,5.5,0,1,1,5.5-5.5,5.509,5.509,0,0,1-5.5,5.5m0-9.245a3.742,3.742,0,1,0,3.742,3.742,3.746,3.746,0,0,0-3.742-3.742m6.119-3.522a1.321,1.321,0,1,0,1.321,1.321,1.321,1.321,0,0,0-1.321-1.321" transform="translate(0 0)" fill="#fff"/></g></g></g></svg>