<svg xmlns="http://www.w3.org/2000/svg" width="126.502" height="185.323" viewBox="0 0 126.502 185.323"><g transform="translate(-322.089 -0.001)"><path d="M342.672,48.931c0,12.388,3.761,22.256,11.18,29.329,7.372,7.036,19,12.164,34.565,15.242l1.49.287c0-.376.026-.751.026-1.127a76.6,76.6,0,0,0-.507-8.67c-12.24-2.538-21.484-6.646-27.469-12.224-6.068-5.648-9.145-13.331-9.145-22.837,0-11.529,4.232-21.014,12.581-28.193,8.375-7.2,20.29-10.852,35.416-10.852,10.766,0,20.271,1.959,28.256,5.822A43.231,43.231,0,0,1,447.486,31.98a44.379,44.379,0,0,1,6.433,23.6v.594H464.06V55.58A53.176,53.176,0,0,0,456.3,27.394,54.551,54.551,0,0,0,434.2,7.355C424.695,2.475,413.461,0,400.809,0c-11.967,0-22.465,2.128-31.2,6.324-8.763,4.212-15.515,10.094-20.07,17.487a47.12,47.12,0,0,0-6.864,25.119" transform="translate(-16.747)" fill="#348679"/><path d="M416.322,93.827l-2.555-.5c.05,1.3.082,2.6.082,3.892,0,1.912-.075,3.827-.185,5.742l2.433.469c13.791,2.693,23.835,7.322,29.857,13.76,6,6.421,9.047,14.416,9.047,23.762,0,11.69-4.4,21.214-13.08,28.309C433.207,176.389,420.169,180,403.168,180c-11.109,0-20.872-2.045-29.019-6.077a45.71,45.71,0,0,1-18.814-16.409,42.592,42.592,0,0,1-6.557-23.209v-.594h-10.14v.594a52.467,52.467,0,0,0,7.891,28.19,54.9,54.9,0,0,0,22.616,20.037c9.754,4.878,21.2,7.351,34.024,7.351,12.976,0,24.286-2.125,33.618-6.317,9.352-4.2,16.493-10.043,21.226-17.355a45.669,45.669,0,0,0,7.128-25.257c0-25.1-16.424-40.959-48.818-47.129" transform="translate(-16.549 -4.561)" fill="#348679"/></g></svg>