<svg xmlns="http://www.w3.org/2000/svg" xmlns:xlink="http://www.w3.org/1999/xlink" width="40" height="40" viewBox="0 0 40 40"><defs><clipPath id="a"><rect width="22.217" height="22.217" fill="none"/></clipPath></defs><g transform="translate(-1030 -880)"><circle cx="20" cy="20" r="20" transform="translate(1030 880)" fill="#348679"/><g transform="translate(1039 888)"><g clip-path="url(#a)"><path d="M49.812,46.843h.006V38.694c0-3.986-.858-7.057-5.518-7.057a4.838,4.838,0,0,0-4.357,2.395h-.065V32.009H35.459V46.842h4.6V39.5c0-1.934.367-3.8,2.761-3.8,2.36,0,2.395,2.207,2.395,3.928v7.222Z" transform="translate(-27.6 -24.626)" fill="#fff"/><rect width="4.606" height="14.833" transform="translate(0.367 7.385)" fill="#fff"/><path d="M2.668,0A2.68,2.68,0,1,0,5.336,2.668,2.669,2.669,0,0,0,2.668,0" fill="#fff"/></g></g></g></svg>