<svg xmlns="http://www.w3.org/2000/svg" width="208.88" height="185.324" viewBox="0 0 208.88 185.324"><g transform="translate(-916.992 -393)"><path d="M246.112,125.755H256.74L228.59,66.022h-9.839L190.6,125.755H201.23l22.441-47.618Z" transform="translate(726.39 389.773)" fill="#348679"/><path d="M236.295,52.093A83,83,0,0,1,308.5,9.848a82.126,82.126,0,0,1,31.86,6.361,50.673,50.673,0,0,1,7.1-7.636A92.721,92.721,0,0,0,225.451,51.538l-.426.858h11.1Z" transform="translate(724.708 393)" fill="#348679"/><path d="M376.253,23.866a30.96,30.96,0,0,0-4.951,3.446,31.689,31.689,0,0,0-2.874,2.819,82.805,82.805,0,0,1,.288,127.158,41.411,41.411,0,0,0,8.244,5.887,92.637,92.637,0,0,0-.706-139.31" transform="translate(717.7 391.834)" fill="#348679"/><path d="M340.053,174.979a82.114,82.114,0,0,1-31.892,6.375A83.031,83.031,0,0,1,228.349,120.7l-.121-.436H218.063l.185.738a92.726,92.726,0,0,0,129.476,61.354,60.04,60.04,0,0,1-7.671-7.375" transform="translate(725.048 387.123)" fill="#348679"/></g></svg>