<svg width="23" height="23" viewBox="0 0 23 23" fill="none" xmlns="http://www.w3.org/2000/svg">
<g clip-path="url(#clip0_86_4567)">
<path d="M11.5 0.5C5.43484 0.5 0.5 5.43484 0.5 11.5C0.5 17.5652 5.43484 22.5 11.5 22.5C17.5652 22.5 22.5 17.5652 22.5 11.5C22.5 5.43484 17.5652 0.5 11.5 0.5ZM17.6479 8.60526L10.6178 15.5802C10.2043 15.9937 9.54261 16.0213 9.1015 15.6078L5.3797 12.2168C4.9386 11.8033 4.91103 11.114 5.29699 10.6729C5.71053 10.2318 6.39975 10.2043 6.84085 10.6178L9.79073 13.3195L16.0764 7.03383C16.5175 6.59273 17.2068 6.59273 17.6479 7.03383C18.089 7.47494 18.089 8.16416 17.6479 8.60526Z" fill="#1C3E77"/>
</g>
<defs>
<clipPath id="clip0_86_4567">
<rect width="22" height="22" fill="white" transform="translate(0.5 0.5)"/>
</clipPath>
</defs>
</svg>
