<svg width="29" height="27" viewBox="0 0 29 27" fill="none" xmlns="http://www.w3.org/2000/svg">
<path d="M9.37002 27C9.14406 27 8.92735 26.9091 8.76757 26.7473C8.60779 26.5855 8.51803 26.3661 8.51803 26.1373V17.842L0.620073 9.04627C0.30917 8.69934 0.104395 8.26849 0.0305993 7.80601C-0.043196 7.34352 0.0171619 6.86929 0.204347 6.44087C0.391533 6.01244 0.697498 5.64825 1.08511 5.39248C1.47272 5.13671 1.92531 5.00037 2.38795 5H20.612C21.0747 5.00037 21.5273 5.13671 21.9149 5.39248C22.3025 5.64825 22.6085 6.01244 22.7957 6.44087C22.9828 6.86929 23.0432 7.34352 22.9694 7.80601C22.8956 8.26849 22.6908 8.69934 22.3799 9.04627L14.482 17.842V22.6863C14.4819 22.8155 14.4531 22.9431 14.3978 23.0596C14.3425 23.176 14.2621 23.2784 14.1625 23.3592L9.90252 26.8102C9.75148 26.9329 9.56366 26.9998 9.37002 27ZM2.38795 6.72549C2.25538 6.72583 2.12574 6.76506 2.01472 6.83846C1.90371 6.91185 1.81608 7.01625 1.76245 7.13903C1.70881 7.2618 1.69147 7.39769 1.71251 7.53024C1.73355 7.66279 1.79208 7.78632 1.88102 7.88588L10.0005 16.9447C10.1396 17.0996 10.2183 17.3005 10.222 17.5098V24.3427L12.778 22.2549V17.5098C12.7775 17.2945 12.8565 17.0868 12.9995 16.9275L21.119 7.86863C21.2026 7.76862 21.2566 7.64668 21.2747 7.51692C21.2928 7.38715 21.2743 7.25485 21.2213 7.13529C21.1682 7.01574 21.0829 6.91382 20.9751 6.8413C20.8673 6.76879 20.7414 6.72863 20.612 6.72549H2.38795Z" fill="#000B33"/>
<circle cx="23" cy="6" r="5" fill="#F85769" stroke="white" stroke-width="2"/>
</svg>
