<svg width="24" height="18" viewBox="0 0 24 18" fill="none" xmlns="http://www.w3.org/2000/svg">
<path d="M23.375 1.6875C23.375 1.90299 23.2894 2.10965 23.137 2.26202C22.9847 2.4144 22.778 2.5 22.5625 2.5H1.4375C1.22201 2.5 1.01535 2.4144 0.862976 2.26202C0.710602 2.10965 0.625 1.90299 0.625 1.6875C0.625 1.47201 0.710602 1.26535 0.862976 1.11298C1.01535 0.960603 1.22201 0.875 1.4375 0.875H22.5625C22.778 0.875 22.9847 0.960603 23.137 1.11298C23.2894 1.26535 23.375 1.47201 23.375 1.6875ZM19.3125 8.1875H1.4375C1.22201 8.1875 1.01535 8.2731 0.862976 8.42548C0.710602 8.57785 0.625 8.78451 0.625 9C0.625 9.21549 0.710602 9.42215 0.862976 9.57452C1.01535 9.7269 1.22201 9.8125 1.4375 9.8125H19.3125C19.528 9.8125 19.7347 9.7269 19.887 9.57452C20.0394 9.42215 20.125 9.21549 20.125 9C20.125 8.78451 20.0394 8.57785 19.887 8.42548C19.7347 8.2731 19.528 8.1875 19.3125 8.1875ZM12 15.5H1.4375C1.22201 15.5 1.01535 15.5856 0.862976 15.738C0.710602 15.8903 0.625 16.097 0.625 16.3125C0.625 16.528 0.710602 16.7347 0.862976 16.887C1.01535 17.0394 1.22201 17.125 1.4375 17.125H12C12.2155 17.125 12.4222 17.0394 12.5745 16.887C12.7269 16.7347 12.8125 16.528 12.8125 16.3125C12.8125 16.097 12.7269 15.8903 12.5745 15.738C12.4222 15.5856 12.2155 15.5 12 15.5Z" fill="black"/>
</svg>
