<svg width="38" height="38" viewBox="0 0 38 38" fill="none" xmlns="http://www.w3.org/2000/svg">
<g id="headset(1) 1">
<g id="Group">
<g id="Group_2">
<path id="Vector" d="M34.9614 15.3462C34.5494 15.0807 34.1119 14.8642 33.6568 14.6975C32.9555 7.22741 26.6503 1.36176 19 1.36176C11.3498 1.36176 5.04457 7.22734 4.34321 14.6974C3.88832 14.8639 3.45095 15.0805 3.03933 15.3457C1.13621 16.571 0 18.6527 0 20.9142V23.0533C0 26.7035 2.96964 29.6732 6.61987 29.6732H8.11255C9.2723 29.6732 10.2158 28.7296 10.2158 27.5698V16.3977C10.2158 15.2379 9.2723 14.2943 8.11255 14.2943H6.61987C6.58254 14.2943 6.54535 14.2957 6.50802 14.2962C7.37905 8.18194 12.6486 3.46504 19 3.46504C25.3514 3.46504 30.6209 8.18187 31.492 14.2964C31.4546 14.2958 31.4175 14.2944 31.3801 14.2944H29.8874C28.7277 14.2944 27.7842 15.238 27.7842 16.3977V27.5699C27.7842 28.7296 28.7277 29.6732 29.8874 29.6732H31.3C30.4131 32.488 27.7786 34.5349 24.6747 34.5349C24.0939 34.5349 23.623 35.0057 23.623 35.5865C23.623 36.1674 24.0939 36.6382 24.6747 36.6382C29.0778 36.6382 32.7556 33.4765 33.5589 29.3044C36.142 28.4014 38 25.9405 38 23.0533V20.9142C38 18.6527 36.8639 16.5711 34.9614 15.3462ZM6.61987 16.3977H8.11255L8.11389 27.5698C8.11389 27.5698 8.11345 27.5699 8.11255 27.5699H6.61987C4.12946 27.5699 2.10336 25.5438 2.10336 23.0534V20.9143C2.10336 19.3712 2.87895 17.9507 4.17837 17.114C4.90541 16.6454 5.74973 16.3977 6.61987 16.3977ZM35.8967 23.0533C35.8967 25.5437 33.8707 27.5698 31.3802 27.5698H29.8875V16.3977H31.3802C32.2503 16.3977 33.0947 16.6454 33.8225 17.1144C35.1213 17.9506 35.8967 19.3711 35.8967 20.9142V23.0533Z" fill="#000B33"/>
</g>
</g>
</g>
</svg>
