<svg width="49" height="49" viewBox="0 0 49 49" fill="none" xmlns="http://www.w3.org/2000/svg">
<g id="planing 1" clip-path="url(#clip0_8_354)">
<g id="Page-1">
<g id="015---Landscape-Planning">
<path id="Shape" d="M43.7831 40.0224C41.3959 42.0485 34.1456 44.1 24.9083 44.1C23.4807 44.1 22.0328 44.0494 20.4819 43.9457C20.2651 43.9284 20.0505 43.9994 19.8868 44.1425C19.7231 44.2856 19.624 44.4888 19.6122 44.706C19.5823 45.1558 19.9226 45.5448 20.3725 45.5749C21.9601 45.6819 23.444 45.7333 24.9083 45.7333C35.0423 45.7333 42.2216 43.4908 44.8406 41.2686C45.1848 40.9766 45.227 40.4609 44.935 40.1167C44.6429 39.7726 44.1272 39.7304 43.7831 40.0224Z" fill="#2487F7"/>
<path id="Shape_2" d="M16.5407 43.5169C15.6383 43.3838 14.7587 43.2286 13.9274 43.0555C13.4899 42.9733 13.0672 43.2565 12.9769 43.6923C12.8865 44.1281 13.1618 44.556 13.5958 44.6545C14.459 44.8334 15.3688 44.9942 16.3022 45.1331C16.3423 45.1386 16.3827 45.1413 16.4231 45.1412C16.8502 45.14 17.2042 44.8099 17.2352 44.384C17.2663 43.958 16.9631 43.5801 16.5407 43.5169Z" fill="#2487F7"/>
<path id="Shape_3" d="M5.71667 29.3371V34.4903C2.59618 36.0077 0.816667 37.9178 0.816667 40.0167C0.816667 45.6394 13.0667 49 24.9083 49C34.545 49 43.2017 46.9428 46.9583 43.7595C47.3025 43.4663 47.3438 42.9496 47.0506 42.6055C46.7574 42.2614 46.2408 42.2201 45.8967 42.5132C42.4773 45.4165 34.0419 47.3667 24.9083 47.3667C11.6734 47.3667 2.45 43.4932 2.45 40.0167C2.45 38.7182 3.64968 37.4385 5.71667 36.3204V37.5667C5.71667 38.0177 6.0823 38.3833 6.53333 38.3833C6.98437 38.3833 7.35 38.0177 7.35 37.5667V35.552C9.71814 34.6052 12.1828 33.9205 14.7 33.5103V35.9333C14.7 36.3844 15.0656 36.75 15.5167 36.75C15.9677 36.75 16.3333 36.3844 16.3333 35.9333V33.2579C16.8144 33.1902 17.3003 33.1256 17.7968 33.0701C18.2451 33.0196 18.5676 32.6152 18.5171 32.1669C18.4666 31.7185 18.0622 31.3961 17.6139 31.4466C17.177 31.4964 16.7564 31.5552 16.3333 31.6099V27.7038C18.3415 27.4082 22.05 25.7993 22.05 17.9667C21.9442 12.7859 20.0713 7.79671 16.7417 3.82609C16.4263 3.48904 15.9858 3.2972 15.5242 3.29597C15.0626 3.29473 14.6211 3.4842 14.3039 3.81956C12.7711 5.624 11.5372 7.66237 10.6493 9.85718C9.86536 8.27636 8.89389 6.7957 7.75588 5.44718C7.43889 5.11202 6.99792 4.92213 6.5366 4.92213C6.07528 4.92213 5.63431 5.11202 5.31732 5.44718C1.9869 9.42278 0.111305 14.415 0 19.6C0 27.4327 3.70848 29.0415 5.71667 29.3371ZM7.35 33.7814V29.3371C9.19378 29.0625 10.7956 27.924 11.6612 26.273C12.4968 27.0609 13.5607 27.5635 14.7 27.7087V31.859C12.1911 32.2487 9.72842 32.8929 7.35 33.7814ZM15.5101 4.90001C18.5884 8.56828 20.3197 13.1789 20.4167 17.9667C20.4167 22.6821 18.9385 25.5617 16.3333 26.0517V22.8667C16.3333 22.4156 15.9677 22.05 15.5167 22.05C15.0656 22.05 14.7 22.4156 14.7 22.8667V26.0517C13.7793 25.8787 12.9518 25.3797 12.3692 24.6462C12.8678 23.0117 13.1032 21.3084 13.0667 19.6C13.0524 16.9961 12.5539 14.4176 11.5967 11.996C12.4405 9.40442 13.7685 6.99649 15.5101 4.90001ZM6.53333 6.53334C8.00017 8.28341 9.17394 10.2595 10.0091 12.3848L10.0148 12.3962C10.9399 14.6859 11.4213 17.1305 11.4333 19.6C11.4333 24.3154 9.95517 27.195 7.35 27.685V24.8381L9.56072 22.6274C9.87021 22.307 9.86578 21.7976 9.55077 21.4826C9.23575 21.1676 8.72639 21.1631 8.40595 21.4726L6.53333 23.3452L4.66072 21.4726C4.34027 21.1631 3.83091 21.1676 3.5159 21.4826C3.20088 21.7976 3.19646 22.307 3.50595 22.6274L5.71667 24.8381V27.685C3.1115 27.195 1.63333 24.3163 1.63333 19.6C1.73892 14.8151 3.46662 10.2079 6.53333 6.53334Z" fill="#2487F7"/>
<path id="Shape_4" d="M47.4312 40.336C47.5593 40.6377 47.8555 40.8335 48.1833 40.8333C48.2931 40.8336 48.4018 40.8114 48.5026 40.768C48.9178 40.5918 49.1115 40.1125 48.9355 39.6973L39.7259 17.9332C39.9195 17.3038 40.0175 16.6488 40.0166 15.9903C40.0178 13.9566 39.1212 12.026 37.5666 10.7147V8.98333C37.5623 7.94879 36.9087 7.02844 35.9333 6.6836V2.85833C35.9333 1.27972 34.6536 0 33.075 0C31.4964 0 30.2166 1.27972 30.2166 2.85833V6.6836C29.2413 7.02844 28.5876 7.94879 28.5833 8.98333V10.7147C27.0291 12.0262 26.1326 13.9567 26.1333 15.9903C26.1324 16.6491 26.2301 17.3042 26.4232 17.934L17.2153 39.6973C17.0391 40.1123 17.2325 40.5915 17.6473 40.768C17.7482 40.8114 17.8569 40.8336 17.9666 40.8333C18.2942 40.8332 18.5899 40.6374 18.718 40.336L19.5918 38.2706L24.1317 36.3229C24.8858 35.9957 25.4903 35.3982 25.8262 34.6479L31.1509 22.6592C32.4041 23.0257 33.736 23.0257 34.9892 22.6592L40.3221 34.6528C40.6583 35.4033 41.2635 36.0006 42.0183 36.327L46.5541 38.2731L47.4312 40.336ZM35.1166 16.1373C35.1166 16.8668 34.7275 17.5408 34.0958 17.9055C33.4641 18.2702 32.6858 18.2702 32.0541 17.9055C31.4224 17.5408 31.0333 16.8668 31.0333 16.1373C31.0358 15.926 31.0722 15.7165 31.1411 15.5167H35.008C35.0779 15.7162 35.1146 15.9259 35.1166 16.1373ZM31.85 2.85833C31.85 2.18178 32.3984 1.63333 33.075 1.63333C33.7515 1.63333 34.3 2.18178 34.3 2.85833V6.53333H31.85V2.85833ZM30.2166 8.98333C30.2166 8.5323 30.5823 8.16667 31.0333 8.16667H35.1166C35.5677 8.16667 35.9333 8.5323 35.9333 8.98333V13.0667C35.9333 13.5177 35.5677 13.8833 35.1166 13.8833H31.0333C30.5823 13.8833 30.2166 13.5177 30.2166 13.0667V8.98333ZM23.4832 34.8235L20.5106 36.0967L27.3583 19.9087C27.9511 20.7764 28.7329 21.4985 29.645 22.0206L24.745 33.0652L24.3366 33.9815C24.2105 34.2625 24.0086 34.5029 23.7535 34.6757C23.6683 34.7334 23.5778 34.7829 23.4832 34.8235ZM31.0251 20.8895C29.6231 20.2993 28.5426 19.1346 28.059 17.6923C27.862 17.1466 27.763 16.5704 27.7666 15.9903C27.7655 14.9855 28.052 14.0013 28.5923 13.154C28.6175 13.898 28.9811 14.5898 29.5796 15.0324C29.463 15.3892 29.4024 15.7619 29.4 16.1373C29.4 18.167 31.0453 19.8123 33.075 19.8123C35.1046 19.8123 36.75 18.167 36.75 16.1373C36.7488 15.7603 36.6885 15.3858 36.5711 15.0275C37.1679 14.5856 37.531 13.8961 37.5577 13.154C38.0979 14.0013 38.3844 14.9855 38.3833 15.9903C38.3864 16.5786 38.2846 17.1626 38.0828 17.7151C37.6 19.1506 36.5204 20.3074 35.1215 20.8879C33.8103 21.4315 32.3368 21.4321 31.0251 20.8895ZM42.67 34.8251C42.2895 34.6618 41.9839 34.362 41.8133 33.9848L36.505 22.0214C37.4182 21.502 38.2004 20.7805 38.7916 19.912L45.6386 36.0967L42.67 34.8251Z" fill="#2487F7"/>
</g>
</g>
</g>
<defs>
<clipPath id="clip0_8_354">
<rect width="49" height="49" fill="white"/>
</clipPath>
</defs>
</svg>
