<svg width="32" height="32" viewBox="0 0 32 32" fill="none" xmlns="http://www.w3.org/2000/svg">
<path d="M29 13.84L26.54 24.71C26.4912 24.9374 26.3647 25.1407 26.1822 25.2849C25.9996 25.4291 25.7726 25.5052 25.54 25.5H6.38001C6.14747 25.5052 5.92039 25.4291 5.73787 25.2849C5.55535 25.1407 5.4288 24.9374 5.38001 24.71L3.00001 13.84C2.95996 13.6563 2.97249 13.4651 3.03616 13.2882C3.09984 13.1113 3.21208 12.956 3.36001 12.84C3.50835 12.7236 3.68658 12.6515 3.87414 12.632C4.06169 12.6126 4.25093 12.6465 4.42001 12.73L10.26 15.56L15.1 6.99999C15.1872 6.84609 15.3137 6.71808 15.4666 6.62902C15.6194 6.53997 15.7931 6.49304 15.97 6.49304C16.1469 6.49304 16.3206 6.53997 16.4735 6.62902C16.6263 6.71808 16.7528 6.84609 16.84 6.99999L21.68 15.57L27.56 12.72C27.7303 12.6297 27.9231 12.5906 28.1151 12.6073C28.3071 12.624 28.4902 12.6958 28.6423 12.8142C28.7945 12.9325 28.9092 13.0923 28.9726 13.2743C29.0361 13.4563 29.0456 13.6527 29 13.84Z" fill="#302506"/>
</svg>
