<svg width="25" height="23" viewBox="0 0 25 23" fill="none" xmlns="http://www.w3.org/2000/svg">
<path d="M9.37999 19.9046L8.74014 20.6731L9.37999 19.9046C9.03321 19.6158 8.68071 19.3278 8.32645 19.0384C4.81247 16.1672 1.125 13.1543 1.125 7.89877C1.125 5.0652 2.64113 2.72225 4.65905 1.74806C6.59706 0.812442 9.22613 1.03811 11.7609 3.8195L12.5 4.63055L13.2391 3.8195C15.7738 1.03811 18.4029 0.812441 20.3409 1.74806C22.3589 2.72226 23.875 5.0652 23.875 7.89877C23.875 13.1543 20.1875 16.1672 16.6735 19.0384C16.3193 19.3278 15.9668 19.6158 15.6201 19.9045C14.9681 20.4473 14.3913 20.9196 13.837 21.2617C13.2809 21.6049 12.8507 21.75 12.5 21.75C12.1493 21.75 11.7191 21.6049 11.163 21.2617C10.6087 20.9196 10.0319 20.4473 9.37999 19.9046Z" fill="white" stroke="#C9CDDC" stroke-width="2"/>
</svg>
