<svg width="25" height="23" viewBox="0 0 25 23" fill="none" xmlns="http://www.w3.org/2000/svg">
<path fill-rule="evenodd" clip-rule="evenodd" d="M5.3274 2.97719C3.46104 3.8303 2.09375 5.85947 2.09375 8.2792C2.09375 10.7513 3.10537 12.6567 4.55558 14.2897C5.75081 15.6356 7.1977 16.751 8.60877 17.8389C8.94392 18.0973 9.27704 18.3541 9.60431 18.6121C10.1961 19.0786 10.724 19.4881 11.2328 19.7854C11.7419 20.0828 12.1517 20.2187 12.5 20.2187C12.8483 20.2187 13.2581 20.0828 13.7672 19.7854C14.276 19.4881 14.8039 19.0786 15.3958 18.6121C15.723 18.3541 16.0561 18.0973 16.3913 17.8389C17.8024 16.751 19.2492 15.6356 20.4444 14.2897C21.8947 12.6567 22.9062 10.7513 22.9062 8.2792C22.9062 5.85947 21.5389 3.8303 19.6726 2.97719C17.8594 2.14838 15.4231 2.36786 13.1079 4.77329C12.9489 4.93855 12.7294 5.03193 12.5 5.03193C12.2706 5.03193 12.0511 4.93855 11.8921 4.77329C9.57687 2.36786 7.14058 2.14838 5.3274 2.97719ZM12.5 3.01613C9.89894 0.688981 6.98633 0.36344 4.62585 1.44242C2.1328 2.58201 0.40625 5.22812 0.40625 8.2792C0.40625 11.2779 1.65556 13.5655 3.29381 15.4103C4.60573 16.8875 6.2115 18.1239 7.62968 19.2159C7.95116 19.4634 8.263 19.7035 8.5596 19.9373C9.13586 20.3917 9.75448 20.876 10.3814 21.2424C11.0081 21.6086 11.7233 21.9062 12.5 21.9062C13.2767 21.9062 13.9919 21.6086 14.6186 21.2424C15.2456 20.876 15.8641 20.3915 16.4404 19.9373C16.737 19.7035 17.0488 19.4634 17.3703 19.2159C18.7885 18.1239 20.3942 16.8875 21.7062 15.4103C23.3444 13.5655 24.5938 11.2779 24.5938 8.2792C24.5938 5.22812 22.8672 2.58201 20.3741 1.44242C18.0136 0.36344 15.1011 0.688981 12.5 3.01613Z" fill="#000B33" stroke="black" stroke-width="0.5"/>
</svg>
