<svg width="15" height="13" viewBox="0 0 15 13" fill="none" xmlns="http://www.w3.org/2000/svg">
<path d="M7.13857 2.0187L7.5 2.39679L7.86143 2.0187C9.42124 0.386967 11.0721 0.231315 12.3065 0.799432C13.5734 1.38249 14.5 2.76833 14.5 4.41929C14.5 6.10048 13.8158 7.39494 12.8419 8.49915C12.0407 9.40758 11.0701 10.1609 10.129 10.8914C9.90611 11.0644 9.68484 11.2361 9.46788 11.4084C9.0739 11.7211 8.71861 11.9987 8.37505 12.2008C8.03124 12.4031 7.74721 12.5 7.5 12.5C7.25279 12.5 6.96876 12.4031 6.62496 12.2008C6.2814 11.9987 5.92611 11.7211 5.53215 11.4084C5.31517 11.2361 5.09389 11.0644 4.87096 10.8913C3.92989 10.1609 2.95935 9.40757 2.15811 8.49914C1.18418 7.39494 0.5 6.10048 0.5 4.41929C0.5 2.76833 1.42661 1.38249 2.69346 0.799432C3.92785 0.231315 5.57874 0.386966 7.13857 2.0187Z" fill="white" stroke="#000B33"/>
</svg>
