<svg width="33" height="33" viewBox="0 0 33 33" fill="none" xmlns="http://www.w3.org/2000/svg">
<path d="M24 10.57H23.47V7.47C23.47 5.48883 22.683 3.58881 21.2821 2.18791C19.8812 0.787015 17.9812 0 16 0C14.0188 0 12.1188 0.787015 10.7179 2.18791C9.31702 3.58881 8.53 5.48883 8.53 7.47V10.57H8C6.93913 10.57 5.92172 10.9914 5.17157 11.7416C4.42143 12.4917 4 13.5091 4 14.57V26C4 27.0609 4.42143 28.0783 5.17157 28.8284C5.92172 29.5786 6.93913 30 8 30H24C25.0609 30 26.0783 29.5786 26.8284 28.8284C27.5786 28.0783 28 27.0609 28 26V14.57C28 13.5091 27.5786 12.4917 26.8284 11.7416C26.0783 10.9914 25.0609 10.57 24 10.57ZM10.53 7.47C10.53 6.75167 10.6715 6.04037 10.9464 5.37672C11.2213 4.71307 11.6242 4.11006 12.1321 3.60213C12.6401 3.09419 13.2431 2.69127 13.9067 2.41638C14.5704 2.14149 15.2817 2 16 2C16.7183 2 17.4296 2.14149 18.0933 2.41638C18.7569 2.69127 19.3599 3.09419 19.8679 3.60213C20.3758 4.11006 20.7787 4.71307 21.0536 5.37672C21.3285 6.04037 21.47 6.75167 21.47 7.47V10.57H10.53V7.47ZM26 26C26 26.5304 25.7893 27.0391 25.4142 27.4142C25.0391 27.7893 24.5304 28 24 28H8C7.46957 28 6.96086 27.7893 6.58579 27.4142C6.21071 27.0391 6 26.5304 6 26V14.57C6 14.0396 6.21071 13.5309 6.58579 13.1558C6.96086 12.7807 7.46957 12.57 8 12.57H24C24.5304 12.57 25.0391 12.7807 25.4142 13.1558C25.7893 13.5309 26 14.0396 26 14.57V26Z" fill="#5D6185"/>
<path d="M16.5 16.4862C16.0999 16.4863 15.709 16.6059 15.3773 16.8296C15.0456 17.0533 14.7882 17.371 14.6382 17.7419C14.4882 18.1128 14.4524 18.5201 14.5353 18.9115C14.6183 19.3029 14.8162 19.6606 15.1037 19.9388V22.3839C15.1037 22.6574 15.2124 22.9197 15.4058 23.1131C15.5992 23.3065 15.8615 23.4152 16.135 23.4152H16.8651C17.1386 23.4152 17.4009 23.3065 17.5943 23.1131C17.7877 22.9197 17.8964 22.6574 17.8964 22.3839V19.9388C18.1839 19.6606 18.3818 19.3029 18.4648 18.9115C18.5477 18.5201 18.5119 18.1128 18.3619 17.7419C18.2119 17.371 17.9545 17.0533 17.6228 16.8296C17.2911 16.6059 16.9001 16.4863 16.5 16.4862Z" fill="#5D6185"/>
</svg>
