<svg width="53" height="53" viewBox="0 0 53 53" fill="none" xmlns="http://www.w3.org/2000/svg">
<g id="medicine 1">
<g id="Group">
<g id="Group_2">
<path id="Vector" d="M26.6824 5.70753C26.5409 5.15372 25.978 4.81926 25.4233 4.96066C23.1909 5.53083 21.3338 6.9317 20.1946 8.90523C19.9086 9.40034 20.0783 10.0333 20.5734 10.3191C20.7365 10.4132 20.9144 10.4581 21.09 10.4581C21.4477 10.4581 21.7957 10.2724 21.9873 9.94028C22.8456 8.45359 24.2478 7.39742 25.9356 6.96649C26.4894 6.82519 26.8238 6.26154 26.6824 5.70753Z" fill="#2487F7"/>
</g>
</g>
<g id="Group_3">
<g id="Group_4">
<path id="Vector_2" d="M28.9401 4.81132C28.9246 4.80852 28.9089 4.80593 28.8924 4.80345C28.328 4.71691 27.8035 5.10395 27.7159 5.66811C27.6285 6.23124 28.0161 6.75917 28.5779 6.84954C28.6377 6.85999 28.6972 6.86496 28.7561 6.86496C29.2467 6.86496 29.6824 6.51456 29.7733 6.01489C29.8755 5.45239 29.5025 4.91359 28.9401 4.81132Z" fill="#2487F7"/>
</g>
</g>
<g id="Group_5">
<g id="Group_6">
<path id="Vector_3" d="M47.717 31.3442C46.955 31.1265 46.1309 30.9337 45.2573 30.7668C45.208 30.754 45.1576 30.7449 45.1065 30.7394C42.56 30.2647 39.6031 30.0092 36.5203 30.0092C34.8124 30.0092 33.1442 30.0886 31.5615 30.239L37.9576 19.1609C39.5632 16.38 39.9867 13.1294 39.1502 10.0077C38.3137 6.88617 36.3215 4.28285 33.5406 2.67743C27.7782 -0.649355 20.3838 1.33173 17.0571 7.09392L9.33659 20.4659C9.33586 20.467 9.33504 20.4679 9.33442 20.4691C9.33379 20.4702 9.33328 20.4713 9.33265 20.4725L1.61205 33.8449C0.00641474 36.6259 -0.417068 39.8765 0.419339 42.9982C1.25574 46.1197 3.24801 48.7231 6.02895 50.3285C7.86894 51.3907 9.93522 51.9369 12.031 51.9369C12.914 51.9369 13.8024 51.84 14.681 51.6437C17.0193 51.1217 19.1215 49.9369 20.7516 48.2479C21.5708 49.1815 23.0954 49.9706 25.3145 50.6045C28.3216 51.4636 32.3009 51.9368 36.5199 51.9368C40.7388 51.9368 44.7182 51.4636 47.7252 50.6045C51.2249 49.6047 52.9995 48.22 52.9995 46.4889V35.4634C52.9997 35.4612 52.9999 35.4593 52.9999 35.4571C53 33.7295 51.2225 32.3457 47.717 31.3442ZM36.5204 32.0793C38.1499 32.0794 39.7373 32.1538 41.2396 32.2948L28.09 38.0985C27.3099 37.9471 26.5734 37.7741 25.8925 37.5796C22.7902 36.6932 22.1109 35.7468 22.1109 35.457C22.1109 35.1672 22.7903 34.2208 25.8926 33.3343C28.7253 32.5251 32.4997 32.0793 36.5204 32.0793ZM18.8498 8.12908C21.6058 3.35546 27.7317 1.71422 32.5055 4.47022C34.8074 5.79925 36.4572 7.95621 37.1506 10.5436C37.844 13.1311 37.4939 15.8238 36.1649 18.1259L28.9865 30.5588C28.9585 30.5632 28.9311 30.5681 28.903 30.5725L11.6449 20.6079L18.8498 8.12908ZM20.0406 35.4517C20.0406 35.4537 20.0403 35.4553 20.0403 35.4573V45.8968C17.0379 49.8726 11.4042 51.0416 7.06421 48.5357C4.76213 47.2066 3.1124 45.0497 2.41905 42.4623C1.72571 39.8748 2.0759 37.1821 3.40483 34.88L10.6098 22.4006L25.8507 31.2005C25.6722 31.2472 25.4958 31.2948 25.3234 31.3441C21.8217 32.3447 20.0445 33.7267 20.0406 35.4517ZM50.9297 46.489C50.9297 46.7803 50.2519 47.7299 47.1569 48.6141C44.3296 49.4219 40.5521 49.8668 36.5202 49.8668C32.4883 49.8668 28.7107 49.4219 25.8835 48.6141C22.7883 47.7299 22.1106 46.7803 22.1106 46.489V38.2837C22.9366 38.7649 24.0086 39.1944 25.3236 39.5702C26.1358 39.8023 27.0201 40.0052 27.9579 40.1793C28.0035 40.1908 28.0496 40.1994 28.0965 40.2045C30.606 40.66 33.5026 40.9051 36.5203 40.9051C40.7279 40.9051 44.7044 40.431 47.717 39.5703C49.0318 39.1946 50.1036 38.7653 50.9297 38.284V46.489ZM50.9297 35.4573V35.4601C50.9254 35.7532 50.2409 36.6961 47.1484 37.5799C44.3156 38.3891 40.5411 38.8349 36.5203 38.8349C34.9611 38.8349 33.44 38.7671 31.9953 38.6378L45.1125 32.8484C45.8323 32.9921 46.5149 33.1538 47.1483 33.3347C50.245 34.2194 50.9272 35.1639 50.9298 35.4557C50.9298 35.4562 50.9297 35.4567 50.9297 35.4573Z" fill="#2487F7"/>
</g>
</g>
</g>
</svg>
