<svg width="33" height="33" viewBox="0 0 33 33" fill="none" xmlns="http://www.w3.org/2000/svg">
<g id="add-post 1">
<g id="Group">
<path id="Vector" d="M16.5 22.1719C15.9304 22.1719 15.4688 21.7102 15.4688 21.1406V17.5312H11.8594C11.2898 17.5312 10.8281 17.0696 10.8281 16.5C10.8281 15.9304 11.2898 15.4688 11.8594 15.4688H15.4688V11.8594C15.4688 11.2898 15.9304 10.8281 16.5 10.8281C17.0696 10.8281 17.5312 11.2898 17.5312 11.8594V15.4688H21.1406C21.7102 15.4688 22.1719 15.9304 22.1719 16.5C22.1719 17.0696 21.7102 17.5312 21.1406 17.5312H17.5312V21.1406C17.5312 21.7102 17.0696 22.1719 16.5 22.1719Z" fill="#000B33"/>
<path id="Vector_2" fill-rule="evenodd" clip-rule="evenodd" d="M9.28125 1.03125C4.7249 1.03125 1.03125 4.7249 1.03125 9.28125V23.7188C1.03125 28.2751 4.7249 31.9688 9.28125 31.9688H23.7188C28.2751 31.9688 31.9688 28.2751 31.9688 23.7188V10.6256C31.9688 9.48229 31.4942 8.3902 30.6583 7.61006L24.7983 2.14065C24.0344 1.42774 23.0285 1.03125 21.9837 1.03125H9.28125ZM3.09375 9.28125C3.09375 5.864 5.864 3.09375 9.28125 3.09375H21.6562V6.1875C21.6562 8.46569 23.5031 10.3125 25.7812 10.3125H29.8823C29.8982 10.4155 29.9062 10.5201 29.9062 10.6256V23.7188C29.9062 27.136 27.136 29.9062 23.7188 29.9062H9.28125C5.864 29.9062 3.09375 27.136 3.09375 23.7188V9.28125ZM23.7188 6.1875V3.95438L28.3212 8.25H25.7812C24.6422 8.25 23.7188 7.32657 23.7188 6.1875Z" fill="#000B33"/>
</g>
</g>
</svg>
