<svg width="28" height="28" viewBox="0 0 28 28" fill="none" xmlns="http://www.w3.org/2000/svg">
<path d="M3.94776 19.5813V8.41866C3.94816 7.89637 4.08599 7.38338 4.34743 6.93122C4.60885 6.47907 4.98467 6.10368 5.43711 5.84275C5.88956 5.58183 6.40271 5.44457 6.925 5.44476C7.44729 5.44495 7.96033 5.58258 8.41259 5.84383L13.2496 8.62749L18.0831 11.4252C18.5346 11.6865 18.9095 12.0619 19.1701 12.5139C19.4307 12.9658 19.5678 13.4783 19.5678 14C19.5678 14.5217 19.4307 15.0342 19.1701 15.4861C18.9095 15.938 18.5346 16.3135 18.0831 16.5748L13.2461 19.3748L8.40909 22.1585C7.95675 22.419 7.44386 22.5559 6.92189 22.5555C6.39991 22.5552 5.88721 22.4176 5.43523 22.1565C4.98325 21.8954 4.60788 21.52 4.3468 21.068C4.08572 20.616 3.9481 20.1033 3.94776 19.5813ZM23.1768 22.0862C23.4088 22.0862 23.6314 21.994 23.7955 21.8299C23.9596 21.6658 24.0518 21.4432 24.0518 21.2112V6.78883C24.0518 6.55676 23.9596 6.3342 23.7955 6.1701C23.6314 6.00601 23.4088 5.91382 23.1768 5.91382C22.9447 5.91382 22.7221 6.00601 22.558 6.1701C22.3939 6.3342 22.3018 6.55676 22.3018 6.78883V21.2112C22.3018 21.4432 22.3939 21.6658 22.558 21.8299C22.7221 21.994 22.9447 22.0862 23.1768 22.0862Z" fill="#000B33"/>
</svg>
