<svg width="26" height="27" viewBox="0 0 26 27" fill="none" xmlns="http://www.w3.org/2000/svg">
<path d="M20.2171 11.3474L8.30047 4.62425C7.9113 4.40184 7.47016 4.28649 7.02194 4.28991C6.57372 4.29334 6.1344 4.41542 5.74868 4.64375C5.37288 4.85867 5.06067 5.16923 4.84376 5.54388C4.62685 5.91853 4.51296 6.34392 4.51368 6.77683V20.2232C4.51296 20.6561 4.62685 21.0815 4.84376 21.4561C5.06067 21.8308 5.37288 22.1413 5.74868 22.3562C6.13444 22.5845 6.57374 22.7065 7.02194 22.7099C7.47014 22.7133 7.91126 22.598 8.30047 22.3757L20.2171 15.6526C20.6015 15.4397 20.9218 15.1278 21.1448 14.7492C21.3679 14.3707 21.4855 13.9394 21.4855 13.5C21.4855 13.0606 21.3679 12.6293 21.1448 12.2508C20.9218 11.8722 20.6015 11.5603 20.2171 11.3474Z" fill="white"/>
</svg>
