<svg width="23" height="23" viewBox="0 0 23 23" fill="none" xmlns="http://www.w3.org/2000/svg">
<path d="M19.4512 23C18.955 23 18.5527 22.5978 18.5527 22.1016C18.5527 18.5842 15.6912 15.7227 12.1738 15.7227H10.8262C7.30883 15.7227 4.44727 18.5842 4.44727 22.1016C4.44727 22.5978 4.04504 23 3.54883 23C3.05262 23 2.65039 22.5978 2.65039 22.1016C2.65039 17.5934 6.31804 13.9258 10.8262 13.9258H12.1738C16.682 13.9258 20.3496 17.5934 20.3496 22.1016C20.3496 22.5978 19.9474 23 19.4512 23Z" fill="#000B33"/>
<path d="M11.4102 12.1289C8.06622 12.1289 5.3457 9.40839 5.3457 6.06445C5.3457 2.72051 8.06622 0 11.4102 0C14.7541 0 17.4746 2.72051 17.4746 6.06445C17.4746 9.40839 14.7541 12.1289 11.4102 12.1289ZM11.4102 1.79688C9.05701 1.79688 7.14258 3.71131 7.14258 6.06445C7.14258 8.4176 9.05701 10.332 11.4102 10.332C13.7633 10.332 15.6777 8.4176 15.6777 6.06445C15.6777 3.71131 13.7633 1.79688 11.4102 1.79688Z" fill="#000B33"/>
</svg>
