<svg width="26" height="26" viewBox="0 0 26 26" fill="none" xmlns="http://www.w3.org/2000/svg">
<path d="M21.9375 13H17.875V4.0625C17.875 3.41603 17.6182 2.79605 17.1611 2.33893C16.704 1.88181 16.084 1.625 15.4375 1.625H4.0625C3.41603 1.625 2.79605 1.88181 2.33893 2.33893C1.88181 2.79605 1.625 3.41603 1.625 4.0625V20.3125C1.625 21.3899 2.05301 22.4233 2.81488 23.1851C3.57675 23.947 4.61006 24.375 5.6875 24.375H20.3125C21.3899 24.375 22.4233 23.947 23.1851 23.1851C23.947 22.4233 24.375 21.3899 24.375 20.3125V15.4375C24.375 14.791 24.1182 14.171 23.6611 13.7139C23.204 13.2568 22.584 13 21.9375 13ZM3.25 20.3125V4.0625C3.25 3.84701 3.3356 3.64035 3.48798 3.48798C3.64035 3.3356 3.84701 3.25 4.0625 3.25H15.4375C15.653 3.25 15.8597 3.3356 16.012 3.48798C16.1644 3.64035 16.25 3.84701 16.25 4.0625V20.3125C16.2452 21.1923 16.5308 22.049 17.0625 22.75H5.6875C5.04103 22.75 4.42105 22.4932 3.96393 22.0361C3.50681 21.579 3.25 20.959 3.25 20.3125ZM22.75 20.3125C22.75 20.959 22.4932 21.579 22.0361 22.0361C21.579 22.4932 20.959 22.75 20.3125 22.75C19.666 22.75 19.046 22.4932 18.5889 22.0361C18.1318 21.579 17.875 20.959 17.875 20.3125V14.625H21.9375C22.153 14.625 22.3597 14.7106 22.512 14.863C22.6644 15.0153 22.75 15.222 22.75 15.4375V20.3125Z" fill="#8C8FA8"/>
<path d="M5.6875 6.5H8.9375C9.15299 6.5 9.35965 6.4144 9.51202 6.26202C9.6644 6.10965 9.75 5.90299 9.75 5.6875C9.75 5.47201 9.6644 5.26535 9.51202 5.11298C9.35965 4.9606 9.15299 4.875 8.9375 4.875H5.6875C5.47201 4.875 5.26535 4.9606 5.11298 5.11298C4.9606 5.26535 4.875 5.47201 4.875 5.6875C4.875 5.90299 4.9606 6.10965 5.11298 6.26202C5.26535 6.4144 5.47201 6.5 5.6875 6.5Z" fill="#8C8FA8"/>
<path d="M13.8125 10.5625H5.6875C5.47201 10.5625 5.26535 10.6481 5.11298 10.8005C4.9606 10.9528 4.875 11.1595 4.875 11.375C4.875 11.5905 4.9606 11.7972 5.11298 11.9495C5.26535 12.1019 5.47201 12.1875 5.6875 12.1875H13.8125C14.028 12.1875 14.2347 12.1019 14.387 11.9495C14.5394 11.7972 14.625 11.5905 14.625 11.375C14.625 11.1595 14.5394 10.9528 14.387 10.8005C14.2347 10.6481 14.028 10.5625 13.8125 10.5625Z" fill="#8C8FA8"/>
<path d="M13.8125 13.8125H5.6875C5.47201 13.8125 5.26535 13.8981 5.11298 14.0505C4.9606 14.2028 4.875 14.4095 4.875 14.625C4.875 14.8405 4.9606 15.0472 5.11298 15.1995C5.26535 15.3519 5.47201 15.4375 5.6875 15.4375H13.8125C14.028 15.4375 14.2347 15.3519 14.387 15.1995C14.5394 15.0472 14.625 14.8405 14.625 14.625C14.625 14.4095 14.5394 14.2028 14.387 14.0505C14.2347 13.8981 14.028 13.8125 13.8125 13.8125Z" fill="#8C8FA8"/>
<path d="M13.8125 17.0625H9.75C9.53451 17.0625 9.32785 17.1481 9.17548 17.3005C9.0231 17.4528 8.9375 17.6595 8.9375 17.875C8.9375 18.0905 9.0231 18.2972 9.17548 18.4495C9.32785 18.6019 9.53451 18.6875 9.75 18.6875H13.8125C14.028 18.6875 14.2347 18.6019 14.387 18.4495C14.5394 18.2972 14.625 18.0905 14.625 17.875C14.625 17.6595 14.5394 17.4528 14.387 17.3005C14.2347 17.1481 14.028 17.0625 13.8125 17.0625Z" fill="#8C8FA8"/>
</svg>
