<svg width="22" height="22" viewBox="0 0 22 22" fill="none" xmlns="http://www.w3.org/2000/svg">
<rect width="22" height="22" fill="#F5F5F5"/>
<rect width="1920" height="5601" transform="translate(-1003 -80)" fill="white"/>
<rect x="-365.5" y="-18.5" width="408" height="61" rx="30.5" fill="white" stroke="#DEE2E7"/>
<circle cx="10.5" cy="11.5" r="23.5" fill="#1C3E77"/>
<g clip-path="url(#clip0_1_49)">
<path d="M21.7915 20.8031L16.1115 15.2138C17.5989 13.5978 18.5128 11.4606 18.5128 9.10875C18.5121 4.07781 14.3682 0 9.25616 0C4.14408 0 0.000244141 4.07781 0.000244141 9.10875C0.000244141 14.1397 4.14408 18.2175 9.25616 18.2175C11.4649 18.2175 13.4908 17.4535 15.082 16.1834L20.7841 21.7947C21.062 22.0684 21.513 22.0684 21.7909 21.7947C22.0693 21.521 22.0693 21.0768 21.7915 20.8031ZM9.25616 16.8161C4.93079 16.8161 1.4244 13.3654 1.4244 9.10875C1.4244 4.85211 4.93079 1.40143 9.25616 1.40143C13.5816 1.40143 17.0879 4.85211 17.0879 9.10875C17.0879 13.3654 13.5816 16.8161 9.25616 16.8161Z" fill="white"/>
</g>
<defs>
<clipPath id="clip0_1_49">
<rect width="22" height="22" fill="white"/>
</clipPath>
</defs>
</svg>
