<svg width="55" height="55" viewBox="0 0 55 55" fill="none" xmlns="http://www.w3.org/2000/svg">
<g id="tech 1" clip-path="url(#clip0_8_433)">
<path id="Vector" d="M27.5 27.5C27.3648 27.5 27.2319 27.4771 27.1036 27.429L5.33275 19.4081C4.88129 19.2431 4.58337 18.8123 4.58337 18.3333C4.58337 17.8544 4.88358 17.4235 5.33504 17.2585L20.2309 11.7815C20.8221 11.566 21.4844 11.8685 21.7021 12.4621C21.9198 13.0556 21.615 13.7133 21.0215 13.9333L9.04754 18.3333L27.5 25.1327L45.9525 18.3333L33.9786 13.931C33.385 13.7133 33.0802 13.0533 33.298 12.4598C33.5157 11.8663 34.1757 11.5638 34.7692 11.7792L49.665 17.2563C50.1165 17.4235 50.4167 17.8544 50.4167 18.3333C50.4167 18.8123 50.1188 19.2431 49.6673 19.4081L27.8965 27.429C27.7682 27.4771 27.6353 27.5 27.5 27.5Z" fill="#7260EB"/>
<path id="Vector_2" d="M27.5 55C27.3648 55 27.2319 54.9771 27.1058 54.9289L14.9371 50.4602C14.3436 50.2425 14.0388 49.5848 14.2565 48.9889C14.4742 48.3954 15.1342 48.0906 15.7277 48.3083L27.5 52.6327L39.2746 48.3083C39.8681 48.0883 40.5258 48.3954 40.7458 48.9889C40.9636 49.5825 40.6588 50.2402 40.0652 50.4602L27.8965 54.9289C27.7681 54.9771 27.6352 55 27.5 55Z" fill="#7260EB"/>
<path id="Vector_3" d="M5.72921 40.7C5.09671 40.7 4.58337 40.1867 4.58337 39.5542V18.3333C4.58337 17.7008 5.09671 17.1875 5.72921 17.1875C6.36171 17.1875 6.87504 17.7008 6.87504 18.3333V39.5542C6.87504 40.1867 6.36171 40.7 5.72921 40.7Z" fill="#7260EB"/>
<path id="Vector_4" d="M49.2708 40.7C48.6383 40.7 48.125 40.1867 48.125 39.5542V18.3333C48.125 17.7008 48.6383 17.1875 49.2708 17.1875C49.9033 17.1875 50.4167 17.7008 50.4167 18.3333V39.5542C50.4167 40.1867 49.9033 40.7 49.2708 40.7Z" fill="#7260EB"/>
<path id="Vector_5" d="M27.5 18.3333C26.8675 18.3333 26.3541 17.82 26.3541 17.1875V8.02083C26.3541 7.38833 26.8675 6.875 27.5 6.875C28.1325 6.875 28.6458 7.38833 28.6458 8.02083V17.1875C28.6458 17.82 28.1325 18.3333 27.5 18.3333Z" fill="#7260EB"/>
<path id="Vector_6" d="M47.9875 49.1333C47.6941 49.1333 47.4008 49.021 47.1762 48.7987L41.5845 43.2071C41.1377 42.7602 41.1377 42.0337 41.5845 41.5869C42.0314 41.14 42.7579 41.14 43.2048 41.5869L48.7964 47.1785C49.2433 47.6254 49.2433 48.3519 48.7964 48.7987C48.5741 49.021 48.2808 49.1333 47.9875 49.1333Z" fill="#7260EB"/>
<path id="Vector_7" d="M7.01249 49.1333C6.71916 49.1333 6.42583 49.021 6.20125 48.7987C5.75437 48.3519 5.75437 47.6254 6.20125 47.1785L11.7929 41.5869C12.2398 41.14 12.9662 41.14 13.4131 41.5869C13.86 42.0337 13.86 42.7602 13.4131 43.2071L7.82145 48.7987C7.59916 49.021 7.30583 49.1333 7.01249 49.1333Z" fill="#7260EB"/>
<path id="Vector_8" d="M27.5 55C26.8675 55 26.3541 54.4867 26.3541 53.8542V26.3542C26.3541 25.7217 26.8675 25.2083 27.5 25.2083C28.1325 25.2083 28.6458 25.7217 28.6458 26.3542V53.8542C28.6458 54.4867 28.1325 55 27.5 55Z" fill="#7260EB"/>
<path id="Vector_9" d="M27.5 9.16667C24.9723 9.16667 22.9166 7.11104 22.9166 4.58333C22.9166 2.05562 24.9723 0 27.5 0C30.0277 0 32.0833 2.05562 32.0833 4.58333C32.0833 7.11104 30.0277 9.16667 27.5 9.16667ZM27.5 2.29167C26.2373 2.29167 25.2083 3.32063 25.2083 4.58333C25.2083 5.84604 26.2373 6.875 27.5 6.875C28.7627 6.875 29.7916 5.84604 29.7916 4.58333C29.7916 3.32063 28.7627 2.29167 27.5 2.29167Z" fill="#7260EB"/>
<path id="Vector_10" d="M50.4167 55C47.889 55 45.8334 52.9444 45.8334 50.4167C45.8334 47.889 47.889 45.8333 50.4167 45.8333C52.9444 45.8333 55 47.889 55 50.4167C55 52.9444 52.9444 55 50.4167 55ZM50.4167 48.125C49.154 48.125 48.125 49.154 48.125 50.4167C48.125 51.6794 49.154 52.7083 50.4167 52.7083C51.6794 52.7083 52.7084 51.6794 52.7084 50.4167C52.7084 49.154 51.6794 48.125 50.4167 48.125Z" fill="#7260EB"/>
<path id="Vector_11" d="M4.58333 55C2.05562 55 0 52.9444 0 50.4167C0 47.889 2.05562 45.8333 4.58333 45.8333C7.11104 45.8333 9.16667 47.889 9.16667 50.4167C9.16667 52.9444 7.11104 55 4.58333 55ZM4.58333 48.125C3.32063 48.125 2.29167 49.154 2.29167 50.4167C2.29167 51.6794 3.32063 52.7083 4.58333 52.7083C5.84604 52.7083 6.875 51.6794 6.875 50.4167C6.875 49.154 5.84604 48.125 4.58333 48.125Z" fill="#7260EB"/>
</g>
<defs>
<clipPath id="clip0_8_433">
<rect width="55" height="55" fill="white"/>
</clipPath>
</defs>
</svg>
